%TF.GenerationSoftware,KiCad,Pcbnew,8.0.4-8.0.4-0~ubuntu22.04.1*%
%TF.CreationDate,2024-08-18T15:20:48-07:00*%
%TF.ProjectId,feather_M4_express,66656174-6865-4725-9f4d-345f65787072,rev?*%
%TF.SameCoordinates,Original*%
%TF.FileFunction,Drillmap*%
%TF.FilePolarity,Positive*%
%FSLAX45Y45*%
G04 Gerber Fmt 4.5, Leading zero omitted, Abs format (unit mm)*
G04 Created by KiCad (PCBNEW 8.0.4-8.0.4-0~ubuntu22.04.1) date 2024-08-18 15:20:48*
%MOMM*%
%LPD*%
G01*
G04 APERTURE LIST*
%ADD10C,0.050000*%
%ADD11C,0.200000*%
%ADD12C,0.250000*%
%ADD13C,0.254000*%
G04 APERTURE END LIST*
D10*
X20431025Y-12874525D02*
X20431025Y-13509525D01*
X20431025Y-13509525D02*
X20481825Y-13560325D01*
X20431025Y-14017525D02*
X20431025Y-14652525D01*
X20481825Y-13560325D02*
X20481825Y-13966725D01*
X20481825Y-13966725D02*
X20431025Y-14017525D01*
X20685025Y-14906525D02*
X25253415Y-14906525D01*
X25253415Y-12620525D02*
X20685025Y-12620525D01*
X25507415Y-14652525D02*
X25507415Y-12874525D01*
X20431025Y-12874525D02*
G75*
G02*
X20685025Y-12620525I254000J0D01*
G01*
X20685025Y-14906525D02*
G75*
G02*
X20431025Y-14652525I0J254000D01*
G01*
X25253415Y-12620525D02*
G75*
G02*
X25507415Y-12874525I0J-254000D01*
G01*
X25507415Y-14652525D02*
G75*
G02*
X25253415Y-14906525I-254000J0D01*
G01*
D11*
D12*
X25132760Y-12750260D02*
X25382760Y-13000260D01*
X25382760Y-12750260D02*
X25132760Y-13000260D01*
X25132760Y-14528260D02*
X25382760Y-14778260D01*
X25382760Y-14528260D02*
X25132760Y-14778260D01*
D13*
X25384760Y-14653260D02*
G75*
G02*
X25130760Y-14653260I-127000J0D01*
G01*
X25130760Y-14653260D02*
G75*
G02*
X25384760Y-14653260I127000J0D01*
G01*
D11*
X20689302Y-15220509D02*
X20689302Y-15020509D01*
X20689302Y-15020509D02*
X20736921Y-15020509D01*
X20736921Y-15020509D02*
X20765492Y-15030033D01*
X20765492Y-15030033D02*
X20784540Y-15049080D01*
X20784540Y-15049080D02*
X20794064Y-15068128D01*
X20794064Y-15068128D02*
X20803588Y-15106223D01*
X20803588Y-15106223D02*
X20803588Y-15134795D01*
X20803588Y-15134795D02*
X20794064Y-15172890D01*
X20794064Y-15172890D02*
X20784540Y-15191937D01*
X20784540Y-15191937D02*
X20765492Y-15210985D01*
X20765492Y-15210985D02*
X20736921Y-15220509D01*
X20736921Y-15220509D02*
X20689302Y-15220509D01*
X20889302Y-15220509D02*
X20889302Y-15087175D01*
X20889302Y-15125271D02*
X20898826Y-15106223D01*
X20898826Y-15106223D02*
X20908350Y-15096699D01*
X20908350Y-15096699D02*
X20927397Y-15087175D01*
X20927397Y-15087175D02*
X20946445Y-15087175D01*
X21013111Y-15220509D02*
X21013111Y-15087175D01*
X21013111Y-15020509D02*
X21003588Y-15030033D01*
X21003588Y-15030033D02*
X21013111Y-15039556D01*
X21013111Y-15039556D02*
X21022635Y-15030033D01*
X21022635Y-15030033D02*
X21013111Y-15020509D01*
X21013111Y-15020509D02*
X21013111Y-15039556D01*
X21136921Y-15220509D02*
X21117873Y-15210985D01*
X21117873Y-15210985D02*
X21108350Y-15191937D01*
X21108350Y-15191937D02*
X21108350Y-15020509D01*
X21241683Y-15220509D02*
X21222635Y-15210985D01*
X21222635Y-15210985D02*
X21213111Y-15191937D01*
X21213111Y-15191937D02*
X21213111Y-15020509D01*
X21470254Y-15220509D02*
X21470254Y-15020509D01*
X21470254Y-15020509D02*
X21536921Y-15163366D01*
X21536921Y-15163366D02*
X21603588Y-15020509D01*
X21603588Y-15020509D02*
X21603588Y-15220509D01*
X21784540Y-15220509D02*
X21784540Y-15115747D01*
X21784540Y-15115747D02*
X21775016Y-15096699D01*
X21775016Y-15096699D02*
X21755969Y-15087175D01*
X21755969Y-15087175D02*
X21717873Y-15087175D01*
X21717873Y-15087175D02*
X21698826Y-15096699D01*
X21784540Y-15210985D02*
X21765492Y-15220509D01*
X21765492Y-15220509D02*
X21717873Y-15220509D01*
X21717873Y-15220509D02*
X21698826Y-15210985D01*
X21698826Y-15210985D02*
X21689302Y-15191937D01*
X21689302Y-15191937D02*
X21689302Y-15172890D01*
X21689302Y-15172890D02*
X21698826Y-15153842D01*
X21698826Y-15153842D02*
X21717873Y-15144318D01*
X21717873Y-15144318D02*
X21765492Y-15144318D01*
X21765492Y-15144318D02*
X21784540Y-15134795D01*
X21879778Y-15087175D02*
X21879778Y-15287175D01*
X21879778Y-15096699D02*
X21898826Y-15087175D01*
X21898826Y-15087175D02*
X21936921Y-15087175D01*
X21936921Y-15087175D02*
X21955969Y-15096699D01*
X21955969Y-15096699D02*
X21965492Y-15106223D01*
X21965492Y-15106223D02*
X21975016Y-15125271D01*
X21975016Y-15125271D02*
X21975016Y-15182414D01*
X21975016Y-15182414D02*
X21965492Y-15201461D01*
X21965492Y-15201461D02*
X21955969Y-15210985D01*
X21955969Y-15210985D02*
X21936921Y-15220509D01*
X21936921Y-15220509D02*
X21898826Y-15220509D01*
X21898826Y-15220509D02*
X21879778Y-15210985D01*
X22060731Y-15201461D02*
X22070254Y-15210985D01*
X22070254Y-15210985D02*
X22060731Y-15220509D01*
X22060731Y-15220509D02*
X22051207Y-15210985D01*
X22051207Y-15210985D02*
X22060731Y-15201461D01*
X22060731Y-15201461D02*
X22060731Y-15220509D01*
X22060731Y-15096699D02*
X22070254Y-15106223D01*
X22070254Y-15106223D02*
X22060731Y-15115747D01*
X22060731Y-15115747D02*
X22051207Y-15106223D01*
X22051207Y-15106223D02*
X22060731Y-15096699D01*
X22060731Y-15096699D02*
X22060731Y-15115747D01*
X20228525Y-15449025D02*
X20428525Y-15649025D01*
X20428525Y-15449025D02*
X20228525Y-15649025D01*
X20679778Y-15459556D02*
X20689302Y-15450033D01*
X20689302Y-15450033D02*
X20708350Y-15440509D01*
X20708350Y-15440509D02*
X20755969Y-15440509D01*
X20755969Y-15440509D02*
X20775016Y-15450033D01*
X20775016Y-15450033D02*
X20784540Y-15459556D01*
X20784540Y-15459556D02*
X20794064Y-15478604D01*
X20794064Y-15478604D02*
X20794064Y-15497652D01*
X20794064Y-15497652D02*
X20784540Y-15526223D01*
X20784540Y-15526223D02*
X20670254Y-15640509D01*
X20670254Y-15640509D02*
X20794064Y-15640509D01*
X20879778Y-15621461D02*
X20889302Y-15630985D01*
X20889302Y-15630985D02*
X20879778Y-15640509D01*
X20879778Y-15640509D02*
X20870254Y-15630985D01*
X20870254Y-15630985D02*
X20879778Y-15621461D01*
X20879778Y-15621461D02*
X20879778Y-15640509D01*
X21070254Y-15440509D02*
X20975016Y-15440509D01*
X20975016Y-15440509D02*
X20965492Y-15535747D01*
X20965492Y-15535747D02*
X20975016Y-15526223D01*
X20975016Y-15526223D02*
X20994064Y-15516699D01*
X20994064Y-15516699D02*
X21041683Y-15516699D01*
X21041683Y-15516699D02*
X21060731Y-15526223D01*
X21060731Y-15526223D02*
X21070254Y-15535747D01*
X21070254Y-15535747D02*
X21079778Y-15554795D01*
X21079778Y-15554795D02*
X21079778Y-15602414D01*
X21079778Y-15602414D02*
X21070254Y-15621461D01*
X21070254Y-15621461D02*
X21060731Y-15630985D01*
X21060731Y-15630985D02*
X21041683Y-15640509D01*
X21041683Y-15640509D02*
X20994064Y-15640509D01*
X20994064Y-15640509D02*
X20975016Y-15630985D01*
X20975016Y-15630985D02*
X20965492Y-15621461D01*
X21203588Y-15440509D02*
X21222635Y-15440509D01*
X21222635Y-15440509D02*
X21241683Y-15450033D01*
X21241683Y-15450033D02*
X21251207Y-15459556D01*
X21251207Y-15459556D02*
X21260731Y-15478604D01*
X21260731Y-15478604D02*
X21270254Y-15516699D01*
X21270254Y-15516699D02*
X21270254Y-15564318D01*
X21270254Y-15564318D02*
X21260731Y-15602414D01*
X21260731Y-15602414D02*
X21251207Y-15621461D01*
X21251207Y-15621461D02*
X21241683Y-15630985D01*
X21241683Y-15630985D02*
X21222635Y-15640509D01*
X21222635Y-15640509D02*
X21203588Y-15640509D01*
X21203588Y-15640509D02*
X21184540Y-15630985D01*
X21184540Y-15630985D02*
X21175016Y-15621461D01*
X21175016Y-15621461D02*
X21165492Y-15602414D01*
X21165492Y-15602414D02*
X21155969Y-15564318D01*
X21155969Y-15564318D02*
X21155969Y-15516699D01*
X21155969Y-15516699D02*
X21165492Y-15478604D01*
X21165492Y-15478604D02*
X21175016Y-15459556D01*
X21175016Y-15459556D02*
X21184540Y-15450033D01*
X21184540Y-15450033D02*
X21203588Y-15440509D01*
X21394064Y-15440509D02*
X21413112Y-15440509D01*
X21413112Y-15440509D02*
X21432159Y-15450033D01*
X21432159Y-15450033D02*
X21441683Y-15459556D01*
X21441683Y-15459556D02*
X21451207Y-15478604D01*
X21451207Y-15478604D02*
X21460731Y-15516699D01*
X21460731Y-15516699D02*
X21460731Y-15564318D01*
X21460731Y-15564318D02*
X21451207Y-15602414D01*
X21451207Y-15602414D02*
X21441683Y-15621461D01*
X21441683Y-15621461D02*
X21432159Y-15630985D01*
X21432159Y-15630985D02*
X21413112Y-15640509D01*
X21413112Y-15640509D02*
X21394064Y-15640509D01*
X21394064Y-15640509D02*
X21375016Y-15630985D01*
X21375016Y-15630985D02*
X21365492Y-15621461D01*
X21365492Y-15621461D02*
X21355969Y-15602414D01*
X21355969Y-15602414D02*
X21346445Y-15564318D01*
X21346445Y-15564318D02*
X21346445Y-15516699D01*
X21346445Y-15516699D02*
X21355969Y-15478604D01*
X21355969Y-15478604D02*
X21365492Y-15459556D01*
X21365492Y-15459556D02*
X21375016Y-15450033D01*
X21375016Y-15450033D02*
X21394064Y-15440509D01*
X21546445Y-15640509D02*
X21546445Y-15507175D01*
X21546445Y-15526223D02*
X21555969Y-15516699D01*
X21555969Y-15516699D02*
X21575016Y-15507175D01*
X21575016Y-15507175D02*
X21603588Y-15507175D01*
X21603588Y-15507175D02*
X21622635Y-15516699D01*
X21622635Y-15516699D02*
X21632159Y-15535747D01*
X21632159Y-15535747D02*
X21632159Y-15640509D01*
X21632159Y-15535747D02*
X21641683Y-15516699D01*
X21641683Y-15516699D02*
X21660731Y-15507175D01*
X21660731Y-15507175D02*
X21689302Y-15507175D01*
X21689302Y-15507175D02*
X21708350Y-15516699D01*
X21708350Y-15516699D02*
X21717873Y-15535747D01*
X21717873Y-15535747D02*
X21717873Y-15640509D01*
X21813112Y-15640509D02*
X21813112Y-15507175D01*
X21813112Y-15526223D02*
X21822635Y-15516699D01*
X21822635Y-15516699D02*
X21841683Y-15507175D01*
X21841683Y-15507175D02*
X21870254Y-15507175D01*
X21870254Y-15507175D02*
X21889302Y-15516699D01*
X21889302Y-15516699D02*
X21898826Y-15535747D01*
X21898826Y-15535747D02*
X21898826Y-15640509D01*
X21898826Y-15535747D02*
X21908350Y-15516699D01*
X21908350Y-15516699D02*
X21927397Y-15507175D01*
X21927397Y-15507175D02*
X21955969Y-15507175D01*
X21955969Y-15507175D02*
X21975016Y-15516699D01*
X21975016Y-15516699D02*
X21984540Y-15535747D01*
X21984540Y-15535747D02*
X21984540Y-15640509D01*
X22375016Y-15430985D02*
X22203588Y-15688128D01*
X22632159Y-15440509D02*
X22651207Y-15440509D01*
X22651207Y-15440509D02*
X22670254Y-15450033D01*
X22670254Y-15450033D02*
X22679778Y-15459556D01*
X22679778Y-15459556D02*
X22689302Y-15478604D01*
X22689302Y-15478604D02*
X22698826Y-15516699D01*
X22698826Y-15516699D02*
X22698826Y-15564318D01*
X22698826Y-15564318D02*
X22689302Y-15602414D01*
X22689302Y-15602414D02*
X22679778Y-15621461D01*
X22679778Y-15621461D02*
X22670254Y-15630985D01*
X22670254Y-15630985D02*
X22651207Y-15640509D01*
X22651207Y-15640509D02*
X22632159Y-15640509D01*
X22632159Y-15640509D02*
X22613112Y-15630985D01*
X22613112Y-15630985D02*
X22603588Y-15621461D01*
X22603588Y-15621461D02*
X22594064Y-15602414D01*
X22594064Y-15602414D02*
X22584540Y-15564318D01*
X22584540Y-15564318D02*
X22584540Y-15516699D01*
X22584540Y-15516699D02*
X22594064Y-15478604D01*
X22594064Y-15478604D02*
X22603588Y-15459556D01*
X22603588Y-15459556D02*
X22613112Y-15450033D01*
X22613112Y-15450033D02*
X22632159Y-15440509D01*
X22784540Y-15621461D02*
X22794064Y-15630985D01*
X22794064Y-15630985D02*
X22784540Y-15640509D01*
X22784540Y-15640509D02*
X22775016Y-15630985D01*
X22775016Y-15630985D02*
X22784540Y-15621461D01*
X22784540Y-15621461D02*
X22784540Y-15640509D01*
X22917873Y-15440509D02*
X22936921Y-15440509D01*
X22936921Y-15440509D02*
X22955969Y-15450033D01*
X22955969Y-15450033D02*
X22965493Y-15459556D01*
X22965493Y-15459556D02*
X22975016Y-15478604D01*
X22975016Y-15478604D02*
X22984540Y-15516699D01*
X22984540Y-15516699D02*
X22984540Y-15564318D01*
X22984540Y-15564318D02*
X22975016Y-15602414D01*
X22975016Y-15602414D02*
X22965493Y-15621461D01*
X22965493Y-15621461D02*
X22955969Y-15630985D01*
X22955969Y-15630985D02*
X22936921Y-15640509D01*
X22936921Y-15640509D02*
X22917873Y-15640509D01*
X22917873Y-15640509D02*
X22898826Y-15630985D01*
X22898826Y-15630985D02*
X22889302Y-15621461D01*
X22889302Y-15621461D02*
X22879778Y-15602414D01*
X22879778Y-15602414D02*
X22870254Y-15564318D01*
X22870254Y-15564318D02*
X22870254Y-15516699D01*
X22870254Y-15516699D02*
X22879778Y-15478604D01*
X22879778Y-15478604D02*
X22889302Y-15459556D01*
X22889302Y-15459556D02*
X22898826Y-15450033D01*
X22898826Y-15450033D02*
X22917873Y-15440509D01*
X23079778Y-15640509D02*
X23117873Y-15640509D01*
X23117873Y-15640509D02*
X23136921Y-15630985D01*
X23136921Y-15630985D02*
X23146445Y-15621461D01*
X23146445Y-15621461D02*
X23165493Y-15592890D01*
X23165493Y-15592890D02*
X23175016Y-15554795D01*
X23175016Y-15554795D02*
X23175016Y-15478604D01*
X23175016Y-15478604D02*
X23165493Y-15459556D01*
X23165493Y-15459556D02*
X23155969Y-15450033D01*
X23155969Y-15450033D02*
X23136921Y-15440509D01*
X23136921Y-15440509D02*
X23098826Y-15440509D01*
X23098826Y-15440509D02*
X23079778Y-15450033D01*
X23079778Y-15450033D02*
X23070254Y-15459556D01*
X23070254Y-15459556D02*
X23060731Y-15478604D01*
X23060731Y-15478604D02*
X23060731Y-15526223D01*
X23060731Y-15526223D02*
X23070254Y-15545271D01*
X23070254Y-15545271D02*
X23079778Y-15554795D01*
X23079778Y-15554795D02*
X23098826Y-15564318D01*
X23098826Y-15564318D02*
X23136921Y-15564318D01*
X23136921Y-15564318D02*
X23155969Y-15554795D01*
X23155969Y-15554795D02*
X23165493Y-15545271D01*
X23165493Y-15545271D02*
X23175016Y-15526223D01*
X23289302Y-15526223D02*
X23270254Y-15516699D01*
X23270254Y-15516699D02*
X23260731Y-15507175D01*
X23260731Y-15507175D02*
X23251207Y-15488128D01*
X23251207Y-15488128D02*
X23251207Y-15478604D01*
X23251207Y-15478604D02*
X23260731Y-15459556D01*
X23260731Y-15459556D02*
X23270254Y-15450033D01*
X23270254Y-15450033D02*
X23289302Y-15440509D01*
X23289302Y-15440509D02*
X23327397Y-15440509D01*
X23327397Y-15440509D02*
X23346445Y-15450033D01*
X23346445Y-15450033D02*
X23355969Y-15459556D01*
X23355969Y-15459556D02*
X23365493Y-15478604D01*
X23365493Y-15478604D02*
X23365493Y-15488128D01*
X23365493Y-15488128D02*
X23355969Y-15507175D01*
X23355969Y-15507175D02*
X23346445Y-15516699D01*
X23346445Y-15516699D02*
X23327397Y-15526223D01*
X23327397Y-15526223D02*
X23289302Y-15526223D01*
X23289302Y-15526223D02*
X23270254Y-15535747D01*
X23270254Y-15535747D02*
X23260731Y-15545271D01*
X23260731Y-15545271D02*
X23251207Y-15564318D01*
X23251207Y-15564318D02*
X23251207Y-15602414D01*
X23251207Y-15602414D02*
X23260731Y-15621461D01*
X23260731Y-15621461D02*
X23270254Y-15630985D01*
X23270254Y-15630985D02*
X23289302Y-15640509D01*
X23289302Y-15640509D02*
X23327397Y-15640509D01*
X23327397Y-15640509D02*
X23346445Y-15630985D01*
X23346445Y-15630985D02*
X23355969Y-15621461D01*
X23355969Y-15621461D02*
X23365493Y-15602414D01*
X23365493Y-15602414D02*
X23365493Y-15564318D01*
X23365493Y-15564318D02*
X23355969Y-15545271D01*
X23355969Y-15545271D02*
X23346445Y-15535747D01*
X23346445Y-15535747D02*
X23327397Y-15526223D01*
X23536921Y-15507175D02*
X23536921Y-15640509D01*
X23489302Y-15430985D02*
X23441683Y-15573842D01*
X23441683Y-15573842D02*
X23565493Y-15573842D01*
X23632159Y-15440509D02*
X23632159Y-15478604D01*
X23708350Y-15440509D02*
X23708350Y-15478604D01*
X24003588Y-15716699D02*
X23994064Y-15707175D01*
X23994064Y-15707175D02*
X23975016Y-15678604D01*
X23975016Y-15678604D02*
X23965493Y-15659556D01*
X23965493Y-15659556D02*
X23955969Y-15630985D01*
X23955969Y-15630985D02*
X23946445Y-15583366D01*
X23946445Y-15583366D02*
X23946445Y-15545271D01*
X23946445Y-15545271D02*
X23955969Y-15497652D01*
X23955969Y-15497652D02*
X23965493Y-15469080D01*
X23965493Y-15469080D02*
X23975016Y-15450033D01*
X23975016Y-15450033D02*
X23994064Y-15421461D01*
X23994064Y-15421461D02*
X24003588Y-15411937D01*
X24070255Y-15459556D02*
X24079778Y-15450033D01*
X24079778Y-15450033D02*
X24098826Y-15440509D01*
X24098826Y-15440509D02*
X24146445Y-15440509D01*
X24146445Y-15440509D02*
X24165493Y-15450033D01*
X24165493Y-15450033D02*
X24175016Y-15459556D01*
X24175016Y-15459556D02*
X24184540Y-15478604D01*
X24184540Y-15478604D02*
X24184540Y-15497652D01*
X24184540Y-15497652D02*
X24175016Y-15526223D01*
X24175016Y-15526223D02*
X24060731Y-15640509D01*
X24060731Y-15640509D02*
X24184540Y-15640509D01*
X24422636Y-15640509D02*
X24422636Y-15440509D01*
X24508350Y-15640509D02*
X24508350Y-15535747D01*
X24508350Y-15535747D02*
X24498826Y-15516699D01*
X24498826Y-15516699D02*
X24479778Y-15507175D01*
X24479778Y-15507175D02*
X24451207Y-15507175D01*
X24451207Y-15507175D02*
X24432159Y-15516699D01*
X24432159Y-15516699D02*
X24422636Y-15526223D01*
X24632159Y-15640509D02*
X24613112Y-15630985D01*
X24613112Y-15630985D02*
X24603588Y-15621461D01*
X24603588Y-15621461D02*
X24594064Y-15602414D01*
X24594064Y-15602414D02*
X24594064Y-15545271D01*
X24594064Y-15545271D02*
X24603588Y-15526223D01*
X24603588Y-15526223D02*
X24613112Y-15516699D01*
X24613112Y-15516699D02*
X24632159Y-15507175D01*
X24632159Y-15507175D02*
X24660731Y-15507175D01*
X24660731Y-15507175D02*
X24679778Y-15516699D01*
X24679778Y-15516699D02*
X24689302Y-15526223D01*
X24689302Y-15526223D02*
X24698826Y-15545271D01*
X24698826Y-15545271D02*
X24698826Y-15602414D01*
X24698826Y-15602414D02*
X24689302Y-15621461D01*
X24689302Y-15621461D02*
X24679778Y-15630985D01*
X24679778Y-15630985D02*
X24660731Y-15640509D01*
X24660731Y-15640509D02*
X24632159Y-15640509D01*
X24813112Y-15640509D02*
X24794064Y-15630985D01*
X24794064Y-15630985D02*
X24784540Y-15611937D01*
X24784540Y-15611937D02*
X24784540Y-15440509D01*
X24965493Y-15630985D02*
X24946445Y-15640509D01*
X24946445Y-15640509D02*
X24908350Y-15640509D01*
X24908350Y-15640509D02*
X24889302Y-15630985D01*
X24889302Y-15630985D02*
X24879778Y-15611937D01*
X24879778Y-15611937D02*
X24879778Y-15535747D01*
X24879778Y-15535747D02*
X24889302Y-15516699D01*
X24889302Y-15516699D02*
X24908350Y-15507175D01*
X24908350Y-15507175D02*
X24946445Y-15507175D01*
X24946445Y-15507175D02*
X24965493Y-15516699D01*
X24965493Y-15516699D02*
X24975017Y-15535747D01*
X24975017Y-15535747D02*
X24975017Y-15554795D01*
X24975017Y-15554795D02*
X24879778Y-15573842D01*
X25051207Y-15630985D02*
X25070255Y-15640509D01*
X25070255Y-15640509D02*
X25108350Y-15640509D01*
X25108350Y-15640509D02*
X25127398Y-15630985D01*
X25127398Y-15630985D02*
X25136921Y-15611937D01*
X25136921Y-15611937D02*
X25136921Y-15602414D01*
X25136921Y-15602414D02*
X25127398Y-15583366D01*
X25127398Y-15583366D02*
X25108350Y-15573842D01*
X25108350Y-15573842D02*
X25079778Y-15573842D01*
X25079778Y-15573842D02*
X25060731Y-15564318D01*
X25060731Y-15564318D02*
X25051207Y-15545271D01*
X25051207Y-15545271D02*
X25051207Y-15535747D01*
X25051207Y-15535747D02*
X25060731Y-15516699D01*
X25060731Y-15516699D02*
X25079778Y-15507175D01*
X25079778Y-15507175D02*
X25108350Y-15507175D01*
X25108350Y-15507175D02*
X25127398Y-15516699D01*
X25203588Y-15716699D02*
X25213112Y-15707175D01*
X25213112Y-15707175D02*
X25232159Y-15678604D01*
X25232159Y-15678604D02*
X25241683Y-15659556D01*
X25241683Y-15659556D02*
X25251207Y-15630985D01*
X25251207Y-15630985D02*
X25260731Y-15583366D01*
X25260731Y-15583366D02*
X25260731Y-15545271D01*
X25260731Y-15545271D02*
X25251207Y-15497652D01*
X25251207Y-15497652D02*
X25241683Y-15469080D01*
X25241683Y-15469080D02*
X25232159Y-15450033D01*
X25232159Y-15450033D02*
X25213112Y-15421461D01*
X25213112Y-15421461D02*
X25203588Y-15411937D01*
X25565493Y-15716699D02*
X25555969Y-15707175D01*
X25555969Y-15707175D02*
X25536921Y-15678604D01*
X25536921Y-15678604D02*
X25527398Y-15659556D01*
X25527398Y-15659556D02*
X25517874Y-15630985D01*
X25517874Y-15630985D02*
X25508350Y-15583366D01*
X25508350Y-15583366D02*
X25508350Y-15545271D01*
X25508350Y-15545271D02*
X25517874Y-15497652D01*
X25517874Y-15497652D02*
X25527398Y-15469080D01*
X25527398Y-15469080D02*
X25536921Y-15450033D01*
X25536921Y-15450033D02*
X25555969Y-15421461D01*
X25555969Y-15421461D02*
X25565493Y-15411937D01*
X25641683Y-15507175D02*
X25641683Y-15640509D01*
X25641683Y-15526223D02*
X25651207Y-15516699D01*
X25651207Y-15516699D02*
X25670255Y-15507175D01*
X25670255Y-15507175D02*
X25698826Y-15507175D01*
X25698826Y-15507175D02*
X25717874Y-15516699D01*
X25717874Y-15516699D02*
X25727398Y-15535747D01*
X25727398Y-15535747D02*
X25727398Y-15640509D01*
X25851207Y-15640509D02*
X25832159Y-15630985D01*
X25832159Y-15630985D02*
X25822636Y-15621461D01*
X25822636Y-15621461D02*
X25813112Y-15602414D01*
X25813112Y-15602414D02*
X25813112Y-15545271D01*
X25813112Y-15545271D02*
X25822636Y-15526223D01*
X25822636Y-15526223D02*
X25832159Y-15516699D01*
X25832159Y-15516699D02*
X25851207Y-15507175D01*
X25851207Y-15507175D02*
X25879779Y-15507175D01*
X25879779Y-15507175D02*
X25898826Y-15516699D01*
X25898826Y-15516699D02*
X25908350Y-15526223D01*
X25908350Y-15526223D02*
X25917874Y-15545271D01*
X25917874Y-15545271D02*
X25917874Y-15602414D01*
X25917874Y-15602414D02*
X25908350Y-15621461D01*
X25908350Y-15621461D02*
X25898826Y-15630985D01*
X25898826Y-15630985D02*
X25879779Y-15640509D01*
X25879779Y-15640509D02*
X25851207Y-15640509D01*
X25975017Y-15507175D02*
X26051207Y-15507175D01*
X26003588Y-15440509D02*
X26003588Y-15611937D01*
X26003588Y-15611937D02*
X26013112Y-15630985D01*
X26013112Y-15630985D02*
X26032159Y-15640509D01*
X26032159Y-15640509D02*
X26051207Y-15640509D01*
X26270255Y-15507175D02*
X26270255Y-15707175D01*
X26270255Y-15516699D02*
X26289302Y-15507175D01*
X26289302Y-15507175D02*
X26327398Y-15507175D01*
X26327398Y-15507175D02*
X26346445Y-15516699D01*
X26346445Y-15516699D02*
X26355969Y-15526223D01*
X26355969Y-15526223D02*
X26365493Y-15545271D01*
X26365493Y-15545271D02*
X26365493Y-15602414D01*
X26365493Y-15602414D02*
X26355969Y-15621461D01*
X26355969Y-15621461D02*
X26346445Y-15630985D01*
X26346445Y-15630985D02*
X26327398Y-15640509D01*
X26327398Y-15640509D02*
X26289302Y-15640509D01*
X26289302Y-15640509D02*
X26270255Y-15630985D01*
X26479779Y-15640509D02*
X26460731Y-15630985D01*
X26460731Y-15630985D02*
X26451207Y-15611937D01*
X26451207Y-15611937D02*
X26451207Y-15440509D01*
X26641683Y-15640509D02*
X26641683Y-15535747D01*
X26641683Y-15535747D02*
X26632160Y-15516699D01*
X26632160Y-15516699D02*
X26613112Y-15507175D01*
X26613112Y-15507175D02*
X26575017Y-15507175D01*
X26575017Y-15507175D02*
X26555969Y-15516699D01*
X26641683Y-15630985D02*
X26622636Y-15640509D01*
X26622636Y-15640509D02*
X26575017Y-15640509D01*
X26575017Y-15640509D02*
X26555969Y-15630985D01*
X26555969Y-15630985D02*
X26546445Y-15611937D01*
X26546445Y-15611937D02*
X26546445Y-15592890D01*
X26546445Y-15592890D02*
X26555969Y-15573842D01*
X26555969Y-15573842D02*
X26575017Y-15564318D01*
X26575017Y-15564318D02*
X26622636Y-15564318D01*
X26622636Y-15564318D02*
X26641683Y-15554795D01*
X26708350Y-15507175D02*
X26784540Y-15507175D01*
X26736921Y-15440509D02*
X26736921Y-15611937D01*
X26736921Y-15611937D02*
X26746445Y-15630985D01*
X26746445Y-15630985D02*
X26765493Y-15640509D01*
X26765493Y-15640509D02*
X26784540Y-15640509D01*
X26927398Y-15630985D02*
X26908350Y-15640509D01*
X26908350Y-15640509D02*
X26870255Y-15640509D01*
X26870255Y-15640509D02*
X26851207Y-15630985D01*
X26851207Y-15630985D02*
X26841683Y-15611937D01*
X26841683Y-15611937D02*
X26841683Y-15535747D01*
X26841683Y-15535747D02*
X26851207Y-15516699D01*
X26851207Y-15516699D02*
X26870255Y-15507175D01*
X26870255Y-15507175D02*
X26908350Y-15507175D01*
X26908350Y-15507175D02*
X26927398Y-15516699D01*
X26927398Y-15516699D02*
X26936921Y-15535747D01*
X26936921Y-15535747D02*
X26936921Y-15554795D01*
X26936921Y-15554795D02*
X26841683Y-15573842D01*
X27108350Y-15640509D02*
X27108350Y-15440509D01*
X27108350Y-15630985D02*
X27089302Y-15640509D01*
X27089302Y-15640509D02*
X27051207Y-15640509D01*
X27051207Y-15640509D02*
X27032160Y-15630985D01*
X27032160Y-15630985D02*
X27022636Y-15621461D01*
X27022636Y-15621461D02*
X27013112Y-15602414D01*
X27013112Y-15602414D02*
X27013112Y-15545271D01*
X27013112Y-15545271D02*
X27022636Y-15526223D01*
X27022636Y-15526223D02*
X27032160Y-15516699D01*
X27032160Y-15516699D02*
X27051207Y-15507175D01*
X27051207Y-15507175D02*
X27089302Y-15507175D01*
X27089302Y-15507175D02*
X27108350Y-15516699D01*
X27184541Y-15716699D02*
X27194064Y-15707175D01*
X27194064Y-15707175D02*
X27213112Y-15678604D01*
X27213112Y-15678604D02*
X27222636Y-15659556D01*
X27222636Y-15659556D02*
X27232160Y-15630985D01*
X27232160Y-15630985D02*
X27241683Y-15583366D01*
X27241683Y-15583366D02*
X27241683Y-15545271D01*
X27241683Y-15545271D02*
X27232160Y-15497652D01*
X27232160Y-15497652D02*
X27222636Y-15469080D01*
X27222636Y-15469080D02*
X27213112Y-15450033D01*
X27213112Y-15450033D02*
X27194064Y-15421461D01*
X27194064Y-15421461D02*
X27184541Y-15411937D01*
X20428525Y-15869025D02*
G75*
G02*
X20228525Y-15869025I-100000J0D01*
G01*
X20228525Y-15869025D02*
G75*
G02*
X20428525Y-15869025I100000J0D01*
G01*
X20679778Y-15779556D02*
X20689302Y-15770033D01*
X20689302Y-15770033D02*
X20708350Y-15760509D01*
X20708350Y-15760509D02*
X20755969Y-15760509D01*
X20755969Y-15760509D02*
X20775016Y-15770033D01*
X20775016Y-15770033D02*
X20784540Y-15779556D01*
X20784540Y-15779556D02*
X20794064Y-15798604D01*
X20794064Y-15798604D02*
X20794064Y-15817652D01*
X20794064Y-15817652D02*
X20784540Y-15846223D01*
X20784540Y-15846223D02*
X20670254Y-15960509D01*
X20670254Y-15960509D02*
X20794064Y-15960509D01*
X20879778Y-15941461D02*
X20889302Y-15950985D01*
X20889302Y-15950985D02*
X20879778Y-15960509D01*
X20879778Y-15960509D02*
X20870254Y-15950985D01*
X20870254Y-15950985D02*
X20879778Y-15941461D01*
X20879778Y-15941461D02*
X20879778Y-15960509D01*
X21070254Y-15760509D02*
X20975016Y-15760509D01*
X20975016Y-15760509D02*
X20965492Y-15855747D01*
X20965492Y-15855747D02*
X20975016Y-15846223D01*
X20975016Y-15846223D02*
X20994064Y-15836699D01*
X20994064Y-15836699D02*
X21041683Y-15836699D01*
X21041683Y-15836699D02*
X21060731Y-15846223D01*
X21060731Y-15846223D02*
X21070254Y-15855747D01*
X21070254Y-15855747D02*
X21079778Y-15874795D01*
X21079778Y-15874795D02*
X21079778Y-15922414D01*
X21079778Y-15922414D02*
X21070254Y-15941461D01*
X21070254Y-15941461D02*
X21060731Y-15950985D01*
X21060731Y-15950985D02*
X21041683Y-15960509D01*
X21041683Y-15960509D02*
X20994064Y-15960509D01*
X20994064Y-15960509D02*
X20975016Y-15950985D01*
X20975016Y-15950985D02*
X20965492Y-15941461D01*
X21251207Y-15827175D02*
X21251207Y-15960509D01*
X21203588Y-15750985D02*
X21155969Y-15893842D01*
X21155969Y-15893842D02*
X21279778Y-15893842D01*
X21394064Y-15760509D02*
X21413112Y-15760509D01*
X21413112Y-15760509D02*
X21432159Y-15770033D01*
X21432159Y-15770033D02*
X21441683Y-15779556D01*
X21441683Y-15779556D02*
X21451207Y-15798604D01*
X21451207Y-15798604D02*
X21460731Y-15836699D01*
X21460731Y-15836699D02*
X21460731Y-15884318D01*
X21460731Y-15884318D02*
X21451207Y-15922414D01*
X21451207Y-15922414D02*
X21441683Y-15941461D01*
X21441683Y-15941461D02*
X21432159Y-15950985D01*
X21432159Y-15950985D02*
X21413112Y-15960509D01*
X21413112Y-15960509D02*
X21394064Y-15960509D01*
X21394064Y-15960509D02*
X21375016Y-15950985D01*
X21375016Y-15950985D02*
X21365492Y-15941461D01*
X21365492Y-15941461D02*
X21355969Y-15922414D01*
X21355969Y-15922414D02*
X21346445Y-15884318D01*
X21346445Y-15884318D02*
X21346445Y-15836699D01*
X21346445Y-15836699D02*
X21355969Y-15798604D01*
X21355969Y-15798604D02*
X21365492Y-15779556D01*
X21365492Y-15779556D02*
X21375016Y-15770033D01*
X21375016Y-15770033D02*
X21394064Y-15760509D01*
X21546445Y-15960509D02*
X21546445Y-15827175D01*
X21546445Y-15846223D02*
X21555969Y-15836699D01*
X21555969Y-15836699D02*
X21575016Y-15827175D01*
X21575016Y-15827175D02*
X21603588Y-15827175D01*
X21603588Y-15827175D02*
X21622635Y-15836699D01*
X21622635Y-15836699D02*
X21632159Y-15855747D01*
X21632159Y-15855747D02*
X21632159Y-15960509D01*
X21632159Y-15855747D02*
X21641683Y-15836699D01*
X21641683Y-15836699D02*
X21660731Y-15827175D01*
X21660731Y-15827175D02*
X21689302Y-15827175D01*
X21689302Y-15827175D02*
X21708350Y-15836699D01*
X21708350Y-15836699D02*
X21717873Y-15855747D01*
X21717873Y-15855747D02*
X21717873Y-15960509D01*
X21813112Y-15960509D02*
X21813112Y-15827175D01*
X21813112Y-15846223D02*
X21822635Y-15836699D01*
X21822635Y-15836699D02*
X21841683Y-15827175D01*
X21841683Y-15827175D02*
X21870254Y-15827175D01*
X21870254Y-15827175D02*
X21889302Y-15836699D01*
X21889302Y-15836699D02*
X21898826Y-15855747D01*
X21898826Y-15855747D02*
X21898826Y-15960509D01*
X21898826Y-15855747D02*
X21908350Y-15836699D01*
X21908350Y-15836699D02*
X21927397Y-15827175D01*
X21927397Y-15827175D02*
X21955969Y-15827175D01*
X21955969Y-15827175D02*
X21975016Y-15836699D01*
X21975016Y-15836699D02*
X21984540Y-15855747D01*
X21984540Y-15855747D02*
X21984540Y-15960509D01*
X22375016Y-15750985D02*
X22203588Y-16008128D01*
X22632159Y-15760509D02*
X22651207Y-15760509D01*
X22651207Y-15760509D02*
X22670254Y-15770033D01*
X22670254Y-15770033D02*
X22679778Y-15779556D01*
X22679778Y-15779556D02*
X22689302Y-15798604D01*
X22689302Y-15798604D02*
X22698826Y-15836699D01*
X22698826Y-15836699D02*
X22698826Y-15884318D01*
X22698826Y-15884318D02*
X22689302Y-15922414D01*
X22689302Y-15922414D02*
X22679778Y-15941461D01*
X22679778Y-15941461D02*
X22670254Y-15950985D01*
X22670254Y-15950985D02*
X22651207Y-15960509D01*
X22651207Y-15960509D02*
X22632159Y-15960509D01*
X22632159Y-15960509D02*
X22613112Y-15950985D01*
X22613112Y-15950985D02*
X22603588Y-15941461D01*
X22603588Y-15941461D02*
X22594064Y-15922414D01*
X22594064Y-15922414D02*
X22584540Y-15884318D01*
X22584540Y-15884318D02*
X22584540Y-15836699D01*
X22584540Y-15836699D02*
X22594064Y-15798604D01*
X22594064Y-15798604D02*
X22603588Y-15779556D01*
X22603588Y-15779556D02*
X22613112Y-15770033D01*
X22613112Y-15770033D02*
X22632159Y-15760509D01*
X22784540Y-15941461D02*
X22794064Y-15950985D01*
X22794064Y-15950985D02*
X22784540Y-15960509D01*
X22784540Y-15960509D02*
X22775016Y-15950985D01*
X22775016Y-15950985D02*
X22784540Y-15941461D01*
X22784540Y-15941461D02*
X22784540Y-15960509D01*
X22984540Y-15960509D02*
X22870254Y-15960509D01*
X22927397Y-15960509D02*
X22927397Y-15760509D01*
X22927397Y-15760509D02*
X22908350Y-15789080D01*
X22908350Y-15789080D02*
X22889302Y-15808128D01*
X22889302Y-15808128D02*
X22870254Y-15817652D01*
X23108350Y-15760509D02*
X23127397Y-15760509D01*
X23127397Y-15760509D02*
X23146445Y-15770033D01*
X23146445Y-15770033D02*
X23155969Y-15779556D01*
X23155969Y-15779556D02*
X23165493Y-15798604D01*
X23165493Y-15798604D02*
X23175016Y-15836699D01*
X23175016Y-15836699D02*
X23175016Y-15884318D01*
X23175016Y-15884318D02*
X23165493Y-15922414D01*
X23165493Y-15922414D02*
X23155969Y-15941461D01*
X23155969Y-15941461D02*
X23146445Y-15950985D01*
X23146445Y-15950985D02*
X23127397Y-15960509D01*
X23127397Y-15960509D02*
X23108350Y-15960509D01*
X23108350Y-15960509D02*
X23089302Y-15950985D01*
X23089302Y-15950985D02*
X23079778Y-15941461D01*
X23079778Y-15941461D02*
X23070254Y-15922414D01*
X23070254Y-15922414D02*
X23060731Y-15884318D01*
X23060731Y-15884318D02*
X23060731Y-15836699D01*
X23060731Y-15836699D02*
X23070254Y-15798604D01*
X23070254Y-15798604D02*
X23079778Y-15779556D01*
X23079778Y-15779556D02*
X23089302Y-15770033D01*
X23089302Y-15770033D02*
X23108350Y-15760509D01*
X23298826Y-15760509D02*
X23317874Y-15760509D01*
X23317874Y-15760509D02*
X23336921Y-15770033D01*
X23336921Y-15770033D02*
X23346445Y-15779556D01*
X23346445Y-15779556D02*
X23355969Y-15798604D01*
X23355969Y-15798604D02*
X23365493Y-15836699D01*
X23365493Y-15836699D02*
X23365493Y-15884318D01*
X23365493Y-15884318D02*
X23355969Y-15922414D01*
X23355969Y-15922414D02*
X23346445Y-15941461D01*
X23346445Y-15941461D02*
X23336921Y-15950985D01*
X23336921Y-15950985D02*
X23317874Y-15960509D01*
X23317874Y-15960509D02*
X23298826Y-15960509D01*
X23298826Y-15960509D02*
X23279778Y-15950985D01*
X23279778Y-15950985D02*
X23270254Y-15941461D01*
X23270254Y-15941461D02*
X23260731Y-15922414D01*
X23260731Y-15922414D02*
X23251207Y-15884318D01*
X23251207Y-15884318D02*
X23251207Y-15836699D01*
X23251207Y-15836699D02*
X23260731Y-15798604D01*
X23260731Y-15798604D02*
X23270254Y-15779556D01*
X23270254Y-15779556D02*
X23279778Y-15770033D01*
X23279778Y-15770033D02*
X23298826Y-15760509D01*
X23489302Y-15760509D02*
X23508350Y-15760509D01*
X23508350Y-15760509D02*
X23527397Y-15770033D01*
X23527397Y-15770033D02*
X23536921Y-15779556D01*
X23536921Y-15779556D02*
X23546445Y-15798604D01*
X23546445Y-15798604D02*
X23555969Y-15836699D01*
X23555969Y-15836699D02*
X23555969Y-15884318D01*
X23555969Y-15884318D02*
X23546445Y-15922414D01*
X23546445Y-15922414D02*
X23536921Y-15941461D01*
X23536921Y-15941461D02*
X23527397Y-15950985D01*
X23527397Y-15950985D02*
X23508350Y-15960509D01*
X23508350Y-15960509D02*
X23489302Y-15960509D01*
X23489302Y-15960509D02*
X23470254Y-15950985D01*
X23470254Y-15950985D02*
X23460731Y-15941461D01*
X23460731Y-15941461D02*
X23451207Y-15922414D01*
X23451207Y-15922414D02*
X23441683Y-15884318D01*
X23441683Y-15884318D02*
X23441683Y-15836699D01*
X23441683Y-15836699D02*
X23451207Y-15798604D01*
X23451207Y-15798604D02*
X23460731Y-15779556D01*
X23460731Y-15779556D02*
X23470254Y-15770033D01*
X23470254Y-15770033D02*
X23489302Y-15760509D01*
X23632159Y-15760509D02*
X23632159Y-15798604D01*
X23708350Y-15760509D02*
X23708350Y-15798604D01*
X24003588Y-16036699D02*
X23994064Y-16027175D01*
X23994064Y-16027175D02*
X23975016Y-15998604D01*
X23975016Y-15998604D02*
X23965493Y-15979556D01*
X23965493Y-15979556D02*
X23955969Y-15950985D01*
X23955969Y-15950985D02*
X23946445Y-15903366D01*
X23946445Y-15903366D02*
X23946445Y-15865271D01*
X23946445Y-15865271D02*
X23955969Y-15817652D01*
X23955969Y-15817652D02*
X23965493Y-15789080D01*
X23965493Y-15789080D02*
X23975016Y-15770033D01*
X23975016Y-15770033D02*
X23994064Y-15741461D01*
X23994064Y-15741461D02*
X24003588Y-15731937D01*
X24184540Y-15960509D02*
X24070255Y-15960509D01*
X24127397Y-15960509D02*
X24127397Y-15760509D01*
X24127397Y-15760509D02*
X24108350Y-15789080D01*
X24108350Y-15789080D02*
X24089302Y-15808128D01*
X24089302Y-15808128D02*
X24070255Y-15817652D01*
X24422636Y-15960509D02*
X24422636Y-15760509D01*
X24508350Y-15960509D02*
X24508350Y-15855747D01*
X24508350Y-15855747D02*
X24498826Y-15836699D01*
X24498826Y-15836699D02*
X24479778Y-15827175D01*
X24479778Y-15827175D02*
X24451207Y-15827175D01*
X24451207Y-15827175D02*
X24432159Y-15836699D01*
X24432159Y-15836699D02*
X24422636Y-15846223D01*
X24632159Y-15960509D02*
X24613112Y-15950985D01*
X24613112Y-15950985D02*
X24603588Y-15941461D01*
X24603588Y-15941461D02*
X24594064Y-15922414D01*
X24594064Y-15922414D02*
X24594064Y-15865271D01*
X24594064Y-15865271D02*
X24603588Y-15846223D01*
X24603588Y-15846223D02*
X24613112Y-15836699D01*
X24613112Y-15836699D02*
X24632159Y-15827175D01*
X24632159Y-15827175D02*
X24660731Y-15827175D01*
X24660731Y-15827175D02*
X24679778Y-15836699D01*
X24679778Y-15836699D02*
X24689302Y-15846223D01*
X24689302Y-15846223D02*
X24698826Y-15865271D01*
X24698826Y-15865271D02*
X24698826Y-15922414D01*
X24698826Y-15922414D02*
X24689302Y-15941461D01*
X24689302Y-15941461D02*
X24679778Y-15950985D01*
X24679778Y-15950985D02*
X24660731Y-15960509D01*
X24660731Y-15960509D02*
X24632159Y-15960509D01*
X24813112Y-15960509D02*
X24794064Y-15950985D01*
X24794064Y-15950985D02*
X24784540Y-15931937D01*
X24784540Y-15931937D02*
X24784540Y-15760509D01*
X24965493Y-15950985D02*
X24946445Y-15960509D01*
X24946445Y-15960509D02*
X24908350Y-15960509D01*
X24908350Y-15960509D02*
X24889302Y-15950985D01*
X24889302Y-15950985D02*
X24879778Y-15931937D01*
X24879778Y-15931937D02*
X24879778Y-15855747D01*
X24879778Y-15855747D02*
X24889302Y-15836699D01*
X24889302Y-15836699D02*
X24908350Y-15827175D01*
X24908350Y-15827175D02*
X24946445Y-15827175D01*
X24946445Y-15827175D02*
X24965493Y-15836699D01*
X24965493Y-15836699D02*
X24975017Y-15855747D01*
X24975017Y-15855747D02*
X24975017Y-15874795D01*
X24975017Y-15874795D02*
X24879778Y-15893842D01*
X25041683Y-16036699D02*
X25051207Y-16027175D01*
X25051207Y-16027175D02*
X25070255Y-15998604D01*
X25070255Y-15998604D02*
X25079778Y-15979556D01*
X25079778Y-15979556D02*
X25089302Y-15950985D01*
X25089302Y-15950985D02*
X25098826Y-15903366D01*
X25098826Y-15903366D02*
X25098826Y-15865271D01*
X25098826Y-15865271D02*
X25089302Y-15817652D01*
X25089302Y-15817652D02*
X25079778Y-15789080D01*
X25079778Y-15789080D02*
X25070255Y-15770033D01*
X25070255Y-15770033D02*
X25051207Y-15741461D01*
X25051207Y-15741461D02*
X25041683Y-15731937D01*
X25403588Y-16036699D02*
X25394064Y-16027175D01*
X25394064Y-16027175D02*
X25375017Y-15998604D01*
X25375017Y-15998604D02*
X25365493Y-15979556D01*
X25365493Y-15979556D02*
X25355969Y-15950985D01*
X25355969Y-15950985D02*
X25346445Y-15903366D01*
X25346445Y-15903366D02*
X25346445Y-15865271D01*
X25346445Y-15865271D02*
X25355969Y-15817652D01*
X25355969Y-15817652D02*
X25365493Y-15789080D01*
X25365493Y-15789080D02*
X25375017Y-15770033D01*
X25375017Y-15770033D02*
X25394064Y-15741461D01*
X25394064Y-15741461D02*
X25403588Y-15731937D01*
X25479778Y-15827175D02*
X25479778Y-15960509D01*
X25479778Y-15846223D02*
X25489302Y-15836699D01*
X25489302Y-15836699D02*
X25508350Y-15827175D01*
X25508350Y-15827175D02*
X25536921Y-15827175D01*
X25536921Y-15827175D02*
X25555969Y-15836699D01*
X25555969Y-15836699D02*
X25565493Y-15855747D01*
X25565493Y-15855747D02*
X25565493Y-15960509D01*
X25689302Y-15960509D02*
X25670255Y-15950985D01*
X25670255Y-15950985D02*
X25660731Y-15941461D01*
X25660731Y-15941461D02*
X25651207Y-15922414D01*
X25651207Y-15922414D02*
X25651207Y-15865271D01*
X25651207Y-15865271D02*
X25660731Y-15846223D01*
X25660731Y-15846223D02*
X25670255Y-15836699D01*
X25670255Y-15836699D02*
X25689302Y-15827175D01*
X25689302Y-15827175D02*
X25717874Y-15827175D01*
X25717874Y-15827175D02*
X25736921Y-15836699D01*
X25736921Y-15836699D02*
X25746445Y-15846223D01*
X25746445Y-15846223D02*
X25755969Y-15865271D01*
X25755969Y-15865271D02*
X25755969Y-15922414D01*
X25755969Y-15922414D02*
X25746445Y-15941461D01*
X25746445Y-15941461D02*
X25736921Y-15950985D01*
X25736921Y-15950985D02*
X25717874Y-15960509D01*
X25717874Y-15960509D02*
X25689302Y-15960509D01*
X25813112Y-15827175D02*
X25889302Y-15827175D01*
X25841683Y-15760509D02*
X25841683Y-15931937D01*
X25841683Y-15931937D02*
X25851207Y-15950985D01*
X25851207Y-15950985D02*
X25870255Y-15960509D01*
X25870255Y-15960509D02*
X25889302Y-15960509D01*
X26108350Y-15827175D02*
X26108350Y-16027175D01*
X26108350Y-15836699D02*
X26127398Y-15827175D01*
X26127398Y-15827175D02*
X26165493Y-15827175D01*
X26165493Y-15827175D02*
X26184540Y-15836699D01*
X26184540Y-15836699D02*
X26194064Y-15846223D01*
X26194064Y-15846223D02*
X26203588Y-15865271D01*
X26203588Y-15865271D02*
X26203588Y-15922414D01*
X26203588Y-15922414D02*
X26194064Y-15941461D01*
X26194064Y-15941461D02*
X26184540Y-15950985D01*
X26184540Y-15950985D02*
X26165493Y-15960509D01*
X26165493Y-15960509D02*
X26127398Y-15960509D01*
X26127398Y-15960509D02*
X26108350Y-15950985D01*
X26317874Y-15960509D02*
X26298826Y-15950985D01*
X26298826Y-15950985D02*
X26289302Y-15931937D01*
X26289302Y-15931937D02*
X26289302Y-15760509D01*
X26479779Y-15960509D02*
X26479779Y-15855747D01*
X26479779Y-15855747D02*
X26470255Y-15836699D01*
X26470255Y-15836699D02*
X26451207Y-15827175D01*
X26451207Y-15827175D02*
X26413112Y-15827175D01*
X26413112Y-15827175D02*
X26394064Y-15836699D01*
X26479779Y-15950985D02*
X26460731Y-15960509D01*
X26460731Y-15960509D02*
X26413112Y-15960509D01*
X26413112Y-15960509D02*
X26394064Y-15950985D01*
X26394064Y-15950985D02*
X26384540Y-15931937D01*
X26384540Y-15931937D02*
X26384540Y-15912890D01*
X26384540Y-15912890D02*
X26394064Y-15893842D01*
X26394064Y-15893842D02*
X26413112Y-15884318D01*
X26413112Y-15884318D02*
X26460731Y-15884318D01*
X26460731Y-15884318D02*
X26479779Y-15874795D01*
X26546445Y-15827175D02*
X26622636Y-15827175D01*
X26575017Y-15760509D02*
X26575017Y-15931937D01*
X26575017Y-15931937D02*
X26584540Y-15950985D01*
X26584540Y-15950985D02*
X26603588Y-15960509D01*
X26603588Y-15960509D02*
X26622636Y-15960509D01*
X26765493Y-15950985D02*
X26746445Y-15960509D01*
X26746445Y-15960509D02*
X26708350Y-15960509D01*
X26708350Y-15960509D02*
X26689302Y-15950985D01*
X26689302Y-15950985D02*
X26679779Y-15931937D01*
X26679779Y-15931937D02*
X26679779Y-15855747D01*
X26679779Y-15855747D02*
X26689302Y-15836699D01*
X26689302Y-15836699D02*
X26708350Y-15827175D01*
X26708350Y-15827175D02*
X26746445Y-15827175D01*
X26746445Y-15827175D02*
X26765493Y-15836699D01*
X26765493Y-15836699D02*
X26775017Y-15855747D01*
X26775017Y-15855747D02*
X26775017Y-15874795D01*
X26775017Y-15874795D02*
X26679779Y-15893842D01*
X26946445Y-15960509D02*
X26946445Y-15760509D01*
X26946445Y-15950985D02*
X26927398Y-15960509D01*
X26927398Y-15960509D02*
X26889302Y-15960509D01*
X26889302Y-15960509D02*
X26870255Y-15950985D01*
X26870255Y-15950985D02*
X26860731Y-15941461D01*
X26860731Y-15941461D02*
X26851207Y-15922414D01*
X26851207Y-15922414D02*
X26851207Y-15865271D01*
X26851207Y-15865271D02*
X26860731Y-15846223D01*
X26860731Y-15846223D02*
X26870255Y-15836699D01*
X26870255Y-15836699D02*
X26889302Y-15827175D01*
X26889302Y-15827175D02*
X26927398Y-15827175D01*
X26927398Y-15827175D02*
X26946445Y-15836699D01*
X27022636Y-16036699D02*
X27032160Y-16027175D01*
X27032160Y-16027175D02*
X27051207Y-15998604D01*
X27051207Y-15998604D02*
X27060731Y-15979556D01*
X27060731Y-15979556D02*
X27070255Y-15950985D01*
X27070255Y-15950985D02*
X27079779Y-15903366D01*
X27079779Y-15903366D02*
X27079779Y-15865271D01*
X27079779Y-15865271D02*
X27070255Y-15817652D01*
X27070255Y-15817652D02*
X27060731Y-15789080D01*
X27060731Y-15789080D02*
X27051207Y-15770033D01*
X27051207Y-15770033D02*
X27032160Y-15741461D01*
X27032160Y-15741461D02*
X27022636Y-15731937D01*
M02*
