%TF.GenerationSoftware,KiCad,Pcbnew,8.0.4-8.0.4-0~ubuntu22.04.1*%
%TF.CreationDate,2024-08-18T15:20:42-07:00*%
%TF.ProjectId,feather_M4_express,66656174-6865-4725-9f4d-345f65787072,rev?*%
%TF.SameCoordinates,Original*%
%TF.FileFunction,Legend,Bot*%
%TF.FilePolarity,Positive*%
%FSLAX46Y46*%
G04 Gerber Fmt 4.6, Leading zero omitted, Abs format (unit mm)*
G04 Created by KiCad (PCBNEW 8.0.4-8.0.4-0~ubuntu22.04.1) date 2024-08-18 15:20:42*
%MOMM*%
%LPD*%
G01*
G04 APERTURE LIST*
%ADD10C,0.170000*%
%ADD11C,0.120000*%
%ADD12C,0.150000*%
%ADD13C,0.203200*%
G04 APERTURE END LIST*
D10*
X233700283Y-145272822D02*
X233700283Y-145653775D01*
X233928855Y-145196632D02*
X233128855Y-145463299D01*
X233128855Y-145463299D02*
X233928855Y-145729965D01*
X233128855Y-146377584D02*
X233128855Y-145996632D01*
X233128855Y-145996632D02*
X233509807Y-145958536D01*
X233509807Y-145958536D02*
X233471712Y-145996632D01*
X233471712Y-145996632D02*
X233433617Y-146072822D01*
X233433617Y-146072822D02*
X233433617Y-146263298D01*
X233433617Y-146263298D02*
X233471712Y-146339489D01*
X233471712Y-146339489D02*
X233509807Y-146377584D01*
X233509807Y-146377584D02*
X233585998Y-146415679D01*
X233585998Y-146415679D02*
X233776474Y-146415679D01*
X233776474Y-146415679D02*
X233852664Y-146377584D01*
X233852664Y-146377584D02*
X233890760Y-146339489D01*
X233890760Y-146339489D02*
X233928855Y-146263298D01*
X233928855Y-146263298D02*
X233928855Y-146072822D01*
X233928855Y-146072822D02*
X233890760Y-145996632D01*
X233890760Y-145996632D02*
X233852664Y-145958536D01*
X216727977Y-144444683D02*
X216347024Y-144444683D01*
X216804167Y-144673255D02*
X216537500Y-143873255D01*
X216537500Y-143873255D02*
X216270834Y-144673255D01*
X216004167Y-144673255D02*
X216004167Y-144139921D01*
X216004167Y-144292302D02*
X215966072Y-144216112D01*
X215966072Y-144216112D02*
X215927977Y-144178017D01*
X215927977Y-144178017D02*
X215851786Y-144139921D01*
X215851786Y-144139921D02*
X215775596Y-144139921D01*
X215204167Y-144635160D02*
X215280358Y-144673255D01*
X215280358Y-144673255D02*
X215432739Y-144673255D01*
X215432739Y-144673255D02*
X215508929Y-144635160D01*
X215508929Y-144635160D02*
X215547025Y-144558969D01*
X215547025Y-144558969D02*
X215547025Y-144254207D01*
X215547025Y-144254207D02*
X215508929Y-144178017D01*
X215508929Y-144178017D02*
X215432739Y-144139921D01*
X215432739Y-144139921D02*
X215280358Y-144139921D01*
X215280358Y-144139921D02*
X215204167Y-144178017D01*
X215204167Y-144178017D02*
X215166072Y-144254207D01*
X215166072Y-144254207D02*
X215166072Y-144330398D01*
X215166072Y-144330398D02*
X215547025Y-144406588D01*
X214937501Y-144139921D02*
X214632739Y-144139921D01*
X214823215Y-144673255D02*
X214823215Y-143987540D01*
X214823215Y-143987540D02*
X214785120Y-143911350D01*
X214785120Y-143911350D02*
X214708930Y-143873255D01*
X214708930Y-143873255D02*
X214632739Y-143873255D01*
X213565672Y-143898655D02*
X213070434Y-143898655D01*
X213070434Y-143898655D02*
X213337100Y-144203417D01*
X213337100Y-144203417D02*
X213222815Y-144203417D01*
X213222815Y-144203417D02*
X213146624Y-144241512D01*
X213146624Y-144241512D02*
X213108529Y-144279607D01*
X213108529Y-144279607D02*
X213070434Y-144355798D01*
X213070434Y-144355798D02*
X213070434Y-144546274D01*
X213070434Y-144546274D02*
X213108529Y-144622464D01*
X213108529Y-144622464D02*
X213146624Y-144660560D01*
X213146624Y-144660560D02*
X213222815Y-144698655D01*
X213222815Y-144698655D02*
X213451386Y-144698655D01*
X213451386Y-144698655D02*
X213527577Y-144660560D01*
X213527577Y-144660560D02*
X213565672Y-144622464D01*
X212841862Y-143898655D02*
X212575195Y-144698655D01*
X212575195Y-144698655D02*
X212308529Y-143898655D01*
X236481560Y-144307622D02*
X236519655Y-144421908D01*
X236519655Y-144421908D02*
X236519655Y-144612384D01*
X236519655Y-144612384D02*
X236481560Y-144688575D01*
X236481560Y-144688575D02*
X236443464Y-144726670D01*
X236443464Y-144726670D02*
X236367274Y-144764765D01*
X236367274Y-144764765D02*
X236291083Y-144764765D01*
X236291083Y-144764765D02*
X236214893Y-144726670D01*
X236214893Y-144726670D02*
X236176798Y-144688575D01*
X236176798Y-144688575D02*
X236138702Y-144612384D01*
X236138702Y-144612384D02*
X236100607Y-144460003D01*
X236100607Y-144460003D02*
X236062512Y-144383813D01*
X236062512Y-144383813D02*
X236024417Y-144345718D01*
X236024417Y-144345718D02*
X235948226Y-144307622D01*
X235948226Y-144307622D02*
X235872036Y-144307622D01*
X235872036Y-144307622D02*
X235795845Y-144345718D01*
X235795845Y-144345718D02*
X235757750Y-144383813D01*
X235757750Y-144383813D02*
X235719655Y-144460003D01*
X235719655Y-144460003D02*
X235719655Y-144650480D01*
X235719655Y-144650480D02*
X235757750Y-144764765D01*
X236443464Y-145564766D02*
X236481560Y-145526670D01*
X236481560Y-145526670D02*
X236519655Y-145412385D01*
X236519655Y-145412385D02*
X236519655Y-145336194D01*
X236519655Y-145336194D02*
X236481560Y-145221908D01*
X236481560Y-145221908D02*
X236405369Y-145145718D01*
X236405369Y-145145718D02*
X236329179Y-145107623D01*
X236329179Y-145107623D02*
X236176798Y-145069527D01*
X236176798Y-145069527D02*
X236062512Y-145069527D01*
X236062512Y-145069527D02*
X235910131Y-145107623D01*
X235910131Y-145107623D02*
X235833940Y-145145718D01*
X235833940Y-145145718D02*
X235757750Y-145221908D01*
X235757750Y-145221908D02*
X235719655Y-145336194D01*
X235719655Y-145336194D02*
X235719655Y-145412385D01*
X235719655Y-145412385D02*
X235757750Y-145526670D01*
X235757750Y-145526670D02*
X235795845Y-145564766D01*
X236519655Y-145907623D02*
X235719655Y-145907623D01*
X236519655Y-146364766D02*
X236062512Y-146021908D01*
X235719655Y-146364766D02*
X236176798Y-145907623D01*
X246826967Y-145549655D02*
X246369824Y-145549655D01*
X246598396Y-146349655D02*
X246598396Y-145549655D01*
X246179348Y-145549655D02*
X245646014Y-146349655D01*
X245646014Y-145549655D02*
X246179348Y-146349655D01*
X217901550Y-144891765D02*
X217863455Y-144815575D01*
X217863455Y-144815575D02*
X217863455Y-144701289D01*
X217863455Y-144701289D02*
X217901550Y-144587003D01*
X217901550Y-144587003D02*
X217977740Y-144510813D01*
X217977740Y-144510813D02*
X218053931Y-144472718D01*
X218053931Y-144472718D02*
X218206312Y-144434622D01*
X218206312Y-144434622D02*
X218320598Y-144434622D01*
X218320598Y-144434622D02*
X218472979Y-144472718D01*
X218472979Y-144472718D02*
X218549169Y-144510813D01*
X218549169Y-144510813D02*
X218625360Y-144587003D01*
X218625360Y-144587003D02*
X218663455Y-144701289D01*
X218663455Y-144701289D02*
X218663455Y-144777480D01*
X218663455Y-144777480D02*
X218625360Y-144891765D01*
X218625360Y-144891765D02*
X218587264Y-144929861D01*
X218587264Y-144929861D02*
X218320598Y-144929861D01*
X218320598Y-144929861D02*
X218320598Y-144777480D01*
X218130121Y-145272718D02*
X218663455Y-145272718D01*
X218206312Y-145272718D02*
X218168217Y-145310813D01*
X218168217Y-145310813D02*
X218130121Y-145387003D01*
X218130121Y-145387003D02*
X218130121Y-145501289D01*
X218130121Y-145501289D02*
X218168217Y-145577480D01*
X218168217Y-145577480D02*
X218244407Y-145615575D01*
X218244407Y-145615575D02*
X218663455Y-145615575D01*
X218663455Y-146339385D02*
X217863455Y-146339385D01*
X218625360Y-146339385D02*
X218663455Y-146263194D01*
X218663455Y-146263194D02*
X218663455Y-146110813D01*
X218663455Y-146110813D02*
X218625360Y-146034623D01*
X218625360Y-146034623D02*
X218587264Y-145996528D01*
X218587264Y-145996528D02*
X218511074Y-145958432D01*
X218511074Y-145958432D02*
X218282502Y-145958432D01*
X218282502Y-145958432D02*
X218206312Y-145996528D01*
X218206312Y-145996528D02*
X218168217Y-146034623D01*
X218168217Y-146034623D02*
X218130121Y-146110813D01*
X218130121Y-146110813D02*
X218130121Y-146263194D01*
X218130121Y-146263194D02*
X218168217Y-146339385D01*
X225559655Y-128877118D02*
X226207274Y-128877118D01*
X226207274Y-128877118D02*
X226283464Y-128915213D01*
X226283464Y-128915213D02*
X226321560Y-128953308D01*
X226321560Y-128953308D02*
X226359655Y-129029499D01*
X226359655Y-129029499D02*
X226359655Y-129181880D01*
X226359655Y-129181880D02*
X226321560Y-129258070D01*
X226321560Y-129258070D02*
X226283464Y-129296165D01*
X226283464Y-129296165D02*
X226207274Y-129334261D01*
X226207274Y-129334261D02*
X225559655Y-129334261D01*
X226321560Y-129677117D02*
X226359655Y-129791403D01*
X226359655Y-129791403D02*
X226359655Y-129981879D01*
X226359655Y-129981879D02*
X226321560Y-130058070D01*
X226321560Y-130058070D02*
X226283464Y-130096165D01*
X226283464Y-130096165D02*
X226207274Y-130134260D01*
X226207274Y-130134260D02*
X226131083Y-130134260D01*
X226131083Y-130134260D02*
X226054893Y-130096165D01*
X226054893Y-130096165D02*
X226016798Y-130058070D01*
X226016798Y-130058070D02*
X225978702Y-129981879D01*
X225978702Y-129981879D02*
X225940607Y-129829498D01*
X225940607Y-129829498D02*
X225902512Y-129753308D01*
X225902512Y-129753308D02*
X225864417Y-129715213D01*
X225864417Y-129715213D02*
X225788226Y-129677117D01*
X225788226Y-129677117D02*
X225712036Y-129677117D01*
X225712036Y-129677117D02*
X225635845Y-129715213D01*
X225635845Y-129715213D02*
X225597750Y-129753308D01*
X225597750Y-129753308D02*
X225559655Y-129829498D01*
X225559655Y-129829498D02*
X225559655Y-130019975D01*
X225559655Y-130019975D02*
X225597750Y-130134260D01*
X225940607Y-130743784D02*
X225978702Y-130858070D01*
X225978702Y-130858070D02*
X226016798Y-130896165D01*
X226016798Y-130896165D02*
X226092988Y-130934261D01*
X226092988Y-130934261D02*
X226207274Y-130934261D01*
X226207274Y-130934261D02*
X226283464Y-130896165D01*
X226283464Y-130896165D02*
X226321560Y-130858070D01*
X226321560Y-130858070D02*
X226359655Y-130781880D01*
X226359655Y-130781880D02*
X226359655Y-130477118D01*
X226359655Y-130477118D02*
X225559655Y-130477118D01*
X225559655Y-130477118D02*
X225559655Y-130743784D01*
X225559655Y-130743784D02*
X225597750Y-130819975D01*
X225597750Y-130819975D02*
X225635845Y-130858070D01*
X225635845Y-130858070D02*
X225712036Y-130896165D01*
X225712036Y-130896165D02*
X225788226Y-130896165D01*
X225788226Y-130896165D02*
X225864417Y-130858070D01*
X225864417Y-130858070D02*
X225902512Y-130819975D01*
X225902512Y-130819975D02*
X225940607Y-130743784D01*
X225940607Y-130743784D02*
X225940607Y-130477118D01*
X220809807Y-129169184D02*
X220847902Y-129283470D01*
X220847902Y-129283470D02*
X220885998Y-129321565D01*
X220885998Y-129321565D02*
X220962188Y-129359661D01*
X220962188Y-129359661D02*
X221076474Y-129359661D01*
X221076474Y-129359661D02*
X221152664Y-129321565D01*
X221152664Y-129321565D02*
X221190760Y-129283470D01*
X221190760Y-129283470D02*
X221228855Y-129207280D01*
X221228855Y-129207280D02*
X221228855Y-128902518D01*
X221228855Y-128902518D02*
X220428855Y-128902518D01*
X220428855Y-128902518D02*
X220428855Y-129169184D01*
X220428855Y-129169184D02*
X220466950Y-129245375D01*
X220466950Y-129245375D02*
X220505045Y-129283470D01*
X220505045Y-129283470D02*
X220581236Y-129321565D01*
X220581236Y-129321565D02*
X220657426Y-129321565D01*
X220657426Y-129321565D02*
X220733617Y-129283470D01*
X220733617Y-129283470D02*
X220771712Y-129245375D01*
X220771712Y-129245375D02*
X220809807Y-129169184D01*
X220809807Y-129169184D02*
X220809807Y-128902518D01*
X221228855Y-130045375D02*
X220809807Y-130045375D01*
X220809807Y-130045375D02*
X220733617Y-130007280D01*
X220733617Y-130007280D02*
X220695521Y-129931089D01*
X220695521Y-129931089D02*
X220695521Y-129778708D01*
X220695521Y-129778708D02*
X220733617Y-129702518D01*
X221190760Y-130045375D02*
X221228855Y-129969184D01*
X221228855Y-129969184D02*
X221228855Y-129778708D01*
X221228855Y-129778708D02*
X221190760Y-129702518D01*
X221190760Y-129702518D02*
X221114569Y-129664422D01*
X221114569Y-129664422D02*
X221038379Y-129664422D01*
X221038379Y-129664422D02*
X220962188Y-129702518D01*
X220962188Y-129702518D02*
X220924093Y-129778708D01*
X220924093Y-129778708D02*
X220924093Y-129969184D01*
X220924093Y-129969184D02*
X220885998Y-130045375D01*
X220695521Y-130312042D02*
X220695521Y-130616804D01*
X220428855Y-130426328D02*
X221114569Y-130426328D01*
X221114569Y-130426328D02*
X221190760Y-130464423D01*
X221190760Y-130464423D02*
X221228855Y-130540613D01*
X221228855Y-130540613D02*
X221228855Y-130616804D01*
X228848855Y-129372365D02*
X228848855Y-128915222D01*
X228848855Y-129143794D02*
X228048855Y-129143794D01*
X228048855Y-129143794D02*
X228163140Y-129067603D01*
X228163140Y-129067603D02*
X228239331Y-128991413D01*
X228239331Y-128991413D02*
X228277426Y-128915222D01*
X228048855Y-129639032D02*
X228048855Y-130134270D01*
X228048855Y-130134270D02*
X228353617Y-129867604D01*
X228353617Y-129867604D02*
X228353617Y-129981889D01*
X228353617Y-129981889D02*
X228391712Y-130058080D01*
X228391712Y-130058080D02*
X228429807Y-130096175D01*
X228429807Y-130096175D02*
X228505998Y-130134270D01*
X228505998Y-130134270D02*
X228696474Y-130134270D01*
X228696474Y-130134270D02*
X228772664Y-130096175D01*
X228772664Y-130096175D02*
X228810760Y-130058080D01*
X228810760Y-130058080D02*
X228848855Y-129981889D01*
X228848855Y-129981889D02*
X228848855Y-129753318D01*
X228848855Y-129753318D02*
X228810760Y-129677127D01*
X228810760Y-129677127D02*
X228772664Y-129639032D01*
X223591083Y-145222022D02*
X223591083Y-145602975D01*
X223819655Y-145145832D02*
X223019655Y-145412499D01*
X223019655Y-145412499D02*
X223819655Y-145679165D01*
X223819655Y-146364879D02*
X223819655Y-145907736D01*
X223819655Y-146136308D02*
X223019655Y-146136308D01*
X223019655Y-146136308D02*
X223133940Y-146060117D01*
X223133940Y-146060117D02*
X223210131Y-145983927D01*
X223210131Y-145983927D02*
X223248226Y-145907736D01*
X231058683Y-145171222D02*
X231058683Y-145552175D01*
X231287255Y-145095032D02*
X230487255Y-145361699D01*
X230487255Y-145361699D02*
X231287255Y-145628365D01*
X230753921Y-146237889D02*
X231287255Y-146237889D01*
X230449160Y-146047413D02*
X231020588Y-145856936D01*
X231020588Y-145856936D02*
X231020588Y-146352175D01*
D11*
X229219567Y-144112960D02*
X229133853Y-144141531D01*
X229133853Y-144141531D02*
X228990995Y-144141531D01*
X228990995Y-144141531D02*
X228933853Y-144112960D01*
X228933853Y-144112960D02*
X228905281Y-144084388D01*
X228905281Y-144084388D02*
X228876710Y-144027245D01*
X228876710Y-144027245D02*
X228876710Y-143970102D01*
X228876710Y-143970102D02*
X228905281Y-143912960D01*
X228905281Y-143912960D02*
X228933853Y-143884388D01*
X228933853Y-143884388D02*
X228990995Y-143855817D01*
X228990995Y-143855817D02*
X229105281Y-143827245D01*
X229105281Y-143827245D02*
X229162424Y-143798674D01*
X229162424Y-143798674D02*
X229190995Y-143770102D01*
X229190995Y-143770102D02*
X229219567Y-143712960D01*
X229219567Y-143712960D02*
X229219567Y-143655817D01*
X229219567Y-143655817D02*
X229190995Y-143598674D01*
X229190995Y-143598674D02*
X229162424Y-143570102D01*
X229162424Y-143570102D02*
X229105281Y-143541531D01*
X229105281Y-143541531D02*
X228962424Y-143541531D01*
X228962424Y-143541531D02*
X228876710Y-143570102D01*
X228676709Y-143541531D02*
X228533852Y-144141531D01*
X228533852Y-144141531D02*
X228419566Y-143712960D01*
X228419566Y-143712960D02*
X228305281Y-144141531D01*
X228305281Y-144141531D02*
X228162424Y-143541531D01*
X227933852Y-144141531D02*
X227933852Y-143541531D01*
X227933852Y-143541531D02*
X227790995Y-143541531D01*
X227790995Y-143541531D02*
X227705281Y-143570102D01*
X227705281Y-143570102D02*
X227648138Y-143627245D01*
X227648138Y-143627245D02*
X227619567Y-143684388D01*
X227619567Y-143684388D02*
X227590995Y-143798674D01*
X227590995Y-143798674D02*
X227590995Y-143884388D01*
X227590995Y-143884388D02*
X227619567Y-143998674D01*
X227619567Y-143998674D02*
X227648138Y-144055817D01*
X227648138Y-144055817D02*
X227705281Y-144112960D01*
X227705281Y-144112960D02*
X227790995Y-144141531D01*
X227790995Y-144141531D02*
X227933852Y-144141531D01*
X227333852Y-144141531D02*
X227333852Y-143541531D01*
X226933853Y-143541531D02*
X226819567Y-143541531D01*
X226819567Y-143541531D02*
X226762424Y-143570102D01*
X226762424Y-143570102D02*
X226705281Y-143627245D01*
X226705281Y-143627245D02*
X226676710Y-143741531D01*
X226676710Y-143741531D02*
X226676710Y-143941531D01*
X226676710Y-143941531D02*
X226705281Y-144055817D01*
X226705281Y-144055817D02*
X226762424Y-144112960D01*
X226762424Y-144112960D02*
X226819567Y-144141531D01*
X226819567Y-144141531D02*
X226933853Y-144141531D01*
X226933853Y-144141531D02*
X226990996Y-144112960D01*
X226990996Y-144112960D02*
X227048138Y-144055817D01*
X227048138Y-144055817D02*
X227076710Y-143941531D01*
X227076710Y-143941531D02*
X227076710Y-143741531D01*
X227076710Y-143741531D02*
X227048138Y-143627245D01*
X227048138Y-143627245D02*
X226990996Y-143570102D01*
X226990996Y-143570102D02*
X226933853Y-143541531D01*
D10*
X231414255Y-129372365D02*
X231414255Y-128915222D01*
X231414255Y-129143794D02*
X230614255Y-129143794D01*
X230614255Y-129143794D02*
X230728540Y-129067603D01*
X230728540Y-129067603D02*
X230804731Y-128991413D01*
X230804731Y-128991413D02*
X230842826Y-128915222D01*
X230690445Y-129677127D02*
X230652350Y-129715223D01*
X230652350Y-129715223D02*
X230614255Y-129791413D01*
X230614255Y-129791413D02*
X230614255Y-129981889D01*
X230614255Y-129981889D02*
X230652350Y-130058080D01*
X230652350Y-130058080D02*
X230690445Y-130096175D01*
X230690445Y-130096175D02*
X230766636Y-130134270D01*
X230766636Y-130134270D02*
X230842826Y-130134270D01*
X230842826Y-130134270D02*
X230957112Y-130096175D01*
X230957112Y-130096175D02*
X231414255Y-129639032D01*
X231414255Y-129639032D02*
X231414255Y-130134270D01*
X233903455Y-129372365D02*
X233903455Y-128915222D01*
X233903455Y-129143794D02*
X233103455Y-129143794D01*
X233103455Y-129143794D02*
X233217740Y-129067603D01*
X233217740Y-129067603D02*
X233293931Y-128991413D01*
X233293931Y-128991413D02*
X233332026Y-128915222D01*
X233903455Y-130134270D02*
X233903455Y-129677127D01*
X233903455Y-129905699D02*
X233103455Y-129905699D01*
X233103455Y-129905699D02*
X233217740Y-129829508D01*
X233217740Y-129829508D02*
X233293931Y-129753318D01*
X233293931Y-129753318D02*
X233332026Y-129677127D01*
X223400607Y-128877118D02*
X223400607Y-129143784D01*
X223819655Y-129258070D02*
X223819655Y-128877118D01*
X223819655Y-128877118D02*
X223019655Y-128877118D01*
X223019655Y-128877118D02*
X223019655Y-129258070D01*
X223286321Y-129600928D02*
X223819655Y-129600928D01*
X223362512Y-129600928D02*
X223324417Y-129639023D01*
X223324417Y-129639023D02*
X223286321Y-129715213D01*
X223286321Y-129715213D02*
X223286321Y-129829499D01*
X223286321Y-129829499D02*
X223324417Y-129905690D01*
X223324417Y-129905690D02*
X223400607Y-129943785D01*
X223400607Y-129943785D02*
X223819655Y-129943785D01*
X228569483Y-145222022D02*
X228569483Y-145602975D01*
X228798055Y-145145832D02*
X227998055Y-145412499D01*
X227998055Y-145412499D02*
X228798055Y-145679165D01*
X227998055Y-145869641D02*
X227998055Y-146364879D01*
X227998055Y-146364879D02*
X228302817Y-146098213D01*
X228302817Y-146098213D02*
X228302817Y-146212498D01*
X228302817Y-146212498D02*
X228340912Y-146288689D01*
X228340912Y-146288689D02*
X228379007Y-146326784D01*
X228379007Y-146326784D02*
X228455198Y-146364879D01*
X228455198Y-146364879D02*
X228645674Y-146364879D01*
X228645674Y-146364879D02*
X228721864Y-146326784D01*
X228721864Y-146326784D02*
X228759960Y-146288689D01*
X228759960Y-146288689D02*
X228798055Y-146212498D01*
X228798055Y-146212498D02*
X228798055Y-145983927D01*
X228798055Y-145983927D02*
X228759960Y-145907736D01*
X228759960Y-145907736D02*
X228721864Y-145869641D01*
X243441255Y-129334270D02*
X243441255Y-128953318D01*
X243441255Y-128953318D02*
X243822207Y-128915222D01*
X243822207Y-128915222D02*
X243784112Y-128953318D01*
X243784112Y-128953318D02*
X243746017Y-129029508D01*
X243746017Y-129029508D02*
X243746017Y-129219984D01*
X243746017Y-129219984D02*
X243784112Y-129296175D01*
X243784112Y-129296175D02*
X243822207Y-129334270D01*
X243822207Y-129334270D02*
X243898398Y-129372365D01*
X243898398Y-129372365D02*
X244088874Y-129372365D01*
X244088874Y-129372365D02*
X244165064Y-129334270D01*
X244165064Y-129334270D02*
X244203160Y-129296175D01*
X244203160Y-129296175D02*
X244241255Y-129219984D01*
X244241255Y-129219984D02*
X244241255Y-129029508D01*
X244241255Y-129029508D02*
X244203160Y-128953318D01*
X244203160Y-128953318D02*
X244165064Y-128915222D01*
X221051083Y-145222022D02*
X221051083Y-145602975D01*
X221279655Y-145145832D02*
X220479655Y-145412499D01*
X220479655Y-145412499D02*
X221279655Y-145679165D01*
X220479655Y-146098213D02*
X220479655Y-146174403D01*
X220479655Y-146174403D02*
X220517750Y-146250594D01*
X220517750Y-146250594D02*
X220555845Y-146288689D01*
X220555845Y-146288689D02*
X220632036Y-146326784D01*
X220632036Y-146326784D02*
X220784417Y-146364879D01*
X220784417Y-146364879D02*
X220974893Y-146364879D01*
X220974893Y-146364879D02*
X221127274Y-146326784D01*
X221127274Y-146326784D02*
X221203464Y-146288689D01*
X221203464Y-146288689D02*
X221241560Y-146250594D01*
X221241560Y-146250594D02*
X221279655Y-146174403D01*
X221279655Y-146174403D02*
X221279655Y-146098213D01*
X221279655Y-146098213D02*
X221241560Y-146022022D01*
X221241560Y-146022022D02*
X221203464Y-145983927D01*
X221203464Y-145983927D02*
X221127274Y-145945832D01*
X221127274Y-145945832D02*
X220974893Y-145907736D01*
X220974893Y-145907736D02*
X220784417Y-145907736D01*
X220784417Y-145907736D02*
X220632036Y-145945832D01*
X220632036Y-145945832D02*
X220555845Y-145983927D01*
X220555845Y-145983927D02*
X220517750Y-146022022D01*
X220517750Y-146022022D02*
X220479655Y-146098213D01*
X217817380Y-127022545D02*
X217322142Y-127022545D01*
X217322142Y-127022545D02*
X217588808Y-127327307D01*
X217588808Y-127327307D02*
X217474523Y-127327307D01*
X217474523Y-127327307D02*
X217398332Y-127365402D01*
X217398332Y-127365402D02*
X217360237Y-127403497D01*
X217360237Y-127403497D02*
X217322142Y-127479688D01*
X217322142Y-127479688D02*
X217322142Y-127670164D01*
X217322142Y-127670164D02*
X217360237Y-127746354D01*
X217360237Y-127746354D02*
X217398332Y-127784450D01*
X217398332Y-127784450D02*
X217474523Y-127822545D01*
X217474523Y-127822545D02*
X217703094Y-127822545D01*
X217703094Y-127822545D02*
X217779285Y-127784450D01*
X217779285Y-127784450D02*
X217817380Y-127746354D01*
X216979284Y-127746354D02*
X216941189Y-127784450D01*
X216941189Y-127784450D02*
X216979284Y-127822545D01*
X216979284Y-127822545D02*
X217017380Y-127784450D01*
X217017380Y-127784450D02*
X216979284Y-127746354D01*
X216979284Y-127746354D02*
X216979284Y-127822545D01*
X216674523Y-127022545D02*
X216141189Y-127022545D01*
X216141189Y-127022545D02*
X216484047Y-127822545D01*
X215264999Y-126984450D02*
X215950713Y-128013021D01*
X214655475Y-127289211D02*
X214655475Y-127822545D01*
X214845951Y-126984450D02*
X215036428Y-127555878D01*
X215036428Y-127555878D02*
X214541189Y-127555878D01*
X214236427Y-127746354D02*
X214198332Y-127784450D01*
X214198332Y-127784450D02*
X214236427Y-127822545D01*
X214236427Y-127822545D02*
X214274523Y-127784450D01*
X214274523Y-127784450D02*
X214236427Y-127746354D01*
X214236427Y-127746354D02*
X214236427Y-127822545D01*
X213893571Y-127098735D02*
X213855475Y-127060640D01*
X213855475Y-127060640D02*
X213779285Y-127022545D01*
X213779285Y-127022545D02*
X213588809Y-127022545D01*
X213588809Y-127022545D02*
X213512618Y-127060640D01*
X213512618Y-127060640D02*
X213474523Y-127098735D01*
X213474523Y-127098735D02*
X213436428Y-127174926D01*
X213436428Y-127174926D02*
X213436428Y-127251116D01*
X213436428Y-127251116D02*
X213474523Y-127365402D01*
X213474523Y-127365402D02*
X213931666Y-127822545D01*
X213931666Y-127822545D02*
X213436428Y-127822545D01*
X213207856Y-127022545D02*
X212941189Y-127822545D01*
X212941189Y-127822545D02*
X212674523Y-127022545D01*
X218903095Y-129110500D02*
X219284047Y-129110500D01*
X219284047Y-129110500D02*
X219284047Y-128310500D01*
X218636428Y-129110500D02*
X218636428Y-128577166D01*
X218636428Y-128310500D02*
X218674524Y-128348595D01*
X218674524Y-128348595D02*
X218636428Y-128386690D01*
X218636428Y-128386690D02*
X218598333Y-128348595D01*
X218598333Y-128348595D02*
X218636428Y-128310500D01*
X218636428Y-128310500D02*
X218636428Y-128386690D01*
X218255476Y-129110500D02*
X218255476Y-128310500D01*
X218255476Y-128310500D02*
X217950714Y-128310500D01*
X217950714Y-128310500D02*
X217874524Y-128348595D01*
X217874524Y-128348595D02*
X217836429Y-128386690D01*
X217836429Y-128386690D02*
X217798333Y-128462881D01*
X217798333Y-128462881D02*
X217798333Y-128577166D01*
X217798333Y-128577166D02*
X217836429Y-128653357D01*
X217836429Y-128653357D02*
X217874524Y-128691452D01*
X217874524Y-128691452D02*
X217950714Y-128729547D01*
X217950714Y-128729547D02*
X218255476Y-128729547D01*
X217341191Y-129110500D02*
X217417381Y-129072405D01*
X217417381Y-129072405D02*
X217455476Y-129034309D01*
X217455476Y-129034309D02*
X217493572Y-128958119D01*
X217493572Y-128958119D02*
X217493572Y-128729547D01*
X217493572Y-128729547D02*
X217455476Y-128653357D01*
X217455476Y-128653357D02*
X217417381Y-128615262D01*
X217417381Y-128615262D02*
X217341191Y-128577166D01*
X217341191Y-128577166D02*
X217226905Y-128577166D01*
X217226905Y-128577166D02*
X217150714Y-128615262D01*
X217150714Y-128615262D02*
X217112619Y-128653357D01*
X217112619Y-128653357D02*
X217074524Y-128729547D01*
X217074524Y-128729547D02*
X217074524Y-128958119D01*
X217074524Y-128958119D02*
X217112619Y-129034309D01*
X217112619Y-129034309D02*
X217150714Y-129072405D01*
X217150714Y-129072405D02*
X217226905Y-129110500D01*
X217226905Y-129110500D02*
X217341191Y-129110500D01*
X216617381Y-129110500D02*
X216693571Y-129072405D01*
X216693571Y-129072405D02*
X216731666Y-128996214D01*
X216731666Y-128996214D02*
X216731666Y-128310500D01*
X216388809Y-128577166D02*
X216198333Y-129110500D01*
X216007856Y-128577166D02*
X216198333Y-129110500D01*
X216198333Y-129110500D02*
X216274523Y-129300976D01*
X216274523Y-129300976D02*
X216312618Y-129339071D01*
X216312618Y-129339071D02*
X216388809Y-129377166D01*
X214826904Y-128691452D02*
X214712618Y-128729547D01*
X214712618Y-128729547D02*
X214674523Y-128767643D01*
X214674523Y-128767643D02*
X214636427Y-128843833D01*
X214636427Y-128843833D02*
X214636427Y-128958119D01*
X214636427Y-128958119D02*
X214674523Y-129034309D01*
X214674523Y-129034309D02*
X214712618Y-129072405D01*
X214712618Y-129072405D02*
X214788808Y-129110500D01*
X214788808Y-129110500D02*
X215093570Y-129110500D01*
X215093570Y-129110500D02*
X215093570Y-128310500D01*
X215093570Y-128310500D02*
X214826904Y-128310500D01*
X214826904Y-128310500D02*
X214750713Y-128348595D01*
X214750713Y-128348595D02*
X214712618Y-128386690D01*
X214712618Y-128386690D02*
X214674523Y-128462881D01*
X214674523Y-128462881D02*
X214674523Y-128539071D01*
X214674523Y-128539071D02*
X214712618Y-128615262D01*
X214712618Y-128615262D02*
X214750713Y-128653357D01*
X214750713Y-128653357D02*
X214826904Y-128691452D01*
X214826904Y-128691452D02*
X215093570Y-128691452D01*
X213950713Y-129110500D02*
X213950713Y-128691452D01*
X213950713Y-128691452D02*
X213988808Y-128615262D01*
X213988808Y-128615262D02*
X214064999Y-128577166D01*
X214064999Y-128577166D02*
X214217380Y-128577166D01*
X214217380Y-128577166D02*
X214293570Y-128615262D01*
X213950713Y-129072405D02*
X214026904Y-129110500D01*
X214026904Y-129110500D02*
X214217380Y-129110500D01*
X214217380Y-129110500D02*
X214293570Y-129072405D01*
X214293570Y-129072405D02*
X214331666Y-128996214D01*
X214331666Y-128996214D02*
X214331666Y-128920024D01*
X214331666Y-128920024D02*
X214293570Y-128843833D01*
X214293570Y-128843833D02*
X214217380Y-128805738D01*
X214217380Y-128805738D02*
X214026904Y-128805738D01*
X214026904Y-128805738D02*
X213950713Y-128767643D01*
X213684046Y-128577166D02*
X213379284Y-128577166D01*
X213569760Y-128310500D02*
X213569760Y-128996214D01*
X213569760Y-128996214D02*
X213531665Y-129072405D01*
X213531665Y-129072405D02*
X213455475Y-129110500D01*
X213455475Y-129110500D02*
X213379284Y-129110500D01*
X213226903Y-128577166D02*
X212922141Y-128577166D01*
X213112617Y-128310500D02*
X213112617Y-128996214D01*
X213112617Y-128996214D02*
X213074522Y-129072405D01*
X213074522Y-129072405D02*
X212998332Y-129110500D01*
X212998332Y-129110500D02*
X212922141Y-129110500D01*
X212350712Y-129072405D02*
X212426903Y-129110500D01*
X212426903Y-129110500D02*
X212579284Y-129110500D01*
X212579284Y-129110500D02*
X212655474Y-129072405D01*
X212655474Y-129072405D02*
X212693570Y-128996214D01*
X212693570Y-128996214D02*
X212693570Y-128691452D01*
X212693570Y-128691452D02*
X212655474Y-128615262D01*
X212655474Y-128615262D02*
X212579284Y-128577166D01*
X212579284Y-128577166D02*
X212426903Y-128577166D01*
X212426903Y-128577166D02*
X212350712Y-128615262D01*
X212350712Y-128615262D02*
X212312617Y-128691452D01*
X212312617Y-128691452D02*
X212312617Y-128767643D01*
X212312617Y-128767643D02*
X212693570Y-128843833D01*
X211969760Y-129110500D02*
X211969760Y-128577166D01*
X211969760Y-128729547D02*
X211931665Y-128653357D01*
X211931665Y-128653357D02*
X211893570Y-128615262D01*
X211893570Y-128615262D02*
X211817379Y-128577166D01*
X211817379Y-128577166D02*
X211741189Y-128577166D01*
X211550713Y-128577166D02*
X211360237Y-129110500D01*
X211169760Y-128577166D02*
X211360237Y-129110500D01*
X211360237Y-129110500D02*
X211436427Y-129300976D01*
X211436427Y-129300976D02*
X211474522Y-129339071D01*
X211474522Y-129339071D02*
X211550713Y-129377166D01*
X218598333Y-129598455D02*
X218598333Y-130246074D01*
X218598333Y-130246074D02*
X218560238Y-130322264D01*
X218560238Y-130322264D02*
X218522143Y-130360360D01*
X218522143Y-130360360D02*
X218445952Y-130398455D01*
X218445952Y-130398455D02*
X218293571Y-130398455D01*
X218293571Y-130398455D02*
X218217381Y-130360360D01*
X218217381Y-130360360D02*
X218179286Y-130322264D01*
X218179286Y-130322264D02*
X218141190Y-130246074D01*
X218141190Y-130246074D02*
X218141190Y-129598455D01*
X217798334Y-130360360D02*
X217684048Y-130398455D01*
X217684048Y-130398455D02*
X217493572Y-130398455D01*
X217493572Y-130398455D02*
X217417381Y-130360360D01*
X217417381Y-130360360D02*
X217379286Y-130322264D01*
X217379286Y-130322264D02*
X217341191Y-130246074D01*
X217341191Y-130246074D02*
X217341191Y-130169883D01*
X217341191Y-130169883D02*
X217379286Y-130093693D01*
X217379286Y-130093693D02*
X217417381Y-130055598D01*
X217417381Y-130055598D02*
X217493572Y-130017502D01*
X217493572Y-130017502D02*
X217645953Y-129979407D01*
X217645953Y-129979407D02*
X217722143Y-129941312D01*
X217722143Y-129941312D02*
X217760238Y-129903217D01*
X217760238Y-129903217D02*
X217798334Y-129827026D01*
X217798334Y-129827026D02*
X217798334Y-129750836D01*
X217798334Y-129750836D02*
X217760238Y-129674645D01*
X217760238Y-129674645D02*
X217722143Y-129636550D01*
X217722143Y-129636550D02*
X217645953Y-129598455D01*
X217645953Y-129598455D02*
X217455476Y-129598455D01*
X217455476Y-129598455D02*
X217341191Y-129636550D01*
X216731667Y-129979407D02*
X216617381Y-130017502D01*
X216617381Y-130017502D02*
X216579286Y-130055598D01*
X216579286Y-130055598D02*
X216541190Y-130131788D01*
X216541190Y-130131788D02*
X216541190Y-130246074D01*
X216541190Y-130246074D02*
X216579286Y-130322264D01*
X216579286Y-130322264D02*
X216617381Y-130360360D01*
X216617381Y-130360360D02*
X216693571Y-130398455D01*
X216693571Y-130398455D02*
X216998333Y-130398455D01*
X216998333Y-130398455D02*
X216998333Y-129598455D01*
X216998333Y-129598455D02*
X216731667Y-129598455D01*
X216731667Y-129598455D02*
X216655476Y-129636550D01*
X216655476Y-129636550D02*
X216617381Y-129674645D01*
X216617381Y-129674645D02*
X216579286Y-129750836D01*
X216579286Y-129750836D02*
X216579286Y-129827026D01*
X216579286Y-129827026D02*
X216617381Y-129903217D01*
X216617381Y-129903217D02*
X216655476Y-129941312D01*
X216655476Y-129941312D02*
X216731667Y-129979407D01*
X216731667Y-129979407D02*
X216998333Y-129979407D01*
X215245952Y-130360360D02*
X215322143Y-130398455D01*
X215322143Y-130398455D02*
X215474524Y-130398455D01*
X215474524Y-130398455D02*
X215550714Y-130360360D01*
X215550714Y-130360360D02*
X215588809Y-130322264D01*
X215588809Y-130322264D02*
X215626905Y-130246074D01*
X215626905Y-130246074D02*
X215626905Y-130017502D01*
X215626905Y-130017502D02*
X215588809Y-129941312D01*
X215588809Y-129941312D02*
X215550714Y-129903217D01*
X215550714Y-129903217D02*
X215474524Y-129865121D01*
X215474524Y-129865121D02*
X215322143Y-129865121D01*
X215322143Y-129865121D02*
X215245952Y-129903217D01*
X214903095Y-130398455D02*
X214903095Y-129598455D01*
X214560238Y-130398455D02*
X214560238Y-129979407D01*
X214560238Y-129979407D02*
X214598333Y-129903217D01*
X214598333Y-129903217D02*
X214674524Y-129865121D01*
X214674524Y-129865121D02*
X214788810Y-129865121D01*
X214788810Y-129865121D02*
X214865000Y-129903217D01*
X214865000Y-129903217D02*
X214903095Y-129941312D01*
X213836428Y-130398455D02*
X213836428Y-129979407D01*
X213836428Y-129979407D02*
X213874523Y-129903217D01*
X213874523Y-129903217D02*
X213950714Y-129865121D01*
X213950714Y-129865121D02*
X214103095Y-129865121D01*
X214103095Y-129865121D02*
X214179285Y-129903217D01*
X213836428Y-130360360D02*
X213912619Y-130398455D01*
X213912619Y-130398455D02*
X214103095Y-130398455D01*
X214103095Y-130398455D02*
X214179285Y-130360360D01*
X214179285Y-130360360D02*
X214217381Y-130284169D01*
X214217381Y-130284169D02*
X214217381Y-130207979D01*
X214217381Y-130207979D02*
X214179285Y-130131788D01*
X214179285Y-130131788D02*
X214103095Y-130093693D01*
X214103095Y-130093693D02*
X213912619Y-130093693D01*
X213912619Y-130093693D02*
X213836428Y-130055598D01*
X213455475Y-130398455D02*
X213455475Y-129865121D01*
X213455475Y-130017502D02*
X213417380Y-129941312D01*
X213417380Y-129941312D02*
X213379285Y-129903217D01*
X213379285Y-129903217D02*
X213303094Y-129865121D01*
X213303094Y-129865121D02*
X213226904Y-129865121D01*
X212617380Y-129865121D02*
X212617380Y-130512740D01*
X212617380Y-130512740D02*
X212655475Y-130588931D01*
X212655475Y-130588931D02*
X212693571Y-130627026D01*
X212693571Y-130627026D02*
X212769761Y-130665121D01*
X212769761Y-130665121D02*
X212884047Y-130665121D01*
X212884047Y-130665121D02*
X212960237Y-130627026D01*
X212617380Y-130360360D02*
X212693571Y-130398455D01*
X212693571Y-130398455D02*
X212845952Y-130398455D01*
X212845952Y-130398455D02*
X212922142Y-130360360D01*
X212922142Y-130360360D02*
X212960237Y-130322264D01*
X212960237Y-130322264D02*
X212998333Y-130246074D01*
X212998333Y-130246074D02*
X212998333Y-130017502D01*
X212998333Y-130017502D02*
X212960237Y-129941312D01*
X212960237Y-129941312D02*
X212922142Y-129903217D01*
X212922142Y-129903217D02*
X212845952Y-129865121D01*
X212845952Y-129865121D02*
X212693571Y-129865121D01*
X212693571Y-129865121D02*
X212617380Y-129903217D01*
X211931665Y-130360360D02*
X212007856Y-130398455D01*
X212007856Y-130398455D02*
X212160237Y-130398455D01*
X212160237Y-130398455D02*
X212236427Y-130360360D01*
X212236427Y-130360360D02*
X212274523Y-130284169D01*
X212274523Y-130284169D02*
X212274523Y-129979407D01*
X212274523Y-129979407D02*
X212236427Y-129903217D01*
X212236427Y-129903217D02*
X212160237Y-129865121D01*
X212160237Y-129865121D02*
X212007856Y-129865121D01*
X212007856Y-129865121D02*
X211931665Y-129903217D01*
X211931665Y-129903217D02*
X211893570Y-129979407D01*
X211893570Y-129979407D02*
X211893570Y-130055598D01*
X211893570Y-130055598D02*
X212274523Y-130131788D01*
X240799655Y-129346975D02*
X240799655Y-129194594D01*
X240799655Y-129194594D02*
X240837750Y-129118403D01*
X240837750Y-129118403D02*
X240875845Y-129080308D01*
X240875845Y-129080308D02*
X240990131Y-129004118D01*
X240990131Y-129004118D02*
X241142512Y-128966022D01*
X241142512Y-128966022D02*
X241447274Y-128966022D01*
X241447274Y-128966022D02*
X241523464Y-129004118D01*
X241523464Y-129004118D02*
X241561560Y-129042213D01*
X241561560Y-129042213D02*
X241599655Y-129118403D01*
X241599655Y-129118403D02*
X241599655Y-129270784D01*
X241599655Y-129270784D02*
X241561560Y-129346975D01*
X241561560Y-129346975D02*
X241523464Y-129385070D01*
X241523464Y-129385070D02*
X241447274Y-129423165D01*
X241447274Y-129423165D02*
X241256798Y-129423165D01*
X241256798Y-129423165D02*
X241180607Y-129385070D01*
X241180607Y-129385070D02*
X241142512Y-129346975D01*
X241142512Y-129346975D02*
X241104417Y-129270784D01*
X241104417Y-129270784D02*
X241104417Y-129118403D01*
X241104417Y-129118403D02*
X241142512Y-129042213D01*
X241142512Y-129042213D02*
X241180607Y-129004118D01*
X241180607Y-129004118D02*
X241256798Y-128966022D01*
X236519655Y-129397765D02*
X236519655Y-128940622D01*
X236519655Y-129169194D02*
X235719655Y-129169194D01*
X235719655Y-129169194D02*
X235833940Y-129093003D01*
X235833940Y-129093003D02*
X235910131Y-129016813D01*
X235910131Y-129016813D02*
X235948226Y-128940622D01*
X235719655Y-129893004D02*
X235719655Y-129969194D01*
X235719655Y-129969194D02*
X235757750Y-130045385D01*
X235757750Y-130045385D02*
X235795845Y-130083480D01*
X235795845Y-130083480D02*
X235872036Y-130121575D01*
X235872036Y-130121575D02*
X236024417Y-130159670D01*
X236024417Y-130159670D02*
X236214893Y-130159670D01*
X236214893Y-130159670D02*
X236367274Y-130121575D01*
X236367274Y-130121575D02*
X236443464Y-130083480D01*
X236443464Y-130083480D02*
X236481560Y-130045385D01*
X236481560Y-130045385D02*
X236519655Y-129969194D01*
X236519655Y-129969194D02*
X236519655Y-129893004D01*
X236519655Y-129893004D02*
X236481560Y-129816813D01*
X236481560Y-129816813D02*
X236443464Y-129778718D01*
X236443464Y-129778718D02*
X236367274Y-129740623D01*
X236367274Y-129740623D02*
X236214893Y-129702527D01*
X236214893Y-129702527D02*
X236024417Y-129702527D01*
X236024417Y-129702527D02*
X235872036Y-129740623D01*
X235872036Y-129740623D02*
X235795845Y-129778718D01*
X235795845Y-129778718D02*
X235757750Y-129816813D01*
X235757750Y-129816813D02*
X235719655Y-129893004D01*
X226029483Y-145196622D02*
X226029483Y-145577575D01*
X226258055Y-145120432D02*
X225458055Y-145387099D01*
X225458055Y-145387099D02*
X226258055Y-145653765D01*
X225534245Y-145882336D02*
X225496150Y-145920432D01*
X225496150Y-145920432D02*
X225458055Y-145996622D01*
X225458055Y-145996622D02*
X225458055Y-146187098D01*
X225458055Y-146187098D02*
X225496150Y-146263289D01*
X225496150Y-146263289D02*
X225534245Y-146301384D01*
X225534245Y-146301384D02*
X225610436Y-146339479D01*
X225610436Y-146339479D02*
X225686626Y-146339479D01*
X225686626Y-146339479D02*
X225800912Y-146301384D01*
X225800912Y-146301384D02*
X226258055Y-145844241D01*
X226258055Y-145844241D02*
X226258055Y-146339479D01*
X239008855Y-145006118D02*
X238208855Y-145006118D01*
X238208855Y-145006118D02*
X238780283Y-145272784D01*
X238780283Y-145272784D02*
X238208855Y-145539451D01*
X238208855Y-145539451D02*
X239008855Y-145539451D01*
X238208855Y-146072785D02*
X238208855Y-146225166D01*
X238208855Y-146225166D02*
X238246950Y-146301356D01*
X238246950Y-146301356D02*
X238323140Y-146377547D01*
X238323140Y-146377547D02*
X238475521Y-146415642D01*
X238475521Y-146415642D02*
X238742188Y-146415642D01*
X238742188Y-146415642D02*
X238894569Y-146377547D01*
X238894569Y-146377547D02*
X238970760Y-146301356D01*
X238970760Y-146301356D02*
X239008855Y-146225166D01*
X239008855Y-146225166D02*
X239008855Y-146072785D01*
X239008855Y-146072785D02*
X238970760Y-145996594D01*
X238970760Y-145996594D02*
X238894569Y-145920404D01*
X238894569Y-145920404D02*
X238742188Y-145882308D01*
X238742188Y-145882308D02*
X238475521Y-145882308D01*
X238475521Y-145882308D02*
X238323140Y-145920404D01*
X238323140Y-145920404D02*
X238246950Y-145996594D01*
X238246950Y-145996594D02*
X238208855Y-146072785D01*
D11*
X221269367Y-144112960D02*
X221183653Y-144141531D01*
X221183653Y-144141531D02*
X221040795Y-144141531D01*
X221040795Y-144141531D02*
X220983653Y-144112960D01*
X220983653Y-144112960D02*
X220955081Y-144084388D01*
X220955081Y-144084388D02*
X220926510Y-144027245D01*
X220926510Y-144027245D02*
X220926510Y-143970102D01*
X220926510Y-143970102D02*
X220955081Y-143912960D01*
X220955081Y-143912960D02*
X220983653Y-143884388D01*
X220983653Y-143884388D02*
X221040795Y-143855817D01*
X221040795Y-143855817D02*
X221155081Y-143827245D01*
X221155081Y-143827245D02*
X221212224Y-143798674D01*
X221212224Y-143798674D02*
X221240795Y-143770102D01*
X221240795Y-143770102D02*
X221269367Y-143712960D01*
X221269367Y-143712960D02*
X221269367Y-143655817D01*
X221269367Y-143655817D02*
X221240795Y-143598674D01*
X221240795Y-143598674D02*
X221212224Y-143570102D01*
X221212224Y-143570102D02*
X221155081Y-143541531D01*
X221155081Y-143541531D02*
X221012224Y-143541531D01*
X221012224Y-143541531D02*
X220926510Y-143570102D01*
X220726509Y-143541531D02*
X220583652Y-144141531D01*
X220583652Y-144141531D02*
X220469366Y-143712960D01*
X220469366Y-143712960D02*
X220355081Y-144141531D01*
X220355081Y-144141531D02*
X220212224Y-143541531D01*
X219640795Y-144084388D02*
X219669367Y-144112960D01*
X219669367Y-144112960D02*
X219755081Y-144141531D01*
X219755081Y-144141531D02*
X219812224Y-144141531D01*
X219812224Y-144141531D02*
X219897938Y-144112960D01*
X219897938Y-144112960D02*
X219955081Y-144055817D01*
X219955081Y-144055817D02*
X219983652Y-143998674D01*
X219983652Y-143998674D02*
X220012224Y-143884388D01*
X220012224Y-143884388D02*
X220012224Y-143798674D01*
X220012224Y-143798674D02*
X219983652Y-143684388D01*
X219983652Y-143684388D02*
X219955081Y-143627245D01*
X219955081Y-143627245D02*
X219897938Y-143570102D01*
X219897938Y-143570102D02*
X219812224Y-143541531D01*
X219812224Y-143541531D02*
X219755081Y-143541531D01*
X219755081Y-143541531D02*
X219669367Y-143570102D01*
X219669367Y-143570102D02*
X219640795Y-143598674D01*
X219097938Y-144141531D02*
X219383652Y-144141531D01*
X219383652Y-144141531D02*
X219383652Y-143541531D01*
X218897938Y-144141531D02*
X218897938Y-143541531D01*
X218555081Y-144141531D02*
X218812224Y-143798674D01*
X218555081Y-143541531D02*
X218897938Y-143884388D01*
D10*
X247131777Y-129598360D02*
X247017491Y-129636455D01*
X247017491Y-129636455D02*
X246827015Y-129636455D01*
X246827015Y-129636455D02*
X246750824Y-129598360D01*
X246750824Y-129598360D02*
X246712729Y-129560264D01*
X246712729Y-129560264D02*
X246674634Y-129484074D01*
X246674634Y-129484074D02*
X246674634Y-129407883D01*
X246674634Y-129407883D02*
X246712729Y-129331693D01*
X246712729Y-129331693D02*
X246750824Y-129293598D01*
X246750824Y-129293598D02*
X246827015Y-129255502D01*
X246827015Y-129255502D02*
X246979396Y-129217407D01*
X246979396Y-129217407D02*
X247055586Y-129179312D01*
X247055586Y-129179312D02*
X247093681Y-129141217D01*
X247093681Y-129141217D02*
X247131777Y-129065026D01*
X247131777Y-129065026D02*
X247131777Y-128988836D01*
X247131777Y-128988836D02*
X247093681Y-128912645D01*
X247093681Y-128912645D02*
X247055586Y-128874550D01*
X247055586Y-128874550D02*
X246979396Y-128836455D01*
X246979396Y-128836455D02*
X246788919Y-128836455D01*
X246788919Y-128836455D02*
X246674634Y-128874550D01*
X245874633Y-129560264D02*
X245912729Y-129598360D01*
X245912729Y-129598360D02*
X246027014Y-129636455D01*
X246027014Y-129636455D02*
X246103205Y-129636455D01*
X246103205Y-129636455D02*
X246217491Y-129598360D01*
X246217491Y-129598360D02*
X246293681Y-129522169D01*
X246293681Y-129522169D02*
X246331776Y-129445979D01*
X246331776Y-129445979D02*
X246369872Y-129293598D01*
X246369872Y-129293598D02*
X246369872Y-129179312D01*
X246369872Y-129179312D02*
X246331776Y-129026931D01*
X246331776Y-129026931D02*
X246293681Y-128950740D01*
X246293681Y-128950740D02*
X246217491Y-128874550D01*
X246217491Y-128874550D02*
X246103205Y-128836455D01*
X246103205Y-128836455D02*
X246027014Y-128836455D01*
X246027014Y-128836455D02*
X245912729Y-128874550D01*
X245912729Y-128874550D02*
X245874633Y-128912645D01*
X245150824Y-129636455D02*
X245531776Y-129636455D01*
X245531776Y-129636455D02*
X245531776Y-128836455D01*
D12*
X229618277Y-131781408D02*
X229237325Y-131781408D01*
X229475420Y-132448075D02*
X229475420Y-131590932D01*
X229475420Y-131590932D02*
X229427801Y-131495694D01*
X229427801Y-131495694D02*
X229332563Y-131448075D01*
X229332563Y-131448075D02*
X229237325Y-131448075D01*
X228523039Y-132400456D02*
X228618277Y-132448075D01*
X228618277Y-132448075D02*
X228808753Y-132448075D01*
X228808753Y-132448075D02*
X228903991Y-132400456D01*
X228903991Y-132400456D02*
X228951610Y-132305217D01*
X228951610Y-132305217D02*
X228951610Y-131924265D01*
X228951610Y-131924265D02*
X228903991Y-131829027D01*
X228903991Y-131829027D02*
X228808753Y-131781408D01*
X228808753Y-131781408D02*
X228618277Y-131781408D01*
X228618277Y-131781408D02*
X228523039Y-131829027D01*
X228523039Y-131829027D02*
X228475420Y-131924265D01*
X228475420Y-131924265D02*
X228475420Y-132019503D01*
X228475420Y-132019503D02*
X228951610Y-132114741D01*
X227618277Y-132448075D02*
X227618277Y-131924265D01*
X227618277Y-131924265D02*
X227665896Y-131829027D01*
X227665896Y-131829027D02*
X227761134Y-131781408D01*
X227761134Y-131781408D02*
X227951610Y-131781408D01*
X227951610Y-131781408D02*
X228046848Y-131829027D01*
X227618277Y-132400456D02*
X227713515Y-132448075D01*
X227713515Y-132448075D02*
X227951610Y-132448075D01*
X227951610Y-132448075D02*
X228046848Y-132400456D01*
X228046848Y-132400456D02*
X228094467Y-132305217D01*
X228094467Y-132305217D02*
X228094467Y-132209979D01*
X228094467Y-132209979D02*
X228046848Y-132114741D01*
X228046848Y-132114741D02*
X227951610Y-132067122D01*
X227951610Y-132067122D02*
X227713515Y-132067122D01*
X227713515Y-132067122D02*
X227618277Y-132019503D01*
X227284943Y-131781408D02*
X226903991Y-131781408D01*
X227142086Y-131448075D02*
X227142086Y-132305217D01*
X227142086Y-132305217D02*
X227094467Y-132400456D01*
X227094467Y-132400456D02*
X226999229Y-132448075D01*
X226999229Y-132448075D02*
X226903991Y-132448075D01*
X226570657Y-132448075D02*
X226570657Y-131448075D01*
X226142086Y-132448075D02*
X226142086Y-131924265D01*
X226142086Y-131924265D02*
X226189705Y-131829027D01*
X226189705Y-131829027D02*
X226284943Y-131781408D01*
X226284943Y-131781408D02*
X226427800Y-131781408D01*
X226427800Y-131781408D02*
X226523038Y-131829027D01*
X226523038Y-131829027D02*
X226570657Y-131876646D01*
X225284943Y-132400456D02*
X225380181Y-132448075D01*
X225380181Y-132448075D02*
X225570657Y-132448075D01*
X225570657Y-132448075D02*
X225665895Y-132400456D01*
X225665895Y-132400456D02*
X225713514Y-132305217D01*
X225713514Y-132305217D02*
X225713514Y-131924265D01*
X225713514Y-131924265D02*
X225665895Y-131829027D01*
X225665895Y-131829027D02*
X225570657Y-131781408D01*
X225570657Y-131781408D02*
X225380181Y-131781408D01*
X225380181Y-131781408D02*
X225284943Y-131829027D01*
X225284943Y-131829027D02*
X225237324Y-131924265D01*
X225237324Y-131924265D02*
X225237324Y-132019503D01*
X225237324Y-132019503D02*
X225713514Y-132114741D01*
X224808752Y-132448075D02*
X224808752Y-131781408D01*
X224808752Y-131971884D02*
X224761133Y-131876646D01*
X224761133Y-131876646D02*
X224713514Y-131829027D01*
X224713514Y-131829027D02*
X224618276Y-131781408D01*
X224618276Y-131781408D02*
X224523038Y-131781408D01*
X223427799Y-132448075D02*
X223427799Y-131448075D01*
X223427799Y-131448075D02*
X223094466Y-132162360D01*
X223094466Y-132162360D02*
X222761133Y-131448075D01*
X222761133Y-131448075D02*
X222761133Y-132448075D01*
X221856371Y-131781408D02*
X221856371Y-132448075D01*
X222094466Y-131400456D02*
X222332561Y-132114741D01*
X222332561Y-132114741D02*
X221713514Y-132114741D01*
X220189704Y-132400456D02*
X220284942Y-132448075D01*
X220284942Y-132448075D02*
X220475418Y-132448075D01*
X220475418Y-132448075D02*
X220570656Y-132400456D01*
X220570656Y-132400456D02*
X220618275Y-132305217D01*
X220618275Y-132305217D02*
X220618275Y-131924265D01*
X220618275Y-131924265D02*
X220570656Y-131829027D01*
X220570656Y-131829027D02*
X220475418Y-131781408D01*
X220475418Y-131781408D02*
X220284942Y-131781408D01*
X220284942Y-131781408D02*
X220189704Y-131829027D01*
X220189704Y-131829027D02*
X220142085Y-131924265D01*
X220142085Y-131924265D02*
X220142085Y-132019503D01*
X220142085Y-132019503D02*
X220618275Y-132114741D01*
X219808751Y-132448075D02*
X219284942Y-131781408D01*
X219808751Y-131781408D02*
X219284942Y-132448075D01*
X218903989Y-131781408D02*
X218903989Y-132781408D01*
X218903989Y-131829027D02*
X218808751Y-131781408D01*
X218808751Y-131781408D02*
X218618275Y-131781408D01*
X218618275Y-131781408D02*
X218523037Y-131829027D01*
X218523037Y-131829027D02*
X218475418Y-131876646D01*
X218475418Y-131876646D02*
X218427799Y-131971884D01*
X218427799Y-131971884D02*
X218427799Y-132257598D01*
X218427799Y-132257598D02*
X218475418Y-132352836D01*
X218475418Y-132352836D02*
X218523037Y-132400456D01*
X218523037Y-132400456D02*
X218618275Y-132448075D01*
X218618275Y-132448075D02*
X218808751Y-132448075D01*
X218808751Y-132448075D02*
X218903989Y-132400456D01*
X217999227Y-132448075D02*
X217999227Y-131781408D01*
X217999227Y-131971884D02*
X217951608Y-131876646D01*
X217951608Y-131876646D02*
X217903989Y-131829027D01*
X217903989Y-131829027D02*
X217808751Y-131781408D01*
X217808751Y-131781408D02*
X217713513Y-131781408D01*
X216999227Y-132400456D02*
X217094465Y-132448075D01*
X217094465Y-132448075D02*
X217284941Y-132448075D01*
X217284941Y-132448075D02*
X217380179Y-132400456D01*
X217380179Y-132400456D02*
X217427798Y-132305217D01*
X217427798Y-132305217D02*
X217427798Y-131924265D01*
X217427798Y-131924265D02*
X217380179Y-131829027D01*
X217380179Y-131829027D02*
X217284941Y-131781408D01*
X217284941Y-131781408D02*
X217094465Y-131781408D01*
X217094465Y-131781408D02*
X216999227Y-131829027D01*
X216999227Y-131829027D02*
X216951608Y-131924265D01*
X216951608Y-131924265D02*
X216951608Y-132019503D01*
X216951608Y-132019503D02*
X217427798Y-132114741D01*
X216570655Y-132400456D02*
X216475417Y-132448075D01*
X216475417Y-132448075D02*
X216284941Y-132448075D01*
X216284941Y-132448075D02*
X216189703Y-132400456D01*
X216189703Y-132400456D02*
X216142084Y-132305217D01*
X216142084Y-132305217D02*
X216142084Y-132257598D01*
X216142084Y-132257598D02*
X216189703Y-132162360D01*
X216189703Y-132162360D02*
X216284941Y-132114741D01*
X216284941Y-132114741D02*
X216427798Y-132114741D01*
X216427798Y-132114741D02*
X216523036Y-132067122D01*
X216523036Y-132067122D02*
X216570655Y-131971884D01*
X216570655Y-131971884D02*
X216570655Y-131924265D01*
X216570655Y-131924265D02*
X216523036Y-131829027D01*
X216523036Y-131829027D02*
X216427798Y-131781408D01*
X216427798Y-131781408D02*
X216284941Y-131781408D01*
X216284941Y-131781408D02*
X216189703Y-131829027D01*
X215761131Y-132400456D02*
X215665893Y-132448075D01*
X215665893Y-132448075D02*
X215475417Y-132448075D01*
X215475417Y-132448075D02*
X215380179Y-132400456D01*
X215380179Y-132400456D02*
X215332560Y-132305217D01*
X215332560Y-132305217D02*
X215332560Y-132257598D01*
X215332560Y-132257598D02*
X215380179Y-132162360D01*
X215380179Y-132162360D02*
X215475417Y-132114741D01*
X215475417Y-132114741D02*
X215618274Y-132114741D01*
X215618274Y-132114741D02*
X215713512Y-132067122D01*
X215713512Y-132067122D02*
X215761131Y-131971884D01*
X215761131Y-131971884D02*
X215761131Y-131924265D01*
X215761131Y-131924265D02*
X215713512Y-131829027D01*
X215713512Y-131829027D02*
X215618274Y-131781408D01*
X215618274Y-131781408D02*
X215475417Y-131781408D01*
X215475417Y-131781408D02*
X215380179Y-131829027D01*
X225499228Y-134438971D02*
X225546847Y-134391352D01*
X225546847Y-134391352D02*
X225642085Y-134248495D01*
X225642085Y-134248495D02*
X225689704Y-134153257D01*
X225689704Y-134153257D02*
X225737323Y-134010400D01*
X225737323Y-134010400D02*
X225784942Y-133772304D01*
X225784942Y-133772304D02*
X225784942Y-133581828D01*
X225784942Y-133581828D02*
X225737323Y-133343733D01*
X225737323Y-133343733D02*
X225689704Y-133200876D01*
X225689704Y-133200876D02*
X225642085Y-133105638D01*
X225642085Y-133105638D02*
X225546847Y-132962780D01*
X225546847Y-132962780D02*
X225499228Y-132915161D01*
X225118275Y-134058019D02*
X225118275Y-133391352D01*
X225118275Y-133581828D02*
X225070656Y-133486590D01*
X225070656Y-133486590D02*
X225023037Y-133438971D01*
X225023037Y-133438971D02*
X224927799Y-133391352D01*
X224927799Y-133391352D02*
X224832561Y-133391352D01*
X224118275Y-134010400D02*
X224213513Y-134058019D01*
X224213513Y-134058019D02*
X224403989Y-134058019D01*
X224403989Y-134058019D02*
X224499227Y-134010400D01*
X224499227Y-134010400D02*
X224546846Y-133915161D01*
X224546846Y-133915161D02*
X224546846Y-133534209D01*
X224546846Y-133534209D02*
X224499227Y-133438971D01*
X224499227Y-133438971D02*
X224403989Y-133391352D01*
X224403989Y-133391352D02*
X224213513Y-133391352D01*
X224213513Y-133391352D02*
X224118275Y-133438971D01*
X224118275Y-133438971D02*
X224070656Y-133534209D01*
X224070656Y-133534209D02*
X224070656Y-133629447D01*
X224070656Y-133629447D02*
X224546846Y-133724685D01*
X223737322Y-133391352D02*
X223499227Y-134058019D01*
X223499227Y-134058019D02*
X223261132Y-133391352D01*
X222880179Y-133962780D02*
X222832560Y-134010400D01*
X222832560Y-134010400D02*
X222880179Y-134058019D01*
X222880179Y-134058019D02*
X222927798Y-134010400D01*
X222927798Y-134010400D02*
X222880179Y-133962780D01*
X222880179Y-133962780D02*
X222880179Y-134058019D01*
X221451608Y-133058019D02*
X221356370Y-133058019D01*
X221356370Y-133058019D02*
X221261132Y-133105638D01*
X221261132Y-133105638D02*
X221213513Y-133153257D01*
X221213513Y-133153257D02*
X221165894Y-133248495D01*
X221165894Y-133248495D02*
X221118275Y-133438971D01*
X221118275Y-133438971D02*
X221118275Y-133677066D01*
X221118275Y-133677066D02*
X221165894Y-133867542D01*
X221165894Y-133867542D02*
X221213513Y-133962780D01*
X221213513Y-133962780D02*
X221261132Y-134010400D01*
X221261132Y-134010400D02*
X221356370Y-134058019D01*
X221356370Y-134058019D02*
X221451608Y-134058019D01*
X221451608Y-134058019D02*
X221546846Y-134010400D01*
X221546846Y-134010400D02*
X221594465Y-133962780D01*
X221594465Y-133962780D02*
X221642084Y-133867542D01*
X221642084Y-133867542D02*
X221689703Y-133677066D01*
X221689703Y-133677066D02*
X221689703Y-133438971D01*
X221689703Y-133438971D02*
X221642084Y-133248495D01*
X221642084Y-133248495D02*
X221594465Y-133153257D01*
X221594465Y-133153257D02*
X221546846Y-133105638D01*
X221546846Y-133105638D02*
X221451608Y-133058019D01*
X220689703Y-133962780D02*
X220642084Y-134010400D01*
X220642084Y-134010400D02*
X220689703Y-134058019D01*
X220689703Y-134058019D02*
X220737322Y-134010400D01*
X220737322Y-134010400D02*
X220689703Y-133962780D01*
X220689703Y-133962780D02*
X220689703Y-134058019D01*
X219689704Y-134058019D02*
X220261132Y-134058019D01*
X219975418Y-134058019D02*
X219975418Y-133058019D01*
X219975418Y-133058019D02*
X220070656Y-133200876D01*
X220070656Y-133200876D02*
X220165894Y-133296114D01*
X220165894Y-133296114D02*
X220261132Y-133343733D01*
X219356370Y-134438971D02*
X219308751Y-134391352D01*
X219308751Y-134391352D02*
X219213513Y-134248495D01*
X219213513Y-134248495D02*
X219165894Y-134153257D01*
X219165894Y-134153257D02*
X219118275Y-134010400D01*
X219118275Y-134010400D02*
X219070656Y-133772304D01*
X219070656Y-133772304D02*
X219070656Y-133581828D01*
X219070656Y-133581828D02*
X219118275Y-133343733D01*
X219118275Y-133343733D02*
X219165894Y-133200876D01*
X219165894Y-133200876D02*
X219213513Y-133105638D01*
X219213513Y-133105638D02*
X219308751Y-132962780D01*
X219308751Y-132962780D02*
X219356370Y-132915161D01*
D10*
X243842538Y-146349655D02*
X244109205Y-145968702D01*
X244299681Y-146349655D02*
X244299681Y-145549655D01*
X244299681Y-145549655D02*
X243994919Y-145549655D01*
X243994919Y-145549655D02*
X243918729Y-145587750D01*
X243918729Y-145587750D02*
X243880634Y-145625845D01*
X243880634Y-145625845D02*
X243842538Y-145702036D01*
X243842538Y-145702036D02*
X243842538Y-145816321D01*
X243842538Y-145816321D02*
X243880634Y-145892512D01*
X243880634Y-145892512D02*
X243918729Y-145930607D01*
X243918729Y-145930607D02*
X243994919Y-145968702D01*
X243994919Y-145968702D02*
X244299681Y-145968702D01*
X243575872Y-145549655D02*
X243042538Y-146349655D01*
X243042538Y-145549655D02*
X243575872Y-146349655D01*
X241675855Y-145437918D02*
X240875855Y-145437918D01*
X240875855Y-145437918D02*
X241447283Y-145704584D01*
X241447283Y-145704584D02*
X240875855Y-145971251D01*
X240875855Y-145971251D02*
X241675855Y-145971251D01*
X241675855Y-146352204D02*
X240875855Y-146352204D01*
X249773377Y-129598360D02*
X249659091Y-129636455D01*
X249659091Y-129636455D02*
X249468615Y-129636455D01*
X249468615Y-129636455D02*
X249392424Y-129598360D01*
X249392424Y-129598360D02*
X249354329Y-129560264D01*
X249354329Y-129560264D02*
X249316234Y-129484074D01*
X249316234Y-129484074D02*
X249316234Y-129407883D01*
X249316234Y-129407883D02*
X249354329Y-129331693D01*
X249354329Y-129331693D02*
X249392424Y-129293598D01*
X249392424Y-129293598D02*
X249468615Y-129255502D01*
X249468615Y-129255502D02*
X249620996Y-129217407D01*
X249620996Y-129217407D02*
X249697186Y-129179312D01*
X249697186Y-129179312D02*
X249735281Y-129141217D01*
X249735281Y-129141217D02*
X249773377Y-129065026D01*
X249773377Y-129065026D02*
X249773377Y-128988836D01*
X249773377Y-128988836D02*
X249735281Y-128912645D01*
X249735281Y-128912645D02*
X249697186Y-128874550D01*
X249697186Y-128874550D02*
X249620996Y-128836455D01*
X249620996Y-128836455D02*
X249430519Y-128836455D01*
X249430519Y-128836455D02*
X249316234Y-128874550D01*
X248973376Y-129636455D02*
X248973376Y-128836455D01*
X248973376Y-128836455D02*
X248782900Y-128836455D01*
X248782900Y-128836455D02*
X248668614Y-128874550D01*
X248668614Y-128874550D02*
X248592424Y-128950740D01*
X248592424Y-128950740D02*
X248554329Y-129026931D01*
X248554329Y-129026931D02*
X248516233Y-129179312D01*
X248516233Y-129179312D02*
X248516233Y-129293598D01*
X248516233Y-129293598D02*
X248554329Y-129445979D01*
X248554329Y-129445979D02*
X248592424Y-129522169D01*
X248592424Y-129522169D02*
X248668614Y-129598360D01*
X248668614Y-129598360D02*
X248782900Y-129636455D01*
X248782900Y-129636455D02*
X248973376Y-129636455D01*
X248211472Y-129407883D02*
X247830519Y-129407883D01*
X248287662Y-129636455D02*
X248020995Y-128836455D01*
X248020995Y-128836455D02*
X247754329Y-129636455D01*
X249278081Y-146375055D02*
X249278081Y-145575055D01*
X249278081Y-145575055D02*
X249087605Y-145575055D01*
X249087605Y-145575055D02*
X248973319Y-145613150D01*
X248973319Y-145613150D02*
X248897129Y-145689340D01*
X248897129Y-145689340D02*
X248859034Y-145765531D01*
X248859034Y-145765531D02*
X248820938Y-145917912D01*
X248820938Y-145917912D02*
X248820938Y-146032198D01*
X248820938Y-146032198D02*
X248859034Y-146184579D01*
X248859034Y-146184579D02*
X248897129Y-146260769D01*
X248897129Y-146260769D02*
X248973319Y-146336960D01*
X248973319Y-146336960D02*
X249087605Y-146375055D01*
X249087605Y-146375055D02*
X249278081Y-146375055D01*
X248135224Y-145841721D02*
X248135224Y-146375055D01*
X248325700Y-145536960D02*
X248516177Y-146108388D01*
X248516177Y-146108388D02*
X248020938Y-146108388D01*
X239034255Y-128991413D02*
X239034255Y-129143794D01*
X239034255Y-129143794D02*
X238996160Y-129219984D01*
X238996160Y-129219984D02*
X238958064Y-129258080D01*
X238958064Y-129258080D02*
X238843779Y-129334270D01*
X238843779Y-129334270D02*
X238691398Y-129372365D01*
X238691398Y-129372365D02*
X238386636Y-129372365D01*
X238386636Y-129372365D02*
X238310445Y-129334270D01*
X238310445Y-129334270D02*
X238272350Y-129296175D01*
X238272350Y-129296175D02*
X238234255Y-129219984D01*
X238234255Y-129219984D02*
X238234255Y-129067603D01*
X238234255Y-129067603D02*
X238272350Y-128991413D01*
X238272350Y-128991413D02*
X238310445Y-128953318D01*
X238310445Y-128953318D02*
X238386636Y-128915222D01*
X238386636Y-128915222D02*
X238577112Y-128915222D01*
X238577112Y-128915222D02*
X238653302Y-128953318D01*
X238653302Y-128953318D02*
X238691398Y-128991413D01*
X238691398Y-128991413D02*
X238729493Y-129067603D01*
X238729493Y-129067603D02*
X238729493Y-129219984D01*
X238729493Y-129219984D02*
X238691398Y-129296175D01*
X238691398Y-129296175D02*
X238653302Y-129334270D01*
X238653302Y-129334270D02*
X238577112Y-129372365D01*
X211127281Y-140152055D02*
X211127281Y-139352055D01*
X211127281Y-139352055D02*
X210936805Y-139352055D01*
X210936805Y-139352055D02*
X210822519Y-139390150D01*
X210822519Y-139390150D02*
X210746329Y-139466340D01*
X210746329Y-139466340D02*
X210708234Y-139542531D01*
X210708234Y-139542531D02*
X210670138Y-139694912D01*
X210670138Y-139694912D02*
X210670138Y-139809198D01*
X210670138Y-139809198D02*
X210708234Y-139961579D01*
X210708234Y-139961579D02*
X210746329Y-140037769D01*
X210746329Y-140037769D02*
X210822519Y-140113960D01*
X210822519Y-140113960D02*
X210936805Y-140152055D01*
X210936805Y-140152055D02*
X211127281Y-140152055D01*
X210327281Y-139847293D02*
X209717758Y-139847293D01*
X210022519Y-140152055D02*
X210022519Y-139542531D01*
X211127281Y-135757855D02*
X211127281Y-134957855D01*
X211127281Y-134957855D02*
X210936805Y-134957855D01*
X210936805Y-134957855D02*
X210822519Y-134995950D01*
X210822519Y-134995950D02*
X210746329Y-135072140D01*
X210746329Y-135072140D02*
X210708234Y-135148331D01*
X210708234Y-135148331D02*
X210670138Y-135300712D01*
X210670138Y-135300712D02*
X210670138Y-135414998D01*
X210670138Y-135414998D02*
X210708234Y-135567379D01*
X210708234Y-135567379D02*
X210746329Y-135643569D01*
X210746329Y-135643569D02*
X210822519Y-135719760D01*
X210822519Y-135719760D02*
X210936805Y-135757855D01*
X210936805Y-135757855D02*
X211127281Y-135757855D01*
X210327281Y-135453093D02*
X209717758Y-135453093D01*
X210967255Y-145412461D02*
X210586302Y-145145794D01*
X210967255Y-144955318D02*
X210167255Y-144955318D01*
X210167255Y-144955318D02*
X210167255Y-145260080D01*
X210167255Y-145260080D02*
X210205350Y-145336270D01*
X210205350Y-145336270D02*
X210243445Y-145374365D01*
X210243445Y-145374365D02*
X210319636Y-145412461D01*
X210319636Y-145412461D02*
X210433921Y-145412461D01*
X210433921Y-145412461D02*
X210510112Y-145374365D01*
X210510112Y-145374365D02*
X210548207Y-145336270D01*
X210548207Y-145336270D02*
X210586302Y-145260080D01*
X210586302Y-145260080D02*
X210586302Y-144955318D01*
X210929160Y-145717222D02*
X210967255Y-145793413D01*
X210967255Y-145793413D02*
X210967255Y-145945794D01*
X210967255Y-145945794D02*
X210929160Y-146021984D01*
X210929160Y-146021984D02*
X210852969Y-146060080D01*
X210852969Y-146060080D02*
X210814874Y-146060080D01*
X210814874Y-146060080D02*
X210738683Y-146021984D01*
X210738683Y-146021984D02*
X210700588Y-145945794D01*
X210700588Y-145945794D02*
X210700588Y-145831508D01*
X210700588Y-145831508D02*
X210662493Y-145755318D01*
X210662493Y-145755318D02*
X210586302Y-145717222D01*
X210586302Y-145717222D02*
X210548207Y-145717222D01*
X210548207Y-145717222D02*
X210472017Y-145755318D01*
X210472017Y-145755318D02*
X210433921Y-145831508D01*
X210433921Y-145831508D02*
X210433921Y-145945794D01*
X210433921Y-145945794D02*
X210472017Y-146021984D01*
X210433921Y-146288651D02*
X210433921Y-146593413D01*
X210167255Y-146402937D02*
X210852969Y-146402937D01*
X210852969Y-146402937D02*
X210929160Y-146441032D01*
X210929160Y-146441032D02*
X210967255Y-146517222D01*
X210967255Y-146517222D02*
X210967255Y-146593413D01*
D13*
%TO.C,TP2*%
X226196400Y-143789400D02*
G75*
G02*
X224196400Y-143789400I-1000000J0D01*
G01*
X224196400Y-143789400D02*
G75*
G02*
X226196400Y-143789400I1000000J0D01*
G01*
%TO.C,TP1*%
X223859600Y-143865600D02*
G75*
G02*
X221859600Y-143865600I-1000000J0D01*
G01*
X221859600Y-143865600D02*
G75*
G02*
X223859600Y-143865600I1000000J0D01*
G01*
%TO.C,SJ1*%
X213017100Y-145199100D02*
X213017100Y-146723100D01*
X213271100Y-144945100D02*
X216065100Y-144945100D01*
X216065100Y-146977100D02*
X213271100Y-146977100D01*
X216319100Y-145199100D02*
X216319100Y-146723100D01*
X213017100Y-145199100D02*
G75*
G02*
X213271100Y-144945100I254000J0D01*
G01*
X213271100Y-146977100D02*
G75*
G02*
X213017100Y-146723100I0J254000D01*
G01*
X216065100Y-144945100D02*
G75*
G02*
X216319100Y-145199100I0J-254000D01*
G01*
X216319100Y-146723100D02*
G75*
G02*
X216065100Y-146977100I-254000J0D01*
G01*
%TD*%
M02*
