%TF.GenerationSoftware,KiCad,Pcbnew,8.0.4-8.0.4-0~ubuntu22.04.1*%
%TF.CreationDate,2024-08-18T15:20:42-07:00*%
%TF.ProjectId,feather_M4_express,66656174-6865-4725-9f4d-345f65787072,rev?*%
%TF.SameCoordinates,Original*%
%TF.FileFunction,Copper,L4,Bot*%
%TF.FilePolarity,Positive*%
%FSLAX46Y46*%
G04 Gerber Fmt 4.6, Leading zero omitted, Abs format (unit mm)*
G04 Created by KiCad (PCBNEW 8.0.4-8.0.4-0~ubuntu22.04.1) date 2024-08-18 15:20:42*
%MOMM*%
%LPD*%
G01*
G04 APERTURE LIST*
G04 Aperture macros list*
%AMRoundRect*
0 Rectangle with rounded corners*
0 $1 Rounding radius*
0 $2 $3 $4 $5 $6 $7 $8 $9 X,Y pos of 4 corners*
0 Add a 4 corners polygon primitive as box body*
4,1,4,$2,$3,$4,$5,$6,$7,$8,$9,$2,$3,0*
0 Add four circle primitives for the rounded corners*
1,1,$1+$1,$2,$3*
1,1,$1+$1,$4,$5*
1,1,$1+$1,$6,$7*
1,1,$1+$1,$8,$9*
0 Add four rect primitives between the rounded corners*
20,1,$1+$1,$2,$3,$4,$5,0*
20,1,$1+$1,$4,$5,$6,$7,0*
20,1,$1+$1,$6,$7,$8,$9,0*
20,1,$1+$1,$8,$9,$2,$3,0*%
G04 Aperture macros list end*
%TA.AperFunction,ComponentPad*%
%ADD10O,1.550000X0.890000*%
%TD*%
%TA.AperFunction,ComponentPad*%
%ADD11O,0.950000X1.250000*%
%TD*%
%TA.AperFunction,ComponentPad*%
%ADD12C,3.200000*%
%TD*%
%TA.AperFunction,ComponentPad*%
%ADD13C,1.676400*%
%TD*%
%TA.AperFunction,SMDPad,CuDef*%
%ADD14RoundRect,0.750000X0.000010X0.000010X-0.000010X0.000010X-0.000010X-0.000010X0.000010X-0.000010X0*%
%TD*%
%TA.AperFunction,SMDPad,CuDef*%
%ADD15RoundRect,0.635000X0.000010X0.000010X-0.000010X0.000010X-0.000010X-0.000010X0.000010X-0.000010X0*%
%TD*%
%TA.AperFunction,SMDPad,CuDef*%
%ADD16R,1.168400X1.600200*%
%TD*%
%TA.AperFunction,SMDPad,CuDef*%
%ADD17R,0.635000X0.203200*%
%TD*%
%TA.AperFunction,ViaPad*%
%ADD18C,0.800000*%
%TD*%
%TA.AperFunction,ViaPad*%
%ADD19C,0.800100*%
%TD*%
%TA.AperFunction,ViaPad*%
%ADD20C,0.806400*%
%TD*%
%TA.AperFunction,Conductor*%
%ADD21C,0.254000*%
%TD*%
%TA.AperFunction,Conductor*%
%ADD22C,0.250000*%
%TD*%
%TA.AperFunction,Conductor*%
%ADD23C,0.304800*%
%TD*%
G04 APERTURE END LIST*
D10*
%TO.P,X3,6,Shield*%
%TO.N,GND*%
X206298800Y-134138200D03*
D11*
X208998800Y-135138200D03*
X208998800Y-140138200D03*
D10*
X206298800Y-141138200D03*
%TD*%
D12*
%TO.P,U$32,P$1*%
%TO.N,N/C*%
X206857600Y-146532600D03*
%TD*%
D13*
%TO.P,JP1,1,Pin_1*%
%TO.N,/D4*%
X248767600Y-147802600D03*
%TO.P,JP1,2,Pin_2*%
%TO.N,/TX_D1*%
X246227600Y-147802600D03*
%TO.P,JP1,3,Pin_3*%
%TO.N,/RX_D0*%
X243687600Y-147802600D03*
%TO.P,JP1,4,Pin_4*%
%TO.N,/MISO*%
X241147600Y-147802600D03*
%TO.P,JP1,5,Pin_5*%
%TO.N,/MOSI*%
X238607600Y-147802600D03*
%TO.P,JP1,6,Pin_6*%
%TO.N,/SCK*%
X236067600Y-147802600D03*
%TO.P,JP1,7,Pin_7*%
%TO.N,/A5*%
X233527600Y-147802600D03*
%TO.P,JP1,8,Pin_8*%
%TO.N,/A4*%
X230987600Y-147802600D03*
%TO.P,JP1,9,Pin_9*%
%TO.N,/A3*%
X228447600Y-147802600D03*
%TO.P,JP1,10,Pin_10*%
%TO.N,/A2*%
X225907600Y-147802600D03*
%TO.P,JP1,11,Pin_11*%
%TO.N,/A1*%
X223367600Y-147802600D03*
%TO.P,JP1,12,Pin_12*%
%TO.N,/A0*%
X220827600Y-147802600D03*
%TO.P,JP1,13,Pin_13*%
%TO.N,GND*%
X218287600Y-147802600D03*
%TO.P,JP1,14,Pin_14*%
%TO.N,/AREF*%
X215747600Y-147802600D03*
%TO.P,JP1,15,Pin_15*%
%TO.N,+3V3*%
X213207600Y-147802600D03*
%TO.P,JP1,16,Pin_16*%
%TO.N,/~{RESET}*%
X210667600Y-147802600D03*
%TD*%
D12*
%TO.P,P$2,P$1*%
%TO.N,N/C*%
X206883000Y-128778000D03*
%TD*%
D13*
%TO.P,JP3,1,Pin_1*%
%TO.N,VBAT*%
X220827600Y-127482600D03*
%TO.P,JP3,2,Pin_2*%
%TO.N,/EN*%
X223367600Y-127482600D03*
%TO.P,JP3,3,Pin_3*%
%TO.N,VBUS*%
X225907600Y-127482600D03*
%TO.P,JP3,4,Pin_4*%
%TO.N,/D13*%
X228447600Y-127482600D03*
%TO.P,JP3,5,Pin_5*%
%TO.N,/D12*%
X230987600Y-127482600D03*
%TO.P,JP3,6,Pin_6*%
%TO.N,/D11*%
X233527600Y-127482600D03*
%TO.P,JP3,7,Pin_7*%
%TO.N,/D10*%
X236067600Y-127482600D03*
%TO.P,JP3,8,Pin_8*%
%TO.N,/D9*%
X238607600Y-127482600D03*
%TO.P,JP3,9,Pin_9*%
%TO.N,/D6*%
X241147600Y-127482600D03*
%TO.P,JP3,10,Pin_10*%
%TO.N,/D5*%
X243687600Y-127482600D03*
%TO.P,JP3,11,Pin_11*%
%TO.N,/SCL*%
X246227600Y-127482600D03*
%TO.P,JP3,12,Pin_12*%
%TO.N,/SDA*%
X248767600Y-127482600D03*
%TD*%
D12*
%TO.P,P$1,P$1*%
%TO.N,N/C*%
X206857600Y-146507200D03*
%TD*%
D14*
%TO.P,TP2,P$1,P$1*%
%TO.N,/SWDIO*%
X225196400Y-143789400D03*
%TD*%
D15*
%TO.P,TP4,TP,TP*%
%TO.N,/D-*%
X209651600Y-136626600D03*
%TD*%
D14*
%TO.P,TP1,P$1,P$1*%
%TO.N,/SWCLK*%
X222859600Y-143865600D03*
%TD*%
D15*
%TO.P,TP3,TP,TP*%
%TO.N,/D+*%
X209651600Y-138658600D03*
%TD*%
D16*
%TO.P,SJ1,1,1*%
%TO.N,/AREF*%
X215430100Y-145961100D03*
%TO.P,SJ1,2,2*%
%TO.N,+3V3*%
X213906100Y-145961100D03*
D17*
%TO.P,SJ1,WIRE*%
%TO.N,N/C*%
X214668100Y-145961100D03*
%TD*%
D18*
%TO.N,GND*%
X227100466Y-135711336D03*
X220167200Y-143383900D03*
X210235800Y-141732200D03*
X247675400Y-144551400D03*
X230269300Y-136771900D03*
X223596200Y-130086000D03*
X233486400Y-142163800D03*
X217449400Y-133705600D03*
X220726000Y-133985000D03*
X217119200Y-141706600D03*
X249758200Y-142671800D03*
X238007600Y-138734800D03*
X219202000Y-133985000D03*
X241147600Y-133383300D03*
X231213400Y-133779000D03*
X240096600Y-133357900D03*
X222589210Y-142498256D03*
X227914200Y-129387600D03*
%TO.N,/~{RESET}*%
X230225600Y-135763000D03*
D19*
X214668100Y-143548100D03*
D18*
%TO.N,+3V3*%
X242038356Y-130647647D03*
X230248700Y-137771900D03*
X246167554Y-140085536D03*
X234197600Y-141376400D03*
D19*
X219955213Y-142231213D03*
D18*
X237972600Y-139771900D03*
X221640400Y-129971800D03*
X238007600Y-142138400D03*
X237744000Y-134366000D03*
D19*
X224510599Y-139928599D03*
D18*
X243865400Y-139446000D03*
X242265200Y-129860600D03*
X229209600Y-133451600D03*
%TO.N,/AREF*%
X231343200Y-141173200D03*
%TO.N,VBAT*%
X215007198Y-138150600D03*
X220751400Y-140182600D03*
D19*
%TO.N,VBUS*%
X216827100Y-129959100D03*
D18*
X214296700Y-136855200D03*
X219075000Y-136855200D03*
D20*
%TO.N,/A1*%
X232246630Y-146496230D03*
D18*
%TO.N,/D4*%
X241579400Y-134544900D03*
%TO.N,/MOSI*%
X233324400Y-135382000D03*
D20*
%TO.N,/TX_D1*%
X235733746Y-129467454D03*
%TO.N,/RX_D0*%
X234943600Y-130276600D03*
%TO.N,/MISO*%
X232562400Y-134543800D03*
%TO.N,/SCK*%
X238426600Y-145492700D03*
D18*
X236728000Y-133908800D03*
%TO.N,/A0*%
X231698800Y-142113000D03*
D19*
%TO.N,/D13*%
X208889600Y-126911100D03*
%TO.N,/EN*%
X224332800Y-134823200D03*
X221767400Y-140123948D03*
X224663000Y-132638800D03*
%TO.N,/D8_NEOPIX*%
X221589600Y-142468600D03*
D18*
X230225600Y-141746600D03*
D20*
%TO.N,/QSPI_CS*%
X241376200Y-143052800D03*
D18*
X241528600Y-138252200D03*
%TO.N,/V_DIV*%
X230327200Y-140157200D03*
X227074402Y-133082048D03*
%TO.N,Net-(U3-STAT)*%
X218109800Y-140512800D03*
D19*
X210413600Y-143611600D03*
D18*
%TO.N,/SWCLK*%
X226923600Y-139649200D03*
%TO.N,/SWDIO*%
X230251000Y-138785600D03*
D19*
%TO.N,/D+*%
X210985100Y-138658600D03*
D20*
X231495600Y-130657600D03*
D18*
%TO.N,/QSPI_DATA[0]*%
X242646200Y-142062200D03*
X247675400Y-139406800D03*
D19*
%TO.N,/D-*%
X210985100Y-137198100D03*
D20*
X231928244Y-129742356D03*
%TD*%
D21*
%TO.N,/~{RESET}*%
X228777800Y-135763000D02*
X227507800Y-137033000D01*
X230225600Y-135763000D02*
X228777800Y-135763000D01*
X219608400Y-141224000D02*
X217284300Y-143548100D01*
X222186004Y-141224000D02*
X219608400Y-141224000D01*
X217284300Y-143548100D02*
X214668100Y-143548100D01*
X227507800Y-137033000D02*
X226377004Y-137033000D01*
X226377004Y-137033000D02*
X222186004Y-141224000D01*
D22*
%TO.N,+3V3*%
X245114536Y-140085536D02*
X244475000Y-139446000D01*
X244475000Y-139446000D02*
X243865400Y-139446000D01*
D23*
X213906100Y-147104100D02*
X213207600Y-147802600D01*
X213906100Y-145961100D02*
X213906100Y-147104100D01*
D22*
X246167554Y-140085536D02*
X245114536Y-140085536D01*
D21*
%TO.N,/AREF*%
X230952600Y-142047734D02*
X227312234Y-145688100D01*
X231343200Y-141173200D02*
X230952600Y-141563800D01*
X230952600Y-141563800D02*
X230952600Y-142047734D01*
X227312234Y-145688100D02*
X215703100Y-145688100D01*
X215430100Y-145961100D02*
X215430100Y-147485100D01*
D23*
%TO.N,VBAT*%
X215007198Y-138150600D02*
X220218000Y-138150600D01*
X220751400Y-138684000D02*
X220218000Y-138150600D01*
X220751400Y-140182600D02*
X220751400Y-138684000D01*
%TO.N,VBUS*%
X216827100Y-129959100D02*
X217906600Y-128879600D01*
X214296700Y-136855200D02*
X219075000Y-136855200D01*
X224510600Y-128879600D02*
X225907600Y-127482600D01*
X217906600Y-128879600D02*
X224510600Y-128879600D01*
D21*
%TO.N,/A1*%
X224955100Y-146596100D02*
X223748600Y-147802600D01*
X232146760Y-146596100D02*
X224955100Y-146596100D01*
X232246630Y-146496230D02*
X232146760Y-146596100D01*
%TO.N,/D4*%
X240385600Y-143395700D02*
X241261900Y-144272000D01*
X241261900Y-144272000D02*
X245237000Y-144272000D01*
X245237000Y-144272000D02*
X248767600Y-147802600D01*
X240385600Y-135738700D02*
X240385600Y-143395700D01*
X241579400Y-134544900D02*
X240385600Y-135738700D01*
%TO.N,/MOSI*%
X233324400Y-135382000D02*
X234924600Y-136982200D01*
X234924600Y-136982200D02*
X234924600Y-144119600D01*
X234924600Y-144119600D02*
X238607600Y-147802600D01*
%TO.N,/TX_D1*%
X239395000Y-143230600D02*
X239395000Y-133684434D01*
X237524800Y-129463800D02*
X235737400Y-129463800D01*
X239395000Y-133684434D02*
X239369600Y-133659034D01*
X239369600Y-133056766D02*
X239395000Y-133031366D01*
X241376200Y-145211800D02*
X239395000Y-143230600D01*
X246227600Y-147802600D02*
X243636800Y-145211800D01*
X239395000Y-133031366D02*
X239395000Y-131334000D01*
X235737400Y-129463800D02*
X235733746Y-129467454D01*
X239369600Y-133659034D02*
X239369600Y-133056766D01*
X243636800Y-145211800D02*
X241376200Y-145211800D01*
X239395000Y-131334000D02*
X237524800Y-129463800D01*
%TO.N,/RX_D0*%
X242366800Y-146481800D02*
X243687600Y-147802600D01*
X237337600Y-130276600D02*
X238734600Y-131673600D01*
X234943600Y-130276600D02*
X237337600Y-130276600D01*
X238734600Y-131673600D02*
X238734600Y-143484600D01*
X238734600Y-143484600D02*
X241731800Y-146481800D01*
X241731800Y-146481800D02*
X242366800Y-146481800D01*
%TO.N,/MISO*%
X232562400Y-134543800D02*
X234264200Y-134543800D01*
X235889800Y-144145000D02*
X238099600Y-146354800D01*
X234264200Y-134543800D02*
X235889800Y-136169400D01*
X239699800Y-146354800D02*
X241147600Y-147802600D01*
X235889800Y-136169400D02*
X235889800Y-144145000D01*
X238099600Y-146354800D02*
X239699800Y-146354800D01*
%TO.N,/SCK*%
X236728000Y-133908800D02*
X236728000Y-143814800D01*
X238405900Y-145492700D02*
X238426600Y-145492700D01*
X236728000Y-143814800D02*
X238405900Y-145492700D01*
%TO.N,/A0*%
X231698800Y-142113000D02*
X231558929Y-142113000D01*
X231558929Y-142113000D02*
X227529829Y-146142100D01*
X222488100Y-146142100D02*
X220827600Y-147802600D01*
X227529829Y-146142100D02*
X222488100Y-146142100D01*
%TO.N,/D13*%
X225069400Y-130860800D02*
X228447600Y-127482600D01*
X211048600Y-126911100D02*
X214998300Y-130860800D01*
X214998300Y-130860800D02*
X225069400Y-130860800D01*
X208889600Y-126911100D02*
X211048600Y-126911100D01*
%TO.N,/EN*%
X222257852Y-140123948D02*
X224663000Y-137718800D01*
X224663000Y-132638800D02*
X224663000Y-134823200D01*
X221767400Y-140123948D02*
X222257852Y-140123948D01*
D22*
X224332800Y-134823200D02*
X224663000Y-134823200D01*
D21*
X224663000Y-137718800D02*
X224663000Y-134823200D01*
%TO.N,/D8_NEOPIX*%
X226847400Y-145135600D02*
X222224600Y-145135600D01*
X221588900Y-144499900D02*
X221588900Y-142467900D01*
X230225600Y-141746600D02*
X230225600Y-141757400D01*
X221588900Y-142467900D02*
X221589600Y-142468600D01*
X222224600Y-145135600D02*
X221588900Y-144499900D01*
X230225600Y-141757400D02*
X226847400Y-145135600D01*
%TO.N,/QSPI_CS*%
X241528600Y-138252200D02*
X241528600Y-138912600D01*
X241528600Y-138912600D02*
X241401600Y-139039600D01*
X241376200Y-143052800D02*
X241401600Y-143027400D01*
X241401600Y-143027400D02*
X241401600Y-139039600D01*
%TO.N,/V_DIV*%
X228459954Y-134467600D02*
X230251000Y-134467600D01*
X230251000Y-134467600D02*
X231317800Y-135534400D01*
X227074402Y-133082048D02*
X228459954Y-134467600D01*
X231317800Y-135534400D02*
X231317800Y-139166600D01*
X231317800Y-139166600D02*
X230327200Y-140157200D01*
%TO.N,Net-(U3-STAT)*%
X215950800Y-141859000D02*
X217297000Y-140512800D01*
X211226400Y-141859000D02*
X215950800Y-141859000D01*
X210413600Y-142671800D02*
X211226400Y-141859000D01*
X217297000Y-140512800D02*
X218109800Y-140512800D01*
X210413600Y-143611600D02*
X210413600Y-142671800D01*
%TO.N,/SWCLK*%
X226466400Y-139649200D02*
X226923600Y-139649200D01*
X222859600Y-143256000D02*
X226466400Y-139649200D01*
%TO.N,/SWDIO*%
X230251000Y-138785600D02*
X230200200Y-138785600D01*
X230200200Y-138785600D02*
X225196400Y-143789400D01*
%TO.N,/D+*%
X217668450Y-131911750D02*
X210985100Y-138595100D01*
X210985100Y-138595100D02*
X210985100Y-138658600D01*
X230241450Y-131911750D02*
X217668450Y-131911750D01*
X209651600Y-138658600D02*
X210985100Y-138658600D01*
X231495600Y-130657600D02*
X230241450Y-131911750D01*
%TO.N,/QSPI_DATA[0]*%
X242646200Y-142062200D02*
X246329200Y-142062200D01*
X246329200Y-142062200D02*
X247675400Y-140716000D01*
X247675400Y-140716000D02*
X247675400Y-139406800D01*
%TO.N,/D-*%
X231378185Y-129742356D02*
X229726341Y-131394200D01*
X209651600Y-136626600D02*
X210413600Y-136626600D01*
X210413600Y-136626600D02*
X210985100Y-137198100D01*
X231928244Y-129742356D02*
X231378185Y-129742356D01*
X216789000Y-131394200D02*
X210985100Y-137198100D01*
X229726341Y-131394200D02*
X216789000Y-131394200D01*
%TD*%
M02*
