M48
; DRILL file {KiCad 8.0.4-8.0.4-0~ubuntu22.04.1} date 2024-08-18T15:20:46-0700
; FORMAT={-:-/ absolute / inch / decimal}
; #@! TF.CreationDate,2024-08-18T15:20:46-07:00
; #@! TF.GenerationSoftware,Kicad,Pcbnew,8.0.4-8.0.4-0~ubuntu22.04.1
; #@! TF.FileFunction,Plated,1,4,PTH
FMAT,2
INCH
; #@! TA.AperFunction,Plated,PTH,ViaDrill
T1C0.0155
; #@! TA.AperFunction,Plated,PTH,ViaDrill
T2C0.0157
; #@! TA.AperFunction,Plated,PTH,ComponentDrill
T3C0.0197
; #@! TA.AperFunction,Plated,PTH,ComponentDrill
T4C0.0217
; #@! TA.AperFunction,Plated,PTH,ComponentDrill
T5C0.0394
; #@! TA.AperFunction,Plated,PTH,ComponentDrill
T6C0.0984
%
G90
G05
T1
X8.224Y-4.9965
X8.284Y-5.654
X8.3065Y-5.4015
X8.3065Y-5.459
X8.4515Y-5.6515
X8.5365Y-5.1165
X8.6597Y-5.5997
X8.724Y-5.609
X8.731Y-5.5167
X8.832Y-5.308
X8.839Y-5.509
X8.845Y-5.222
T2
X8.277Y-5.58
X8.4369Y-5.388
X8.4649Y-5.439
X8.548Y-5.579
X8.561Y-5.264
X8.587Y-5.532
X8.625Y-5.388
X8.63Y-5.275
X8.668Y-5.645
X8.69Y-5.275
X8.691Y-5.519
X8.726Y-5.117
X8.7634Y-5.6102
X8.803Y-5.1215
X8.934Y-5.498
X8.9399Y-5.2395
X8.941Y-5.343
X8.973Y-5.094
X9.024Y-5.254
X9.064Y-5.345
X9.064Y-5.5806
X9.0649Y-5.4241
X9.065Y-5.464
X9.0657Y-5.3847
X9.068Y-5.518
X9.1029Y-5.2669
X9.108Y-5.558
X9.114Y-5.144
X9.122Y-5.595
X9.131Y-5.108
X9.1436Y-5.7676
X9.156Y-5.297
X9.186Y-5.33
X9.1924Y-5.597
X9.2204Y-5.566
X9.2497Y-5.129
X9.2809Y-5.0971
X9.32Y-5.272
X9.36Y-5.29
X9.369Y-5.5028
X9.3704Y-5.462
X9.3704Y-5.596
X9.3869Y-5.7281
X9.4526Y-5.2503
X9.494Y-5.2513
X9.503Y-5.632
X9.509Y-5.443
X9.511Y-5.297
X9.5291Y-5.1436
X9.538Y-5.1126
X9.553Y-5.593
X9.601Y-5.49
X9.6916Y-5.5152
X9.751Y-5.4885
X9.751Y-5.691
X9.833Y-5.617
T5
X8.294Y-5.819
X8.394Y-5.819
X8.494Y-5.819
X8.594Y-5.819
X8.694Y-5.019
X8.694Y-5.819
X8.794Y-5.019
X8.794Y-5.819
X8.894Y-5.019
X8.894Y-5.819
X8.994Y-5.019
X8.994Y-5.819
X9.094Y-5.019
X9.094Y-5.819
X9.194Y-5.019
X9.194Y-5.819
X9.294Y-5.019
X9.294Y-5.819
X9.394Y-5.019
X9.394Y-5.819
X9.494Y-5.019
X9.494Y-5.819
X9.594Y-5.019
X9.594Y-5.819
X9.694Y-5.019
X9.694Y-5.819
X9.794Y-5.019
X9.794Y-5.819
T6
X8.144Y-5.768
X8.144Y-5.769
X8.145Y-5.07
T3
G00X8.1348Y-5.281
M15
G01X8.1092Y-5.281
M16
G05
G00X8.1348Y-5.5566
M15
G01X8.1092Y-5.5566
M16
G05
T4
G00X8.2283Y-5.3145
M15
G01X8.2283Y-5.3263
M16
G05
G00X8.2283Y-5.5113
M15
G01X8.2283Y-5.5232
M16
G05
M30
