%TF.GenerationSoftware,KiCad,Pcbnew,8.0.4-8.0.4-0~ubuntu22.04.1*%
%TF.CreationDate,2024-08-18T15:20:48-07:00*%
%TF.ProjectId,feather_M4_express,66656174-6865-4725-9f4d-345f65787072,rev?*%
%TF.SameCoordinates,Original*%
%TF.FileFunction,Drillmap*%
%TF.FilePolarity,Positive*%
%FSLAX45Y45*%
G04 Gerber Fmt 4.5, Leading zero omitted, Abs format (unit mm)*
G04 Created by KiCad (PCBNEW 8.0.4-8.0.4-0~ubuntu22.04.1) date 2024-08-18 15:20:48*
%MOMM*%
%LPD*%
G01*
G04 APERTURE LIST*
%ADD10C,0.050000*%
%ADD11C,0.200000*%
%ADD12C,0.100000*%
%ADD13C,0.250000*%
G04 APERTURE END LIST*
D10*
X20431025Y-12874525D02*
X20431025Y-13509525D01*
X20431025Y-13509525D02*
X20481825Y-13560325D01*
X20431025Y-14017525D02*
X20431025Y-14652525D01*
X20481825Y-13560325D02*
X20481825Y-13966725D01*
X20481825Y-13966725D02*
X20431025Y-14017525D01*
X20685025Y-14906525D02*
X25253415Y-14906525D01*
X25253415Y-12620525D02*
X20685025Y-12620525D01*
X25507415Y-14652525D02*
X25507415Y-12874525D01*
X20431025Y-12874525D02*
G75*
G02*
X20685025Y-12620525I254000J0D01*
G01*
X20685025Y-14906525D02*
G75*
G02*
X20431025Y-14652525I0J254000D01*
G01*
X25253415Y-12620525D02*
G75*
G02*
X25507415Y-12874525I0J-254000D01*
G01*
X25507415Y-14652525D02*
G75*
G02*
X25253415Y-14906525I-254000J0D01*
G01*
D11*
D12*
X20869275Y-12671425D02*
X20908645Y-12710795D01*
X20908645Y-12671425D02*
X20869275Y-12710795D01*
X21021675Y-14341475D02*
X21061045Y-14380845D01*
X21061045Y-14341475D02*
X21021675Y-14380845D01*
X21078825Y-13700125D02*
X21118195Y-13739495D01*
X21118195Y-13700125D02*
X21078825Y-13739495D01*
X21078825Y-13846175D02*
X21118195Y-13885545D01*
X21118195Y-13846175D02*
X21078825Y-13885545D01*
X21447125Y-14335125D02*
X21486495Y-14374495D01*
X21486495Y-14335125D02*
X21447125Y-14374495D01*
X21663025Y-12976225D02*
X21702395Y-13015595D01*
X21702395Y-12976225D02*
X21663025Y-13015595D01*
X21975836Y-14203436D02*
X22015206Y-14242806D01*
X22015206Y-14203436D02*
X21975836Y-14242806D01*
X22139275Y-14227175D02*
X22178645Y-14266545D01*
X22178645Y-14227175D02*
X22139275Y-14266545D01*
X22157055Y-13992710D02*
X22196425Y-14032080D01*
X22196425Y-13992710D02*
X22157055Y-14032080D01*
X22413595Y-13462635D02*
X22452965Y-13502005D01*
X22452965Y-13462635D02*
X22413595Y-13502005D01*
X22431375Y-13973175D02*
X22470745Y-14012545D01*
X22470745Y-13973175D02*
X22431375Y-14012545D01*
X22446615Y-13244195D02*
X22485985Y-13283565D01*
X22485985Y-13244195D02*
X22446615Y-13283565D01*
X21043580Y-14173220D02*
G75*
G02*
X21003580Y-14173220I-20000J0D01*
G01*
X21003580Y-14173220D02*
G75*
G02*
X21043580Y-14173220I20000J0D01*
G01*
X21449670Y-13685520D02*
G75*
G02*
X21409670Y-13685520I-20000J0D01*
G01*
X21409670Y-13685520D02*
G75*
G02*
X21449670Y-13685520I20000J0D01*
G01*
X21520720Y-13815060D02*
G75*
G02*
X21480720Y-13815060I-20000J0D01*
G01*
X21480720Y-13815060D02*
G75*
G02*
X21520720Y-13815060I20000J0D01*
G01*
X21731920Y-14170660D02*
G75*
G02*
X21691920Y-14170660I-20000J0D01*
G01*
X21691920Y-14170660D02*
G75*
G02*
X21731920Y-14170660I20000J0D01*
G01*
X21764940Y-13370560D02*
G75*
G02*
X21724940Y-13370560I-20000J0D01*
G01*
X21724940Y-13370560D02*
G75*
G02*
X21764940Y-13370560I20000J0D01*
G01*
X21830980Y-14051280D02*
G75*
G02*
X21790980Y-14051280I-20000J0D01*
G01*
X21790980Y-14051280D02*
G75*
G02*
X21830980Y-14051280I20000J0D01*
G01*
X21927500Y-13685520D02*
G75*
G02*
X21887500Y-13685520I-20000J0D01*
G01*
X21887500Y-13685520D02*
G75*
G02*
X21927500Y-13685520I20000J0D01*
G01*
X21940200Y-13398500D02*
G75*
G02*
X21900200Y-13398500I-20000J0D01*
G01*
X21900200Y-13398500D02*
G75*
G02*
X21940200Y-13398500I20000J0D01*
G01*
X22036720Y-14338390D02*
G75*
G02*
X21996720Y-14338390I-20000J0D01*
G01*
X21996720Y-14338390D02*
G75*
G02*
X22036720Y-14338390I20000J0D01*
G01*
X22092600Y-13398500D02*
G75*
G02*
X22052600Y-13398500I-20000J0D01*
G01*
X22052600Y-13398500D02*
G75*
G02*
X22092600Y-13398500I20000J0D01*
G01*
X22095140Y-14018260D02*
G75*
G02*
X22055140Y-14018260I-20000J0D01*
G01*
X22055140Y-14018260D02*
G75*
G02*
X22095140Y-14018260I20000J0D01*
G01*
X22184040Y-12997180D02*
G75*
G02*
X22144040Y-12997180I-20000J0D01*
G01*
X22144040Y-12997180D02*
G75*
G02*
X22184040Y-12997180I20000J0D01*
G01*
X22278921Y-14249826D02*
G75*
G02*
X22238921Y-14249826I-20000J0D01*
G01*
X22238921Y-14249826D02*
G75*
G02*
X22278921Y-14249826I20000J0D01*
G01*
X22379620Y-13008600D02*
G75*
G02*
X22339620Y-13008600I-20000J0D01*
G01*
X22339620Y-13008600D02*
G75*
G02*
X22379620Y-13008600I20000J0D01*
G01*
X22712360Y-13964920D02*
G75*
G02*
X22672360Y-13964920I-20000J0D01*
G01*
X22672360Y-13964920D02*
G75*
G02*
X22712360Y-13964920I20000J0D01*
G01*
X22727440Y-13308205D02*
G75*
G02*
X22687440Y-13308205I-20000J0D01*
G01*
X22687440Y-13308205D02*
G75*
G02*
X22727440Y-13308205I20000J0D01*
G01*
X22730047Y-13571134D02*
G75*
G02*
X22690047Y-13571134I-20000J0D01*
G01*
X22690047Y-13571134D02*
G75*
G02*
X22730047Y-13571134I20000J0D01*
G01*
X22811420Y-12938760D02*
G75*
G02*
X22771420Y-12938760I-20000J0D01*
G01*
X22771420Y-12938760D02*
G75*
G02*
X22811420Y-12938760I20000J0D01*
G01*
X22940960Y-13345160D02*
G75*
G02*
X22900960Y-13345160I-20000J0D01*
G01*
X22900960Y-13345160D02*
G75*
G02*
X22940960Y-13345160I20000J0D01*
G01*
X23042560Y-13576300D02*
G75*
G02*
X23002560Y-13576300I-20000J0D01*
G01*
X23002560Y-13576300D02*
G75*
G02*
X23042560Y-13576300I20000J0D01*
G01*
X23042560Y-14174660D02*
G75*
G02*
X23002560Y-14174660I-20000J0D01*
G01*
X23002560Y-14174660D02*
G75*
G02*
X23042560Y-14174660I20000J0D01*
G01*
X23044870Y-13777190D02*
G75*
G02*
X23004870Y-13777190I-20000J0D01*
G01*
X23004870Y-13777190D02*
G75*
G02*
X23044870Y-13777190I20000J0D01*
G01*
X23045100Y-13878560D02*
G75*
G02*
X23005100Y-13878560I-20000J0D01*
G01*
X23005100Y-13878560D02*
G75*
G02*
X23045100Y-13878560I20000J0D01*
G01*
X23046930Y-13677190D02*
G75*
G02*
X23006930Y-13677190I-20000J0D01*
G01*
X23006930Y-13677190D02*
G75*
G02*
X23046930Y-13677190I20000J0D01*
G01*
X23052720Y-14015720D02*
G75*
G02*
X23012720Y-14015720I-20000J0D01*
G01*
X23012720Y-14015720D02*
G75*
G02*
X23052720Y-14015720I20000J0D01*
G01*
X23141340Y-13377900D02*
G75*
G02*
X23101340Y-13377900I-20000J0D01*
G01*
X23101340Y-13377900D02*
G75*
G02*
X23141340Y-13377900I20000J0D01*
G01*
X23154320Y-14117320D02*
G75*
G02*
X23114320Y-14117320I-20000J0D01*
G01*
X23114320Y-14117320D02*
G75*
G02*
X23154320Y-14117320I20000J0D01*
G01*
X23169560Y-13065760D02*
G75*
G02*
X23129560Y-13065760I-20000J0D01*
G01*
X23129560Y-13065760D02*
G75*
G02*
X23169560Y-13065760I20000J0D01*
G01*
X23189880Y-14211300D02*
G75*
G02*
X23149880Y-14211300I-20000J0D01*
G01*
X23149880Y-14211300D02*
G75*
G02*
X23189880Y-14211300I20000J0D01*
G01*
X23212824Y-12974236D02*
G75*
G02*
X23172824Y-12974236I-20000J0D01*
G01*
X23172824Y-12974236D02*
G75*
G02*
X23212824Y-12974236I20000J0D01*
G01*
X23244663Y-14649623D02*
G75*
G02*
X23204663Y-14649623I-20000J0D01*
G01*
X23204663Y-14649623D02*
G75*
G02*
X23244663Y-14649623I20000J0D01*
G01*
X23276240Y-13454380D02*
G75*
G02*
X23236240Y-13454380I-20000J0D01*
G01*
X23236240Y-13454380D02*
G75*
G02*
X23276240Y-13454380I20000J0D01*
G01*
X23352440Y-13538200D02*
G75*
G02*
X23312440Y-13538200I-20000J0D01*
G01*
X23312440Y-13538200D02*
G75*
G02*
X23352440Y-13538200I20000J0D01*
G01*
X23368640Y-14216380D02*
G75*
G02*
X23328640Y-14216380I-20000J0D01*
G01*
X23328640Y-14216380D02*
G75*
G02*
X23368640Y-14216380I20000J0D01*
G01*
X23439760Y-14137640D02*
G75*
G02*
X23399760Y-14137640I-20000J0D01*
G01*
X23399760Y-14137640D02*
G75*
G02*
X23439760Y-14137640I20000J0D01*
G01*
X23514360Y-13027660D02*
G75*
G02*
X23474360Y-13027660I-20000J0D01*
G01*
X23474360Y-13027660D02*
G75*
G02*
X23514360Y-13027660I20000J0D01*
G01*
X23593375Y-12946745D02*
G75*
G02*
X23553375Y-12946745I-20000J0D01*
G01*
X23553375Y-12946745D02*
G75*
G02*
X23593375Y-12946745I20000J0D01*
G01*
X23692800Y-13390880D02*
G75*
G02*
X23652800Y-13390880I-20000J0D01*
G01*
X23652800Y-13390880D02*
G75*
G02*
X23692800Y-13390880I20000J0D01*
G01*
X23794400Y-13436600D02*
G75*
G02*
X23754400Y-13436600I-20000J0D01*
G01*
X23754400Y-13436600D02*
G75*
G02*
X23794400Y-13436600I20000J0D01*
G01*
X23817260Y-13977190D02*
G75*
G02*
X23777260Y-13977190I-20000J0D01*
G01*
X23777260Y-13977190D02*
G75*
G02*
X23817260Y-13977190I20000J0D01*
G01*
X23820760Y-13873480D02*
G75*
G02*
X23780760Y-13873480I-20000J0D01*
G01*
X23780760Y-13873480D02*
G75*
G02*
X23820760Y-13873480I20000J0D01*
G01*
X23820760Y-14213840D02*
G75*
G02*
X23780760Y-14213840I-20000J0D01*
G01*
X23780760Y-14213840D02*
G75*
G02*
X23820760Y-14213840I20000J0D01*
G01*
X23862660Y-14549270D02*
G75*
G02*
X23822660Y-14549270I-20000J0D01*
G01*
X23822660Y-14549270D02*
G75*
G02*
X23862660Y-14549270I20000J0D01*
G01*
X24029660Y-13335790D02*
G75*
G02*
X23989660Y-13335790I-20000J0D01*
G01*
X23989660Y-13335790D02*
G75*
G02*
X24029660Y-13335790I20000J0D01*
G01*
X24134760Y-13338330D02*
G75*
G02*
X24094760Y-13338330I-20000J0D01*
G01*
X24094760Y-13338330D02*
G75*
G02*
X24134760Y-13338330I20000J0D01*
G01*
X24157620Y-14305280D02*
G75*
G02*
X24117620Y-14305280I-20000J0D01*
G01*
X24117620Y-14305280D02*
G75*
G02*
X24157620Y-14305280I20000J0D01*
G01*
X24172860Y-13825220D02*
G75*
G02*
X24132860Y-13825220I-20000J0D01*
G01*
X24132860Y-13825220D02*
G75*
G02*
X24172860Y-13825220I20000J0D01*
G01*
X24177940Y-13454490D02*
G75*
G02*
X24137940Y-13454490I-20000J0D01*
G01*
X24137940Y-13454490D02*
G75*
G02*
X24177940Y-13454490I20000J0D01*
G01*
X24223836Y-13064765D02*
G75*
G02*
X24183836Y-13064765I-20000J0D01*
G01*
X24183836Y-13064765D02*
G75*
G02*
X24223836Y-13064765I20000J0D01*
G01*
X24246520Y-12986060D02*
G75*
G02*
X24206520Y-12986060I-20000J0D01*
G01*
X24206520Y-12986060D02*
G75*
G02*
X24246520Y-12986060I20000J0D01*
G01*
X24284620Y-14206220D02*
G75*
G02*
X24244620Y-14206220I-20000J0D01*
G01*
X24244620Y-14206220D02*
G75*
G02*
X24284620Y-14206220I20000J0D01*
G01*
X24406540Y-13944600D02*
G75*
G02*
X24366540Y-13944600I-20000J0D01*
G01*
X24366540Y-13944600D02*
G75*
G02*
X24406540Y-13944600I20000J0D01*
G01*
X24636755Y-14008554D02*
G75*
G02*
X24596755Y-14008554I-20000J0D01*
G01*
X24596755Y-14008554D02*
G75*
G02*
X24636755Y-14008554I20000J0D01*
G01*
X24787540Y-13940680D02*
G75*
G02*
X24747540Y-13940680I-20000J0D01*
G01*
X24747540Y-13940680D02*
G75*
G02*
X24787540Y-13940680I20000J0D01*
G01*
X24787540Y-14455140D02*
G75*
G02*
X24747540Y-14455140I-20000J0D01*
G01*
X24747540Y-14455140D02*
G75*
G02*
X24787540Y-14455140I20000J0D01*
G01*
X24995820Y-14267180D02*
G75*
G02*
X24955820Y-14267180I-20000J0D01*
G01*
X24955820Y-14267180D02*
G75*
G02*
X24995820Y-14267180I20000J0D01*
G01*
X20629880Y-13388820D02*
X20629880Y-13438820D01*
X20604880Y-13413820D02*
X20654880Y-13413820D01*
X20662380Y-13388820D02*
X20597380Y-13388820D01*
X20597380Y-13438820D02*
G75*
G02*
X20597380Y-13388820I0J25000D01*
G01*
X20597380Y-13438820D02*
X20662380Y-13438820D01*
X20662380Y-13438820D02*
G75*
G03*
X20662380Y-13388820I0J25000D01*
G01*
X20629880Y-14088820D02*
X20629880Y-14138820D01*
X20604880Y-14113820D02*
X20654880Y-14113820D01*
X20662380Y-14088820D02*
X20597380Y-14088820D01*
X20597380Y-14138820D02*
G75*
G02*
X20597380Y-14088820I0J25000D01*
G01*
X20597380Y-14138820D02*
X20662380Y-14138820D01*
X20662380Y-14138820D02*
G75*
G03*
X20662380Y-14088820I0J25000D01*
G01*
X20919326Y-13533266D02*
X20919326Y-13494374D01*
X20880434Y-13494374D01*
X20880434Y-13533266D01*
X20919326Y-13533266D01*
X20872380Y-13498820D02*
X20872380Y-13528820D01*
X20927380Y-13528820D02*
G75*
G02*
X20872380Y-13528820I-27500J0D01*
G01*
X20927380Y-13528820D02*
X20927380Y-13498820D01*
X20927380Y-13498820D02*
G75*
G03*
X20872380Y-13498820I-27500J0D01*
G01*
X20919326Y-14033266D02*
X20919326Y-13994374D01*
X20880434Y-13994374D01*
X20880434Y-14033266D01*
X20919326Y-14033266D01*
X20872380Y-13998820D02*
X20872380Y-14028820D01*
X20927380Y-14028820D02*
G75*
G02*
X20872380Y-14028820I-27500J0D01*
G01*
X20927380Y-14028820D02*
X20927380Y-13998820D01*
X20927380Y-13998820D02*
G75*
G03*
X20872380Y-13998820I-27500J0D01*
G01*
X21066760Y-14830260D02*
X21116760Y-14780260D01*
X21066760Y-14730260D01*
X21016760Y-14780260D01*
X21066760Y-14830260D01*
X21320760Y-14830260D02*
X21370760Y-14780260D01*
X21320760Y-14730260D01*
X21270760Y-14780260D01*
X21320760Y-14830260D01*
X21574760Y-14830260D02*
X21624760Y-14780260D01*
X21574760Y-14730260D01*
X21524760Y-14780260D01*
X21574760Y-14830260D01*
X21828760Y-14830260D02*
X21878760Y-14780260D01*
X21828760Y-14730260D01*
X21778760Y-14780260D01*
X21828760Y-14830260D01*
X22082760Y-12798260D02*
X22132760Y-12748260D01*
X22082760Y-12698260D01*
X22032760Y-12748260D01*
X22082760Y-12798260D01*
X22082760Y-14830260D02*
X22132760Y-14780260D01*
X22082760Y-14730260D01*
X22032760Y-14780260D01*
X22082760Y-14830260D01*
X22336760Y-12798260D02*
X22386760Y-12748260D01*
X22336760Y-12698260D01*
X22286760Y-12748260D01*
X22336760Y-12798260D01*
X22336760Y-14830260D02*
X22386760Y-14780260D01*
X22336760Y-14730260D01*
X22286760Y-14780260D01*
X22336760Y-14830260D01*
X22590760Y-12798260D02*
X22640760Y-12748260D01*
X22590760Y-12698260D01*
X22540760Y-12748260D01*
X22590760Y-12798260D01*
X22590760Y-14830260D02*
X22640760Y-14780260D01*
X22590760Y-14730260D01*
X22540760Y-14780260D01*
X22590760Y-14830260D01*
X22844760Y-12798260D02*
X22894760Y-12748260D01*
X22844760Y-12698260D01*
X22794760Y-12748260D01*
X22844760Y-12798260D01*
X22844760Y-14830260D02*
X22894760Y-14780260D01*
X22844760Y-14730260D01*
X22794760Y-14780260D01*
X22844760Y-14830260D01*
X23098760Y-12798260D02*
X23148760Y-12748260D01*
X23098760Y-12698260D01*
X23048760Y-12748260D01*
X23098760Y-12798260D01*
X23098760Y-14830260D02*
X23148760Y-14780260D01*
X23098760Y-14730260D01*
X23048760Y-14780260D01*
X23098760Y-14830260D01*
X23352760Y-12798260D02*
X23402760Y-12748260D01*
X23352760Y-12698260D01*
X23302760Y-12748260D01*
X23352760Y-12798260D01*
X23352760Y-14830260D02*
X23402760Y-14780260D01*
X23352760Y-14730260D01*
X23302760Y-14780260D01*
X23352760Y-14830260D01*
X23606760Y-12798260D02*
X23656760Y-12748260D01*
X23606760Y-12698260D01*
X23556760Y-12748260D01*
X23606760Y-12798260D01*
X23606760Y-14830260D02*
X23656760Y-14780260D01*
X23606760Y-14730260D01*
X23556760Y-14780260D01*
X23606760Y-14830260D01*
X23860760Y-12798260D02*
X23910760Y-12748260D01*
X23860760Y-12698260D01*
X23810760Y-12748260D01*
X23860760Y-12798260D01*
X23860760Y-14830260D02*
X23910760Y-14780260D01*
X23860760Y-14730260D01*
X23810760Y-14780260D01*
X23860760Y-14830260D01*
X24114760Y-12798260D02*
X24164760Y-12748260D01*
X24114760Y-12698260D01*
X24064760Y-12748260D01*
X24114760Y-12798260D01*
X24114760Y-14830260D02*
X24164760Y-14780260D01*
X24114760Y-14730260D01*
X24064760Y-14780260D01*
X24114760Y-14830260D01*
X24368760Y-12798260D02*
X24418760Y-12748260D01*
X24368760Y-12698260D01*
X24318760Y-12748260D01*
X24368760Y-12798260D01*
X24368760Y-14830260D02*
X24418760Y-14780260D01*
X24368760Y-14730260D01*
X24318760Y-14780260D01*
X24368760Y-14830260D01*
X24622760Y-12798260D02*
X24672760Y-12748260D01*
X24622760Y-12698260D01*
X24572760Y-12748260D01*
X24622760Y-12798260D01*
X24622760Y-14830260D02*
X24672760Y-14780260D01*
X24622760Y-14730260D01*
X24572760Y-14780260D01*
X24622760Y-14830260D01*
X24876760Y-12798260D02*
X24926760Y-12748260D01*
X24876760Y-12698260D01*
X24826760Y-12748260D01*
X24876760Y-12798260D01*
X24876760Y-14830260D02*
X24926760Y-14780260D01*
X24876760Y-14730260D01*
X24826760Y-14780260D01*
X24876760Y-14830260D01*
D13*
X20560760Y-14525720D02*
X20810760Y-14775720D01*
X20810760Y-14525720D02*
X20560760Y-14775720D01*
X20810760Y-14650720D02*
G75*
G02*
X20560760Y-14650720I-125000J0D01*
G01*
X20560760Y-14650720D02*
G75*
G02*
X20810760Y-14650720I125000J0D01*
G01*
X20560760Y-14528260D02*
X20810760Y-14778260D01*
X20810760Y-14528260D02*
X20560760Y-14778260D01*
X20810760Y-14653260D02*
G75*
G02*
X20560760Y-14653260I-125000J0D01*
G01*
X20560760Y-14653260D02*
G75*
G02*
X20810760Y-14653260I125000J0D01*
G01*
X20563300Y-12752800D02*
X20813300Y-13002800D01*
X20813300Y-12752800D02*
X20563300Y-13002800D01*
X20813300Y-12877800D02*
G75*
G02*
X20563300Y-12877800I-125000J0D01*
G01*
X20563300Y-12877800D02*
G75*
G02*
X20813300Y-12877800I125000J0D01*
G01*
D11*
X20689302Y-15220509D02*
X20689302Y-15020509D01*
X20689302Y-15020509D02*
X20736921Y-15020509D01*
X20736921Y-15020509D02*
X20765492Y-15030033D01*
X20765492Y-15030033D02*
X20784540Y-15049080D01*
X20784540Y-15049080D02*
X20794064Y-15068128D01*
X20794064Y-15068128D02*
X20803588Y-15106223D01*
X20803588Y-15106223D02*
X20803588Y-15134795D01*
X20803588Y-15134795D02*
X20794064Y-15172890D01*
X20794064Y-15172890D02*
X20784540Y-15191937D01*
X20784540Y-15191937D02*
X20765492Y-15210985D01*
X20765492Y-15210985D02*
X20736921Y-15220509D01*
X20736921Y-15220509D02*
X20689302Y-15220509D01*
X20889302Y-15220509D02*
X20889302Y-15087175D01*
X20889302Y-15125271D02*
X20898826Y-15106223D01*
X20898826Y-15106223D02*
X20908350Y-15096699D01*
X20908350Y-15096699D02*
X20927397Y-15087175D01*
X20927397Y-15087175D02*
X20946445Y-15087175D01*
X21013111Y-15220509D02*
X21013111Y-15087175D01*
X21013111Y-15020509D02*
X21003588Y-15030033D01*
X21003588Y-15030033D02*
X21013111Y-15039556D01*
X21013111Y-15039556D02*
X21022635Y-15030033D01*
X21022635Y-15030033D02*
X21013111Y-15020509D01*
X21013111Y-15020509D02*
X21013111Y-15039556D01*
X21136921Y-15220509D02*
X21117873Y-15210985D01*
X21117873Y-15210985D02*
X21108350Y-15191937D01*
X21108350Y-15191937D02*
X21108350Y-15020509D01*
X21241683Y-15220509D02*
X21222635Y-15210985D01*
X21222635Y-15210985D02*
X21213111Y-15191937D01*
X21213111Y-15191937D02*
X21213111Y-15020509D01*
X21470254Y-15220509D02*
X21470254Y-15020509D01*
X21470254Y-15020509D02*
X21536921Y-15163366D01*
X21536921Y-15163366D02*
X21603588Y-15020509D01*
X21603588Y-15020509D02*
X21603588Y-15220509D01*
X21784540Y-15220509D02*
X21784540Y-15115747D01*
X21784540Y-15115747D02*
X21775016Y-15096699D01*
X21775016Y-15096699D02*
X21755969Y-15087175D01*
X21755969Y-15087175D02*
X21717873Y-15087175D01*
X21717873Y-15087175D02*
X21698826Y-15096699D01*
X21784540Y-15210985D02*
X21765492Y-15220509D01*
X21765492Y-15220509D02*
X21717873Y-15220509D01*
X21717873Y-15220509D02*
X21698826Y-15210985D01*
X21698826Y-15210985D02*
X21689302Y-15191937D01*
X21689302Y-15191937D02*
X21689302Y-15172890D01*
X21689302Y-15172890D02*
X21698826Y-15153842D01*
X21698826Y-15153842D02*
X21717873Y-15144318D01*
X21717873Y-15144318D02*
X21765492Y-15144318D01*
X21765492Y-15144318D02*
X21784540Y-15134795D01*
X21879778Y-15087175D02*
X21879778Y-15287175D01*
X21879778Y-15096699D02*
X21898826Y-15087175D01*
X21898826Y-15087175D02*
X21936921Y-15087175D01*
X21936921Y-15087175D02*
X21955969Y-15096699D01*
X21955969Y-15096699D02*
X21965492Y-15106223D01*
X21965492Y-15106223D02*
X21975016Y-15125271D01*
X21975016Y-15125271D02*
X21975016Y-15182414D01*
X21975016Y-15182414D02*
X21965492Y-15201461D01*
X21965492Y-15201461D02*
X21955969Y-15210985D01*
X21955969Y-15210985D02*
X21936921Y-15220509D01*
X21936921Y-15220509D02*
X21898826Y-15220509D01*
X21898826Y-15220509D02*
X21879778Y-15210985D01*
X22060731Y-15201461D02*
X22070254Y-15210985D01*
X22070254Y-15210985D02*
X22060731Y-15220509D01*
X22060731Y-15220509D02*
X22051207Y-15210985D01*
X22051207Y-15210985D02*
X22060731Y-15201461D01*
X22060731Y-15201461D02*
X22060731Y-15220509D01*
X22060731Y-15096699D02*
X22070254Y-15106223D01*
X22070254Y-15106223D02*
X22060731Y-15115747D01*
X22060731Y-15115747D02*
X22051207Y-15106223D01*
X22051207Y-15106223D02*
X22060731Y-15096699D01*
X22060731Y-15096699D02*
X22060731Y-15115747D01*
D12*
X20389155Y-15529340D02*
X20428525Y-15568710D01*
X20428525Y-15529340D02*
X20389155Y-15568710D01*
D11*
X20727397Y-15440509D02*
X20746445Y-15440509D01*
X20746445Y-15440509D02*
X20765492Y-15450033D01*
X20765492Y-15450033D02*
X20775016Y-15459556D01*
X20775016Y-15459556D02*
X20784540Y-15478604D01*
X20784540Y-15478604D02*
X20794064Y-15516699D01*
X20794064Y-15516699D02*
X20794064Y-15564318D01*
X20794064Y-15564318D02*
X20784540Y-15602414D01*
X20784540Y-15602414D02*
X20775016Y-15621461D01*
X20775016Y-15621461D02*
X20765492Y-15630985D01*
X20765492Y-15630985D02*
X20746445Y-15640509D01*
X20746445Y-15640509D02*
X20727397Y-15640509D01*
X20727397Y-15640509D02*
X20708350Y-15630985D01*
X20708350Y-15630985D02*
X20698826Y-15621461D01*
X20698826Y-15621461D02*
X20689302Y-15602414D01*
X20689302Y-15602414D02*
X20679778Y-15564318D01*
X20679778Y-15564318D02*
X20679778Y-15516699D01*
X20679778Y-15516699D02*
X20689302Y-15478604D01*
X20689302Y-15478604D02*
X20698826Y-15459556D01*
X20698826Y-15459556D02*
X20708350Y-15450033D01*
X20708350Y-15450033D02*
X20727397Y-15440509D01*
X20879778Y-15621461D02*
X20889302Y-15630985D01*
X20889302Y-15630985D02*
X20879778Y-15640509D01*
X20879778Y-15640509D02*
X20870254Y-15630985D01*
X20870254Y-15630985D02*
X20879778Y-15621461D01*
X20879778Y-15621461D02*
X20879778Y-15640509D01*
X20955969Y-15440509D02*
X21079778Y-15440509D01*
X21079778Y-15440509D02*
X21013111Y-15516699D01*
X21013111Y-15516699D02*
X21041683Y-15516699D01*
X21041683Y-15516699D02*
X21060731Y-15526223D01*
X21060731Y-15526223D02*
X21070254Y-15535747D01*
X21070254Y-15535747D02*
X21079778Y-15554795D01*
X21079778Y-15554795D02*
X21079778Y-15602414D01*
X21079778Y-15602414D02*
X21070254Y-15621461D01*
X21070254Y-15621461D02*
X21060731Y-15630985D01*
X21060731Y-15630985D02*
X21041683Y-15640509D01*
X21041683Y-15640509D02*
X20984540Y-15640509D01*
X20984540Y-15640509D02*
X20965492Y-15630985D01*
X20965492Y-15630985D02*
X20955969Y-15621461D01*
X21175016Y-15640509D02*
X21213111Y-15640509D01*
X21213111Y-15640509D02*
X21232159Y-15630985D01*
X21232159Y-15630985D02*
X21241683Y-15621461D01*
X21241683Y-15621461D02*
X21260731Y-15592890D01*
X21260731Y-15592890D02*
X21270254Y-15554795D01*
X21270254Y-15554795D02*
X21270254Y-15478604D01*
X21270254Y-15478604D02*
X21260731Y-15459556D01*
X21260731Y-15459556D02*
X21251207Y-15450033D01*
X21251207Y-15450033D02*
X21232159Y-15440509D01*
X21232159Y-15440509D02*
X21194064Y-15440509D01*
X21194064Y-15440509D02*
X21175016Y-15450033D01*
X21175016Y-15450033D02*
X21165492Y-15459556D01*
X21165492Y-15459556D02*
X21155969Y-15478604D01*
X21155969Y-15478604D02*
X21155969Y-15526223D01*
X21155969Y-15526223D02*
X21165492Y-15545271D01*
X21165492Y-15545271D02*
X21175016Y-15554795D01*
X21175016Y-15554795D02*
X21194064Y-15564318D01*
X21194064Y-15564318D02*
X21232159Y-15564318D01*
X21232159Y-15564318D02*
X21251207Y-15554795D01*
X21251207Y-15554795D02*
X21260731Y-15545271D01*
X21260731Y-15545271D02*
X21270254Y-15526223D01*
X21441683Y-15507175D02*
X21441683Y-15640509D01*
X21394064Y-15430985D02*
X21346445Y-15573842D01*
X21346445Y-15573842D02*
X21470254Y-15573842D01*
X21546445Y-15640509D02*
X21546445Y-15507175D01*
X21546445Y-15526223D02*
X21555969Y-15516699D01*
X21555969Y-15516699D02*
X21575016Y-15507175D01*
X21575016Y-15507175D02*
X21603588Y-15507175D01*
X21603588Y-15507175D02*
X21622635Y-15516699D01*
X21622635Y-15516699D02*
X21632159Y-15535747D01*
X21632159Y-15535747D02*
X21632159Y-15640509D01*
X21632159Y-15535747D02*
X21641683Y-15516699D01*
X21641683Y-15516699D02*
X21660731Y-15507175D01*
X21660731Y-15507175D02*
X21689302Y-15507175D01*
X21689302Y-15507175D02*
X21708350Y-15516699D01*
X21708350Y-15516699D02*
X21717873Y-15535747D01*
X21717873Y-15535747D02*
X21717873Y-15640509D01*
X21813112Y-15640509D02*
X21813112Y-15507175D01*
X21813112Y-15526223D02*
X21822635Y-15516699D01*
X21822635Y-15516699D02*
X21841683Y-15507175D01*
X21841683Y-15507175D02*
X21870254Y-15507175D01*
X21870254Y-15507175D02*
X21889302Y-15516699D01*
X21889302Y-15516699D02*
X21898826Y-15535747D01*
X21898826Y-15535747D02*
X21898826Y-15640509D01*
X21898826Y-15535747D02*
X21908350Y-15516699D01*
X21908350Y-15516699D02*
X21927397Y-15507175D01*
X21927397Y-15507175D02*
X21955969Y-15507175D01*
X21955969Y-15507175D02*
X21975016Y-15516699D01*
X21975016Y-15516699D02*
X21984540Y-15535747D01*
X21984540Y-15535747D02*
X21984540Y-15640509D01*
X22375016Y-15430985D02*
X22203588Y-15688128D01*
X22632159Y-15440509D02*
X22651207Y-15440509D01*
X22651207Y-15440509D02*
X22670254Y-15450033D01*
X22670254Y-15450033D02*
X22679778Y-15459556D01*
X22679778Y-15459556D02*
X22689302Y-15478604D01*
X22689302Y-15478604D02*
X22698826Y-15516699D01*
X22698826Y-15516699D02*
X22698826Y-15564318D01*
X22698826Y-15564318D02*
X22689302Y-15602414D01*
X22689302Y-15602414D02*
X22679778Y-15621461D01*
X22679778Y-15621461D02*
X22670254Y-15630985D01*
X22670254Y-15630985D02*
X22651207Y-15640509D01*
X22651207Y-15640509D02*
X22632159Y-15640509D01*
X22632159Y-15640509D02*
X22613112Y-15630985D01*
X22613112Y-15630985D02*
X22603588Y-15621461D01*
X22603588Y-15621461D02*
X22594064Y-15602414D01*
X22594064Y-15602414D02*
X22584540Y-15564318D01*
X22584540Y-15564318D02*
X22584540Y-15516699D01*
X22584540Y-15516699D02*
X22594064Y-15478604D01*
X22594064Y-15478604D02*
X22603588Y-15459556D01*
X22603588Y-15459556D02*
X22613112Y-15450033D01*
X22613112Y-15450033D02*
X22632159Y-15440509D01*
X22784540Y-15621461D02*
X22794064Y-15630985D01*
X22794064Y-15630985D02*
X22784540Y-15640509D01*
X22784540Y-15640509D02*
X22775016Y-15630985D01*
X22775016Y-15630985D02*
X22784540Y-15621461D01*
X22784540Y-15621461D02*
X22784540Y-15640509D01*
X22917873Y-15440509D02*
X22936921Y-15440509D01*
X22936921Y-15440509D02*
X22955969Y-15450033D01*
X22955969Y-15450033D02*
X22965493Y-15459556D01*
X22965493Y-15459556D02*
X22975016Y-15478604D01*
X22975016Y-15478604D02*
X22984540Y-15516699D01*
X22984540Y-15516699D02*
X22984540Y-15564318D01*
X22984540Y-15564318D02*
X22975016Y-15602414D01*
X22975016Y-15602414D02*
X22965493Y-15621461D01*
X22965493Y-15621461D02*
X22955969Y-15630985D01*
X22955969Y-15630985D02*
X22936921Y-15640509D01*
X22936921Y-15640509D02*
X22917873Y-15640509D01*
X22917873Y-15640509D02*
X22898826Y-15630985D01*
X22898826Y-15630985D02*
X22889302Y-15621461D01*
X22889302Y-15621461D02*
X22879778Y-15602414D01*
X22879778Y-15602414D02*
X22870254Y-15564318D01*
X22870254Y-15564318D02*
X22870254Y-15516699D01*
X22870254Y-15516699D02*
X22879778Y-15478604D01*
X22879778Y-15478604D02*
X22889302Y-15459556D01*
X22889302Y-15459556D02*
X22898826Y-15450033D01*
X22898826Y-15450033D02*
X22917873Y-15440509D01*
X23175016Y-15640509D02*
X23060731Y-15640509D01*
X23117873Y-15640509D02*
X23117873Y-15440509D01*
X23117873Y-15440509D02*
X23098826Y-15469080D01*
X23098826Y-15469080D02*
X23079778Y-15488128D01*
X23079778Y-15488128D02*
X23060731Y-15497652D01*
X23355969Y-15440509D02*
X23260731Y-15440509D01*
X23260731Y-15440509D02*
X23251207Y-15535747D01*
X23251207Y-15535747D02*
X23260731Y-15526223D01*
X23260731Y-15526223D02*
X23279778Y-15516699D01*
X23279778Y-15516699D02*
X23327397Y-15516699D01*
X23327397Y-15516699D02*
X23346445Y-15526223D01*
X23346445Y-15526223D02*
X23355969Y-15535747D01*
X23355969Y-15535747D02*
X23365493Y-15554795D01*
X23365493Y-15554795D02*
X23365493Y-15602414D01*
X23365493Y-15602414D02*
X23355969Y-15621461D01*
X23355969Y-15621461D02*
X23346445Y-15630985D01*
X23346445Y-15630985D02*
X23327397Y-15640509D01*
X23327397Y-15640509D02*
X23279778Y-15640509D01*
X23279778Y-15640509D02*
X23260731Y-15630985D01*
X23260731Y-15630985D02*
X23251207Y-15621461D01*
X23546445Y-15440509D02*
X23451207Y-15440509D01*
X23451207Y-15440509D02*
X23441683Y-15535747D01*
X23441683Y-15535747D02*
X23451207Y-15526223D01*
X23451207Y-15526223D02*
X23470254Y-15516699D01*
X23470254Y-15516699D02*
X23517874Y-15516699D01*
X23517874Y-15516699D02*
X23536921Y-15526223D01*
X23536921Y-15526223D02*
X23546445Y-15535747D01*
X23546445Y-15535747D02*
X23555969Y-15554795D01*
X23555969Y-15554795D02*
X23555969Y-15602414D01*
X23555969Y-15602414D02*
X23546445Y-15621461D01*
X23546445Y-15621461D02*
X23536921Y-15630985D01*
X23536921Y-15630985D02*
X23517874Y-15640509D01*
X23517874Y-15640509D02*
X23470254Y-15640509D01*
X23470254Y-15640509D02*
X23451207Y-15630985D01*
X23451207Y-15630985D02*
X23441683Y-15621461D01*
X23632159Y-15440509D02*
X23632159Y-15478604D01*
X23708350Y-15440509D02*
X23708350Y-15478604D01*
X24003588Y-15716699D02*
X23994064Y-15707175D01*
X23994064Y-15707175D02*
X23975016Y-15678604D01*
X23975016Y-15678604D02*
X23965493Y-15659556D01*
X23965493Y-15659556D02*
X23955969Y-15630985D01*
X23955969Y-15630985D02*
X23946445Y-15583366D01*
X23946445Y-15583366D02*
X23946445Y-15545271D01*
X23946445Y-15545271D02*
X23955969Y-15497652D01*
X23955969Y-15497652D02*
X23965493Y-15469080D01*
X23965493Y-15469080D02*
X23975016Y-15450033D01*
X23975016Y-15450033D02*
X23994064Y-15421461D01*
X23994064Y-15421461D02*
X24003588Y-15411937D01*
X24184540Y-15640509D02*
X24070255Y-15640509D01*
X24127397Y-15640509D02*
X24127397Y-15440509D01*
X24127397Y-15440509D02*
X24108350Y-15469080D01*
X24108350Y-15469080D02*
X24089302Y-15488128D01*
X24089302Y-15488128D02*
X24070255Y-15497652D01*
X24260731Y-15459556D02*
X24270255Y-15450033D01*
X24270255Y-15450033D02*
X24289302Y-15440509D01*
X24289302Y-15440509D02*
X24336921Y-15440509D01*
X24336921Y-15440509D02*
X24355969Y-15450033D01*
X24355969Y-15450033D02*
X24365493Y-15459556D01*
X24365493Y-15459556D02*
X24375016Y-15478604D01*
X24375016Y-15478604D02*
X24375016Y-15497652D01*
X24375016Y-15497652D02*
X24365493Y-15526223D01*
X24365493Y-15526223D02*
X24251207Y-15640509D01*
X24251207Y-15640509D02*
X24375016Y-15640509D01*
X24613112Y-15640509D02*
X24613112Y-15440509D01*
X24698826Y-15640509D02*
X24698826Y-15535747D01*
X24698826Y-15535747D02*
X24689302Y-15516699D01*
X24689302Y-15516699D02*
X24670255Y-15507175D01*
X24670255Y-15507175D02*
X24641683Y-15507175D01*
X24641683Y-15507175D02*
X24622636Y-15516699D01*
X24622636Y-15516699D02*
X24613112Y-15526223D01*
X24822636Y-15640509D02*
X24803588Y-15630985D01*
X24803588Y-15630985D02*
X24794064Y-15621461D01*
X24794064Y-15621461D02*
X24784540Y-15602414D01*
X24784540Y-15602414D02*
X24784540Y-15545271D01*
X24784540Y-15545271D02*
X24794064Y-15526223D01*
X24794064Y-15526223D02*
X24803588Y-15516699D01*
X24803588Y-15516699D02*
X24822636Y-15507175D01*
X24822636Y-15507175D02*
X24851207Y-15507175D01*
X24851207Y-15507175D02*
X24870255Y-15516699D01*
X24870255Y-15516699D02*
X24879778Y-15526223D01*
X24879778Y-15526223D02*
X24889302Y-15545271D01*
X24889302Y-15545271D02*
X24889302Y-15602414D01*
X24889302Y-15602414D02*
X24879778Y-15621461D01*
X24879778Y-15621461D02*
X24870255Y-15630985D01*
X24870255Y-15630985D02*
X24851207Y-15640509D01*
X24851207Y-15640509D02*
X24822636Y-15640509D01*
X25003588Y-15640509D02*
X24984540Y-15630985D01*
X24984540Y-15630985D02*
X24975017Y-15611937D01*
X24975017Y-15611937D02*
X24975017Y-15440509D01*
X25155969Y-15630985D02*
X25136921Y-15640509D01*
X25136921Y-15640509D02*
X25098826Y-15640509D01*
X25098826Y-15640509D02*
X25079778Y-15630985D01*
X25079778Y-15630985D02*
X25070255Y-15611937D01*
X25070255Y-15611937D02*
X25070255Y-15535747D01*
X25070255Y-15535747D02*
X25079778Y-15516699D01*
X25079778Y-15516699D02*
X25098826Y-15507175D01*
X25098826Y-15507175D02*
X25136921Y-15507175D01*
X25136921Y-15507175D02*
X25155969Y-15516699D01*
X25155969Y-15516699D02*
X25165493Y-15535747D01*
X25165493Y-15535747D02*
X25165493Y-15554795D01*
X25165493Y-15554795D02*
X25070255Y-15573842D01*
X25241683Y-15630985D02*
X25260731Y-15640509D01*
X25260731Y-15640509D02*
X25298826Y-15640509D01*
X25298826Y-15640509D02*
X25317874Y-15630985D01*
X25317874Y-15630985D02*
X25327398Y-15611937D01*
X25327398Y-15611937D02*
X25327398Y-15602414D01*
X25327398Y-15602414D02*
X25317874Y-15583366D01*
X25317874Y-15583366D02*
X25298826Y-15573842D01*
X25298826Y-15573842D02*
X25270255Y-15573842D01*
X25270255Y-15573842D02*
X25251207Y-15564318D01*
X25251207Y-15564318D02*
X25241683Y-15545271D01*
X25241683Y-15545271D02*
X25241683Y-15535747D01*
X25241683Y-15535747D02*
X25251207Y-15516699D01*
X25251207Y-15516699D02*
X25270255Y-15507175D01*
X25270255Y-15507175D02*
X25298826Y-15507175D01*
X25298826Y-15507175D02*
X25317874Y-15516699D01*
X25394064Y-15716699D02*
X25403588Y-15707175D01*
X25403588Y-15707175D02*
X25422636Y-15678604D01*
X25422636Y-15678604D02*
X25432159Y-15659556D01*
X25432159Y-15659556D02*
X25441683Y-15630985D01*
X25441683Y-15630985D02*
X25451207Y-15583366D01*
X25451207Y-15583366D02*
X25451207Y-15545271D01*
X25451207Y-15545271D02*
X25441683Y-15497652D01*
X25441683Y-15497652D02*
X25432159Y-15469080D01*
X25432159Y-15469080D02*
X25422636Y-15450033D01*
X25422636Y-15450033D02*
X25403588Y-15421461D01*
X25403588Y-15421461D02*
X25394064Y-15411937D01*
D12*
X20428525Y-15813025D02*
G75*
G02*
X20388525Y-15813025I-20000J0D01*
G01*
X20388525Y-15813025D02*
G75*
G02*
X20428525Y-15813025I20000J0D01*
G01*
D11*
X20727397Y-15704509D02*
X20746445Y-15704509D01*
X20746445Y-15704509D02*
X20765492Y-15714033D01*
X20765492Y-15714033D02*
X20775016Y-15723556D01*
X20775016Y-15723556D02*
X20784540Y-15742604D01*
X20784540Y-15742604D02*
X20794064Y-15780699D01*
X20794064Y-15780699D02*
X20794064Y-15828318D01*
X20794064Y-15828318D02*
X20784540Y-15866414D01*
X20784540Y-15866414D02*
X20775016Y-15885461D01*
X20775016Y-15885461D02*
X20765492Y-15894985D01*
X20765492Y-15894985D02*
X20746445Y-15904509D01*
X20746445Y-15904509D02*
X20727397Y-15904509D01*
X20727397Y-15904509D02*
X20708350Y-15894985D01*
X20708350Y-15894985D02*
X20698826Y-15885461D01*
X20698826Y-15885461D02*
X20689302Y-15866414D01*
X20689302Y-15866414D02*
X20679778Y-15828318D01*
X20679778Y-15828318D02*
X20679778Y-15780699D01*
X20679778Y-15780699D02*
X20689302Y-15742604D01*
X20689302Y-15742604D02*
X20698826Y-15723556D01*
X20698826Y-15723556D02*
X20708350Y-15714033D01*
X20708350Y-15714033D02*
X20727397Y-15704509D01*
X20879778Y-15885461D02*
X20889302Y-15894985D01*
X20889302Y-15894985D02*
X20879778Y-15904509D01*
X20879778Y-15904509D02*
X20870254Y-15894985D01*
X20870254Y-15894985D02*
X20879778Y-15885461D01*
X20879778Y-15885461D02*
X20879778Y-15904509D01*
X21060731Y-15771175D02*
X21060731Y-15904509D01*
X21013111Y-15694985D02*
X20965492Y-15837842D01*
X20965492Y-15837842D02*
X21089302Y-15837842D01*
X21203588Y-15704509D02*
X21222635Y-15704509D01*
X21222635Y-15704509D02*
X21241683Y-15714033D01*
X21241683Y-15714033D02*
X21251207Y-15723556D01*
X21251207Y-15723556D02*
X21260731Y-15742604D01*
X21260731Y-15742604D02*
X21270254Y-15780699D01*
X21270254Y-15780699D02*
X21270254Y-15828318D01*
X21270254Y-15828318D02*
X21260731Y-15866414D01*
X21260731Y-15866414D02*
X21251207Y-15885461D01*
X21251207Y-15885461D02*
X21241683Y-15894985D01*
X21241683Y-15894985D02*
X21222635Y-15904509D01*
X21222635Y-15904509D02*
X21203588Y-15904509D01*
X21203588Y-15904509D02*
X21184540Y-15894985D01*
X21184540Y-15894985D02*
X21175016Y-15885461D01*
X21175016Y-15885461D02*
X21165492Y-15866414D01*
X21165492Y-15866414D02*
X21155969Y-15828318D01*
X21155969Y-15828318D02*
X21155969Y-15780699D01*
X21155969Y-15780699D02*
X21165492Y-15742604D01*
X21165492Y-15742604D02*
X21175016Y-15723556D01*
X21175016Y-15723556D02*
X21184540Y-15714033D01*
X21184540Y-15714033D02*
X21203588Y-15704509D01*
X21394064Y-15704509D02*
X21413112Y-15704509D01*
X21413112Y-15704509D02*
X21432159Y-15714033D01*
X21432159Y-15714033D02*
X21441683Y-15723556D01*
X21441683Y-15723556D02*
X21451207Y-15742604D01*
X21451207Y-15742604D02*
X21460731Y-15780699D01*
X21460731Y-15780699D02*
X21460731Y-15828318D01*
X21460731Y-15828318D02*
X21451207Y-15866414D01*
X21451207Y-15866414D02*
X21441683Y-15885461D01*
X21441683Y-15885461D02*
X21432159Y-15894985D01*
X21432159Y-15894985D02*
X21413112Y-15904509D01*
X21413112Y-15904509D02*
X21394064Y-15904509D01*
X21394064Y-15904509D02*
X21375016Y-15894985D01*
X21375016Y-15894985D02*
X21365492Y-15885461D01*
X21365492Y-15885461D02*
X21355969Y-15866414D01*
X21355969Y-15866414D02*
X21346445Y-15828318D01*
X21346445Y-15828318D02*
X21346445Y-15780699D01*
X21346445Y-15780699D02*
X21355969Y-15742604D01*
X21355969Y-15742604D02*
X21365492Y-15723556D01*
X21365492Y-15723556D02*
X21375016Y-15714033D01*
X21375016Y-15714033D02*
X21394064Y-15704509D01*
X21546445Y-15904509D02*
X21546445Y-15771175D01*
X21546445Y-15790223D02*
X21555969Y-15780699D01*
X21555969Y-15780699D02*
X21575016Y-15771175D01*
X21575016Y-15771175D02*
X21603588Y-15771175D01*
X21603588Y-15771175D02*
X21622635Y-15780699D01*
X21622635Y-15780699D02*
X21632159Y-15799747D01*
X21632159Y-15799747D02*
X21632159Y-15904509D01*
X21632159Y-15799747D02*
X21641683Y-15780699D01*
X21641683Y-15780699D02*
X21660731Y-15771175D01*
X21660731Y-15771175D02*
X21689302Y-15771175D01*
X21689302Y-15771175D02*
X21708350Y-15780699D01*
X21708350Y-15780699D02*
X21717873Y-15799747D01*
X21717873Y-15799747D02*
X21717873Y-15904509D01*
X21813112Y-15904509D02*
X21813112Y-15771175D01*
X21813112Y-15790223D02*
X21822635Y-15780699D01*
X21822635Y-15780699D02*
X21841683Y-15771175D01*
X21841683Y-15771175D02*
X21870254Y-15771175D01*
X21870254Y-15771175D02*
X21889302Y-15780699D01*
X21889302Y-15780699D02*
X21898826Y-15799747D01*
X21898826Y-15799747D02*
X21898826Y-15904509D01*
X21898826Y-15799747D02*
X21908350Y-15780699D01*
X21908350Y-15780699D02*
X21927397Y-15771175D01*
X21927397Y-15771175D02*
X21955969Y-15771175D01*
X21955969Y-15771175D02*
X21975016Y-15780699D01*
X21975016Y-15780699D02*
X21984540Y-15799747D01*
X21984540Y-15799747D02*
X21984540Y-15904509D01*
X22375016Y-15694985D02*
X22203588Y-15952128D01*
X22632159Y-15704509D02*
X22651207Y-15704509D01*
X22651207Y-15704509D02*
X22670254Y-15714033D01*
X22670254Y-15714033D02*
X22679778Y-15723556D01*
X22679778Y-15723556D02*
X22689302Y-15742604D01*
X22689302Y-15742604D02*
X22698826Y-15780699D01*
X22698826Y-15780699D02*
X22698826Y-15828318D01*
X22698826Y-15828318D02*
X22689302Y-15866414D01*
X22689302Y-15866414D02*
X22679778Y-15885461D01*
X22679778Y-15885461D02*
X22670254Y-15894985D01*
X22670254Y-15894985D02*
X22651207Y-15904509D01*
X22651207Y-15904509D02*
X22632159Y-15904509D01*
X22632159Y-15904509D02*
X22613112Y-15894985D01*
X22613112Y-15894985D02*
X22603588Y-15885461D01*
X22603588Y-15885461D02*
X22594064Y-15866414D01*
X22594064Y-15866414D02*
X22584540Y-15828318D01*
X22584540Y-15828318D02*
X22584540Y-15780699D01*
X22584540Y-15780699D02*
X22594064Y-15742604D01*
X22594064Y-15742604D02*
X22603588Y-15723556D01*
X22603588Y-15723556D02*
X22613112Y-15714033D01*
X22613112Y-15714033D02*
X22632159Y-15704509D01*
X22784540Y-15885461D02*
X22794064Y-15894985D01*
X22794064Y-15894985D02*
X22784540Y-15904509D01*
X22784540Y-15904509D02*
X22775016Y-15894985D01*
X22775016Y-15894985D02*
X22784540Y-15885461D01*
X22784540Y-15885461D02*
X22784540Y-15904509D01*
X22917873Y-15704509D02*
X22936921Y-15704509D01*
X22936921Y-15704509D02*
X22955969Y-15714033D01*
X22955969Y-15714033D02*
X22965493Y-15723556D01*
X22965493Y-15723556D02*
X22975016Y-15742604D01*
X22975016Y-15742604D02*
X22984540Y-15780699D01*
X22984540Y-15780699D02*
X22984540Y-15828318D01*
X22984540Y-15828318D02*
X22975016Y-15866414D01*
X22975016Y-15866414D02*
X22965493Y-15885461D01*
X22965493Y-15885461D02*
X22955969Y-15894985D01*
X22955969Y-15894985D02*
X22936921Y-15904509D01*
X22936921Y-15904509D02*
X22917873Y-15904509D01*
X22917873Y-15904509D02*
X22898826Y-15894985D01*
X22898826Y-15894985D02*
X22889302Y-15885461D01*
X22889302Y-15885461D02*
X22879778Y-15866414D01*
X22879778Y-15866414D02*
X22870254Y-15828318D01*
X22870254Y-15828318D02*
X22870254Y-15780699D01*
X22870254Y-15780699D02*
X22879778Y-15742604D01*
X22879778Y-15742604D02*
X22889302Y-15723556D01*
X22889302Y-15723556D02*
X22898826Y-15714033D01*
X22898826Y-15714033D02*
X22917873Y-15704509D01*
X23175016Y-15904509D02*
X23060731Y-15904509D01*
X23117873Y-15904509D02*
X23117873Y-15704509D01*
X23117873Y-15704509D02*
X23098826Y-15733080D01*
X23098826Y-15733080D02*
X23079778Y-15752128D01*
X23079778Y-15752128D02*
X23060731Y-15761652D01*
X23355969Y-15704509D02*
X23260731Y-15704509D01*
X23260731Y-15704509D02*
X23251207Y-15799747D01*
X23251207Y-15799747D02*
X23260731Y-15790223D01*
X23260731Y-15790223D02*
X23279778Y-15780699D01*
X23279778Y-15780699D02*
X23327397Y-15780699D01*
X23327397Y-15780699D02*
X23346445Y-15790223D01*
X23346445Y-15790223D02*
X23355969Y-15799747D01*
X23355969Y-15799747D02*
X23365493Y-15818795D01*
X23365493Y-15818795D02*
X23365493Y-15866414D01*
X23365493Y-15866414D02*
X23355969Y-15885461D01*
X23355969Y-15885461D02*
X23346445Y-15894985D01*
X23346445Y-15894985D02*
X23327397Y-15904509D01*
X23327397Y-15904509D02*
X23279778Y-15904509D01*
X23279778Y-15904509D02*
X23260731Y-15894985D01*
X23260731Y-15894985D02*
X23251207Y-15885461D01*
X23432159Y-15704509D02*
X23565493Y-15704509D01*
X23565493Y-15704509D02*
X23479778Y-15904509D01*
X23632159Y-15704509D02*
X23632159Y-15742604D01*
X23708350Y-15704509D02*
X23708350Y-15742604D01*
X24003588Y-15980699D02*
X23994064Y-15971175D01*
X23994064Y-15971175D02*
X23975016Y-15942604D01*
X23975016Y-15942604D02*
X23965493Y-15923556D01*
X23965493Y-15923556D02*
X23955969Y-15894985D01*
X23955969Y-15894985D02*
X23946445Y-15847366D01*
X23946445Y-15847366D02*
X23946445Y-15809271D01*
X23946445Y-15809271D02*
X23955969Y-15761652D01*
X23955969Y-15761652D02*
X23965493Y-15733080D01*
X23965493Y-15733080D02*
X23975016Y-15714033D01*
X23975016Y-15714033D02*
X23994064Y-15685461D01*
X23994064Y-15685461D02*
X24003588Y-15675937D01*
X24175016Y-15704509D02*
X24079778Y-15704509D01*
X24079778Y-15704509D02*
X24070255Y-15799747D01*
X24070255Y-15799747D02*
X24079778Y-15790223D01*
X24079778Y-15790223D02*
X24098826Y-15780699D01*
X24098826Y-15780699D02*
X24146445Y-15780699D01*
X24146445Y-15780699D02*
X24165493Y-15790223D01*
X24165493Y-15790223D02*
X24175016Y-15799747D01*
X24175016Y-15799747D02*
X24184540Y-15818795D01*
X24184540Y-15818795D02*
X24184540Y-15866414D01*
X24184540Y-15866414D02*
X24175016Y-15885461D01*
X24175016Y-15885461D02*
X24165493Y-15894985D01*
X24165493Y-15894985D02*
X24146445Y-15904509D01*
X24146445Y-15904509D02*
X24098826Y-15904509D01*
X24098826Y-15904509D02*
X24079778Y-15894985D01*
X24079778Y-15894985D02*
X24070255Y-15885461D01*
X24355969Y-15704509D02*
X24317874Y-15704509D01*
X24317874Y-15704509D02*
X24298826Y-15714033D01*
X24298826Y-15714033D02*
X24289302Y-15723556D01*
X24289302Y-15723556D02*
X24270255Y-15752128D01*
X24270255Y-15752128D02*
X24260731Y-15790223D01*
X24260731Y-15790223D02*
X24260731Y-15866414D01*
X24260731Y-15866414D02*
X24270255Y-15885461D01*
X24270255Y-15885461D02*
X24279778Y-15894985D01*
X24279778Y-15894985D02*
X24298826Y-15904509D01*
X24298826Y-15904509D02*
X24336921Y-15904509D01*
X24336921Y-15904509D02*
X24355969Y-15894985D01*
X24355969Y-15894985D02*
X24365493Y-15885461D01*
X24365493Y-15885461D02*
X24375016Y-15866414D01*
X24375016Y-15866414D02*
X24375016Y-15818795D01*
X24375016Y-15818795D02*
X24365493Y-15799747D01*
X24365493Y-15799747D02*
X24355969Y-15790223D01*
X24355969Y-15790223D02*
X24336921Y-15780699D01*
X24336921Y-15780699D02*
X24298826Y-15780699D01*
X24298826Y-15780699D02*
X24279778Y-15790223D01*
X24279778Y-15790223D02*
X24270255Y-15799747D01*
X24270255Y-15799747D02*
X24260731Y-15818795D01*
X24613112Y-15904509D02*
X24613112Y-15704509D01*
X24698826Y-15904509D02*
X24698826Y-15799747D01*
X24698826Y-15799747D02*
X24689302Y-15780699D01*
X24689302Y-15780699D02*
X24670255Y-15771175D01*
X24670255Y-15771175D02*
X24641683Y-15771175D01*
X24641683Y-15771175D02*
X24622636Y-15780699D01*
X24622636Y-15780699D02*
X24613112Y-15790223D01*
X24822636Y-15904509D02*
X24803588Y-15894985D01*
X24803588Y-15894985D02*
X24794064Y-15885461D01*
X24794064Y-15885461D02*
X24784540Y-15866414D01*
X24784540Y-15866414D02*
X24784540Y-15809271D01*
X24784540Y-15809271D02*
X24794064Y-15790223D01*
X24794064Y-15790223D02*
X24803588Y-15780699D01*
X24803588Y-15780699D02*
X24822636Y-15771175D01*
X24822636Y-15771175D02*
X24851207Y-15771175D01*
X24851207Y-15771175D02*
X24870255Y-15780699D01*
X24870255Y-15780699D02*
X24879778Y-15790223D01*
X24879778Y-15790223D02*
X24889302Y-15809271D01*
X24889302Y-15809271D02*
X24889302Y-15866414D01*
X24889302Y-15866414D02*
X24879778Y-15885461D01*
X24879778Y-15885461D02*
X24870255Y-15894985D01*
X24870255Y-15894985D02*
X24851207Y-15904509D01*
X24851207Y-15904509D02*
X24822636Y-15904509D01*
X25003588Y-15904509D02*
X24984540Y-15894985D01*
X24984540Y-15894985D02*
X24975017Y-15875937D01*
X24975017Y-15875937D02*
X24975017Y-15704509D01*
X25155969Y-15894985D02*
X25136921Y-15904509D01*
X25136921Y-15904509D02*
X25098826Y-15904509D01*
X25098826Y-15904509D02*
X25079778Y-15894985D01*
X25079778Y-15894985D02*
X25070255Y-15875937D01*
X25070255Y-15875937D02*
X25070255Y-15799747D01*
X25070255Y-15799747D02*
X25079778Y-15780699D01*
X25079778Y-15780699D02*
X25098826Y-15771175D01*
X25098826Y-15771175D02*
X25136921Y-15771175D01*
X25136921Y-15771175D02*
X25155969Y-15780699D01*
X25155969Y-15780699D02*
X25165493Y-15799747D01*
X25165493Y-15799747D02*
X25165493Y-15818795D01*
X25165493Y-15818795D02*
X25070255Y-15837842D01*
X25241683Y-15894985D02*
X25260731Y-15904509D01*
X25260731Y-15904509D02*
X25298826Y-15904509D01*
X25298826Y-15904509D02*
X25317874Y-15894985D01*
X25317874Y-15894985D02*
X25327398Y-15875937D01*
X25327398Y-15875937D02*
X25327398Y-15866414D01*
X25327398Y-15866414D02*
X25317874Y-15847366D01*
X25317874Y-15847366D02*
X25298826Y-15837842D01*
X25298826Y-15837842D02*
X25270255Y-15837842D01*
X25270255Y-15837842D02*
X25251207Y-15828318D01*
X25251207Y-15828318D02*
X25241683Y-15809271D01*
X25241683Y-15809271D02*
X25241683Y-15799747D01*
X25241683Y-15799747D02*
X25251207Y-15780699D01*
X25251207Y-15780699D02*
X25270255Y-15771175D01*
X25270255Y-15771175D02*
X25298826Y-15771175D01*
X25298826Y-15771175D02*
X25317874Y-15780699D01*
X25394064Y-15980699D02*
X25403588Y-15971175D01*
X25403588Y-15971175D02*
X25422636Y-15942604D01*
X25422636Y-15942604D02*
X25432159Y-15923556D01*
X25432159Y-15923556D02*
X25441683Y-15894985D01*
X25441683Y-15894985D02*
X25451207Y-15847366D01*
X25451207Y-15847366D02*
X25451207Y-15809271D01*
X25451207Y-15809271D02*
X25441683Y-15761652D01*
X25441683Y-15761652D02*
X25432159Y-15733080D01*
X25432159Y-15733080D02*
X25422636Y-15714033D01*
X25422636Y-15714033D02*
X25403588Y-15685461D01*
X25403588Y-15685461D02*
X25394064Y-15675937D01*
D12*
X20403525Y-16052025D02*
X20403525Y-16102025D01*
X20378525Y-16077025D02*
X20428525Y-16077025D01*
D11*
X20727397Y-15968509D02*
X20746445Y-15968509D01*
X20746445Y-15968509D02*
X20765492Y-15978033D01*
X20765492Y-15978033D02*
X20775016Y-15987556D01*
X20775016Y-15987556D02*
X20784540Y-16006604D01*
X20784540Y-16006604D02*
X20794064Y-16044699D01*
X20794064Y-16044699D02*
X20794064Y-16092318D01*
X20794064Y-16092318D02*
X20784540Y-16130414D01*
X20784540Y-16130414D02*
X20775016Y-16149461D01*
X20775016Y-16149461D02*
X20765492Y-16158985D01*
X20765492Y-16158985D02*
X20746445Y-16168509D01*
X20746445Y-16168509D02*
X20727397Y-16168509D01*
X20727397Y-16168509D02*
X20708350Y-16158985D01*
X20708350Y-16158985D02*
X20698826Y-16149461D01*
X20698826Y-16149461D02*
X20689302Y-16130414D01*
X20689302Y-16130414D02*
X20679778Y-16092318D01*
X20679778Y-16092318D02*
X20679778Y-16044699D01*
X20679778Y-16044699D02*
X20689302Y-16006604D01*
X20689302Y-16006604D02*
X20698826Y-15987556D01*
X20698826Y-15987556D02*
X20708350Y-15978033D01*
X20708350Y-15978033D02*
X20727397Y-15968509D01*
X20879778Y-16149461D02*
X20889302Y-16158985D01*
X20889302Y-16158985D02*
X20879778Y-16168509D01*
X20879778Y-16168509D02*
X20870254Y-16158985D01*
X20870254Y-16158985D02*
X20879778Y-16149461D01*
X20879778Y-16149461D02*
X20879778Y-16168509D01*
X21070254Y-15968509D02*
X20975016Y-15968509D01*
X20975016Y-15968509D02*
X20965492Y-16063747D01*
X20965492Y-16063747D02*
X20975016Y-16054223D01*
X20975016Y-16054223D02*
X20994064Y-16044699D01*
X20994064Y-16044699D02*
X21041683Y-16044699D01*
X21041683Y-16044699D02*
X21060731Y-16054223D01*
X21060731Y-16054223D02*
X21070254Y-16063747D01*
X21070254Y-16063747D02*
X21079778Y-16082795D01*
X21079778Y-16082795D02*
X21079778Y-16130414D01*
X21079778Y-16130414D02*
X21070254Y-16149461D01*
X21070254Y-16149461D02*
X21060731Y-16158985D01*
X21060731Y-16158985D02*
X21041683Y-16168509D01*
X21041683Y-16168509D02*
X20994064Y-16168509D01*
X20994064Y-16168509D02*
X20975016Y-16158985D01*
X20975016Y-16158985D02*
X20965492Y-16149461D01*
X21203588Y-15968509D02*
X21222635Y-15968509D01*
X21222635Y-15968509D02*
X21241683Y-15978033D01*
X21241683Y-15978033D02*
X21251207Y-15987556D01*
X21251207Y-15987556D02*
X21260731Y-16006604D01*
X21260731Y-16006604D02*
X21270254Y-16044699D01*
X21270254Y-16044699D02*
X21270254Y-16092318D01*
X21270254Y-16092318D02*
X21260731Y-16130414D01*
X21260731Y-16130414D02*
X21251207Y-16149461D01*
X21251207Y-16149461D02*
X21241683Y-16158985D01*
X21241683Y-16158985D02*
X21222635Y-16168509D01*
X21222635Y-16168509D02*
X21203588Y-16168509D01*
X21203588Y-16168509D02*
X21184540Y-16158985D01*
X21184540Y-16158985D02*
X21175016Y-16149461D01*
X21175016Y-16149461D02*
X21165492Y-16130414D01*
X21165492Y-16130414D02*
X21155969Y-16092318D01*
X21155969Y-16092318D02*
X21155969Y-16044699D01*
X21155969Y-16044699D02*
X21165492Y-16006604D01*
X21165492Y-16006604D02*
X21175016Y-15987556D01*
X21175016Y-15987556D02*
X21184540Y-15978033D01*
X21184540Y-15978033D02*
X21203588Y-15968509D01*
X21394064Y-15968509D02*
X21413112Y-15968509D01*
X21413112Y-15968509D02*
X21432159Y-15978033D01*
X21432159Y-15978033D02*
X21441683Y-15987556D01*
X21441683Y-15987556D02*
X21451207Y-16006604D01*
X21451207Y-16006604D02*
X21460731Y-16044699D01*
X21460731Y-16044699D02*
X21460731Y-16092318D01*
X21460731Y-16092318D02*
X21451207Y-16130414D01*
X21451207Y-16130414D02*
X21441683Y-16149461D01*
X21441683Y-16149461D02*
X21432159Y-16158985D01*
X21432159Y-16158985D02*
X21413112Y-16168509D01*
X21413112Y-16168509D02*
X21394064Y-16168509D01*
X21394064Y-16168509D02*
X21375016Y-16158985D01*
X21375016Y-16158985D02*
X21365492Y-16149461D01*
X21365492Y-16149461D02*
X21355969Y-16130414D01*
X21355969Y-16130414D02*
X21346445Y-16092318D01*
X21346445Y-16092318D02*
X21346445Y-16044699D01*
X21346445Y-16044699D02*
X21355969Y-16006604D01*
X21355969Y-16006604D02*
X21365492Y-15987556D01*
X21365492Y-15987556D02*
X21375016Y-15978033D01*
X21375016Y-15978033D02*
X21394064Y-15968509D01*
X21546445Y-16168509D02*
X21546445Y-16035175D01*
X21546445Y-16054223D02*
X21555969Y-16044699D01*
X21555969Y-16044699D02*
X21575016Y-16035175D01*
X21575016Y-16035175D02*
X21603588Y-16035175D01*
X21603588Y-16035175D02*
X21622635Y-16044699D01*
X21622635Y-16044699D02*
X21632159Y-16063747D01*
X21632159Y-16063747D02*
X21632159Y-16168509D01*
X21632159Y-16063747D02*
X21641683Y-16044699D01*
X21641683Y-16044699D02*
X21660731Y-16035175D01*
X21660731Y-16035175D02*
X21689302Y-16035175D01*
X21689302Y-16035175D02*
X21708350Y-16044699D01*
X21708350Y-16044699D02*
X21717873Y-16063747D01*
X21717873Y-16063747D02*
X21717873Y-16168509D01*
X21813112Y-16168509D02*
X21813112Y-16035175D01*
X21813112Y-16054223D02*
X21822635Y-16044699D01*
X21822635Y-16044699D02*
X21841683Y-16035175D01*
X21841683Y-16035175D02*
X21870254Y-16035175D01*
X21870254Y-16035175D02*
X21889302Y-16044699D01*
X21889302Y-16044699D02*
X21898826Y-16063747D01*
X21898826Y-16063747D02*
X21898826Y-16168509D01*
X21898826Y-16063747D02*
X21908350Y-16044699D01*
X21908350Y-16044699D02*
X21927397Y-16035175D01*
X21927397Y-16035175D02*
X21955969Y-16035175D01*
X21955969Y-16035175D02*
X21975016Y-16044699D01*
X21975016Y-16044699D02*
X21984540Y-16063747D01*
X21984540Y-16063747D02*
X21984540Y-16168509D01*
X22375016Y-15958985D02*
X22203588Y-16216128D01*
X22632159Y-15968509D02*
X22651207Y-15968509D01*
X22651207Y-15968509D02*
X22670254Y-15978033D01*
X22670254Y-15978033D02*
X22679778Y-15987556D01*
X22679778Y-15987556D02*
X22689302Y-16006604D01*
X22689302Y-16006604D02*
X22698826Y-16044699D01*
X22698826Y-16044699D02*
X22698826Y-16092318D01*
X22698826Y-16092318D02*
X22689302Y-16130414D01*
X22689302Y-16130414D02*
X22679778Y-16149461D01*
X22679778Y-16149461D02*
X22670254Y-16158985D01*
X22670254Y-16158985D02*
X22651207Y-16168509D01*
X22651207Y-16168509D02*
X22632159Y-16168509D01*
X22632159Y-16168509D02*
X22613112Y-16158985D01*
X22613112Y-16158985D02*
X22603588Y-16149461D01*
X22603588Y-16149461D02*
X22594064Y-16130414D01*
X22594064Y-16130414D02*
X22584540Y-16092318D01*
X22584540Y-16092318D02*
X22584540Y-16044699D01*
X22584540Y-16044699D02*
X22594064Y-16006604D01*
X22594064Y-16006604D02*
X22603588Y-15987556D01*
X22603588Y-15987556D02*
X22613112Y-15978033D01*
X22613112Y-15978033D02*
X22632159Y-15968509D01*
X22784540Y-16149461D02*
X22794064Y-16158985D01*
X22794064Y-16158985D02*
X22784540Y-16168509D01*
X22784540Y-16168509D02*
X22775016Y-16158985D01*
X22775016Y-16158985D02*
X22784540Y-16149461D01*
X22784540Y-16149461D02*
X22784540Y-16168509D01*
X22917873Y-15968509D02*
X22936921Y-15968509D01*
X22936921Y-15968509D02*
X22955969Y-15978033D01*
X22955969Y-15978033D02*
X22965493Y-15987556D01*
X22965493Y-15987556D02*
X22975016Y-16006604D01*
X22975016Y-16006604D02*
X22984540Y-16044699D01*
X22984540Y-16044699D02*
X22984540Y-16092318D01*
X22984540Y-16092318D02*
X22975016Y-16130414D01*
X22975016Y-16130414D02*
X22965493Y-16149461D01*
X22965493Y-16149461D02*
X22955969Y-16158985D01*
X22955969Y-16158985D02*
X22936921Y-16168509D01*
X22936921Y-16168509D02*
X22917873Y-16168509D01*
X22917873Y-16168509D02*
X22898826Y-16158985D01*
X22898826Y-16158985D02*
X22889302Y-16149461D01*
X22889302Y-16149461D02*
X22879778Y-16130414D01*
X22879778Y-16130414D02*
X22870254Y-16092318D01*
X22870254Y-16092318D02*
X22870254Y-16044699D01*
X22870254Y-16044699D02*
X22879778Y-16006604D01*
X22879778Y-16006604D02*
X22889302Y-15987556D01*
X22889302Y-15987556D02*
X22898826Y-15978033D01*
X22898826Y-15978033D02*
X22917873Y-15968509D01*
X23175016Y-16168509D02*
X23060731Y-16168509D01*
X23117873Y-16168509D02*
X23117873Y-15968509D01*
X23117873Y-15968509D02*
X23098826Y-15997080D01*
X23098826Y-15997080D02*
X23079778Y-16016128D01*
X23079778Y-16016128D02*
X23060731Y-16025652D01*
X23270254Y-16168509D02*
X23308350Y-16168509D01*
X23308350Y-16168509D02*
X23327397Y-16158985D01*
X23327397Y-16158985D02*
X23336921Y-16149461D01*
X23336921Y-16149461D02*
X23355969Y-16120890D01*
X23355969Y-16120890D02*
X23365493Y-16082795D01*
X23365493Y-16082795D02*
X23365493Y-16006604D01*
X23365493Y-16006604D02*
X23355969Y-15987556D01*
X23355969Y-15987556D02*
X23346445Y-15978033D01*
X23346445Y-15978033D02*
X23327397Y-15968509D01*
X23327397Y-15968509D02*
X23289302Y-15968509D01*
X23289302Y-15968509D02*
X23270254Y-15978033D01*
X23270254Y-15978033D02*
X23260731Y-15987556D01*
X23260731Y-15987556D02*
X23251207Y-16006604D01*
X23251207Y-16006604D02*
X23251207Y-16054223D01*
X23251207Y-16054223D02*
X23260731Y-16073271D01*
X23260731Y-16073271D02*
X23270254Y-16082795D01*
X23270254Y-16082795D02*
X23289302Y-16092318D01*
X23289302Y-16092318D02*
X23327397Y-16092318D01*
X23327397Y-16092318D02*
X23346445Y-16082795D01*
X23346445Y-16082795D02*
X23355969Y-16073271D01*
X23355969Y-16073271D02*
X23365493Y-16054223D01*
X23432159Y-15968509D02*
X23565493Y-15968509D01*
X23565493Y-15968509D02*
X23479778Y-16168509D01*
X23632159Y-15968509D02*
X23632159Y-16006604D01*
X23708350Y-15968509D02*
X23708350Y-16006604D01*
X24003588Y-16244699D02*
X23994064Y-16235175D01*
X23994064Y-16235175D02*
X23975016Y-16206604D01*
X23975016Y-16206604D02*
X23965493Y-16187556D01*
X23965493Y-16187556D02*
X23955969Y-16158985D01*
X23955969Y-16158985D02*
X23946445Y-16111366D01*
X23946445Y-16111366D02*
X23946445Y-16073271D01*
X23946445Y-16073271D02*
X23955969Y-16025652D01*
X23955969Y-16025652D02*
X23965493Y-15997080D01*
X23965493Y-15997080D02*
X23975016Y-15978033D01*
X23975016Y-15978033D02*
X23994064Y-15949461D01*
X23994064Y-15949461D02*
X24003588Y-15939937D01*
X24117874Y-15968509D02*
X24136921Y-15968509D01*
X24136921Y-15968509D02*
X24155969Y-15978033D01*
X24155969Y-15978033D02*
X24165493Y-15987556D01*
X24165493Y-15987556D02*
X24175016Y-16006604D01*
X24175016Y-16006604D02*
X24184540Y-16044699D01*
X24184540Y-16044699D02*
X24184540Y-16092318D01*
X24184540Y-16092318D02*
X24175016Y-16130414D01*
X24175016Y-16130414D02*
X24165493Y-16149461D01*
X24165493Y-16149461D02*
X24155969Y-16158985D01*
X24155969Y-16158985D02*
X24136921Y-16168509D01*
X24136921Y-16168509D02*
X24117874Y-16168509D01*
X24117874Y-16168509D02*
X24098826Y-16158985D01*
X24098826Y-16158985D02*
X24089302Y-16149461D01*
X24089302Y-16149461D02*
X24079778Y-16130414D01*
X24079778Y-16130414D02*
X24070255Y-16092318D01*
X24070255Y-16092318D02*
X24070255Y-16044699D01*
X24070255Y-16044699D02*
X24079778Y-16006604D01*
X24079778Y-16006604D02*
X24089302Y-15987556D01*
X24089302Y-15987556D02*
X24098826Y-15978033D01*
X24098826Y-15978033D02*
X24117874Y-15968509D01*
X24422636Y-16168509D02*
X24422636Y-15968509D01*
X24508350Y-16168509D02*
X24508350Y-16063747D01*
X24508350Y-16063747D02*
X24498826Y-16044699D01*
X24498826Y-16044699D02*
X24479778Y-16035175D01*
X24479778Y-16035175D02*
X24451207Y-16035175D01*
X24451207Y-16035175D02*
X24432159Y-16044699D01*
X24432159Y-16044699D02*
X24422636Y-16054223D01*
X24632159Y-16168509D02*
X24613112Y-16158985D01*
X24613112Y-16158985D02*
X24603588Y-16149461D01*
X24603588Y-16149461D02*
X24594064Y-16130414D01*
X24594064Y-16130414D02*
X24594064Y-16073271D01*
X24594064Y-16073271D02*
X24603588Y-16054223D01*
X24603588Y-16054223D02*
X24613112Y-16044699D01*
X24613112Y-16044699D02*
X24632159Y-16035175D01*
X24632159Y-16035175D02*
X24660731Y-16035175D01*
X24660731Y-16035175D02*
X24679778Y-16044699D01*
X24679778Y-16044699D02*
X24689302Y-16054223D01*
X24689302Y-16054223D02*
X24698826Y-16073271D01*
X24698826Y-16073271D02*
X24698826Y-16130414D01*
X24698826Y-16130414D02*
X24689302Y-16149461D01*
X24689302Y-16149461D02*
X24679778Y-16158985D01*
X24679778Y-16158985D02*
X24660731Y-16168509D01*
X24660731Y-16168509D02*
X24632159Y-16168509D01*
X24813112Y-16168509D02*
X24794064Y-16158985D01*
X24794064Y-16158985D02*
X24784540Y-16139937D01*
X24784540Y-16139937D02*
X24784540Y-15968509D01*
X24965493Y-16158985D02*
X24946445Y-16168509D01*
X24946445Y-16168509D02*
X24908350Y-16168509D01*
X24908350Y-16168509D02*
X24889302Y-16158985D01*
X24889302Y-16158985D02*
X24879778Y-16139937D01*
X24879778Y-16139937D02*
X24879778Y-16063747D01*
X24879778Y-16063747D02*
X24889302Y-16044699D01*
X24889302Y-16044699D02*
X24908350Y-16035175D01*
X24908350Y-16035175D02*
X24946445Y-16035175D01*
X24946445Y-16035175D02*
X24965493Y-16044699D01*
X24965493Y-16044699D02*
X24975017Y-16063747D01*
X24975017Y-16063747D02*
X24975017Y-16082795D01*
X24975017Y-16082795D02*
X24879778Y-16101842D01*
X25051207Y-16158985D02*
X25070255Y-16168509D01*
X25070255Y-16168509D02*
X25108350Y-16168509D01*
X25108350Y-16168509D02*
X25127398Y-16158985D01*
X25127398Y-16158985D02*
X25136921Y-16139937D01*
X25136921Y-16139937D02*
X25136921Y-16130414D01*
X25136921Y-16130414D02*
X25127398Y-16111366D01*
X25127398Y-16111366D02*
X25108350Y-16101842D01*
X25108350Y-16101842D02*
X25079778Y-16101842D01*
X25079778Y-16101842D02*
X25060731Y-16092318D01*
X25060731Y-16092318D02*
X25051207Y-16073271D01*
X25051207Y-16073271D02*
X25051207Y-16063747D01*
X25051207Y-16063747D02*
X25060731Y-16044699D01*
X25060731Y-16044699D02*
X25079778Y-16035175D01*
X25079778Y-16035175D02*
X25108350Y-16035175D01*
X25108350Y-16035175D02*
X25127398Y-16044699D01*
X25375017Y-16092318D02*
X25527398Y-16092318D01*
X25451207Y-16168509D02*
X25451207Y-16016128D01*
X25765493Y-15987556D02*
X25775017Y-15978033D01*
X25775017Y-15978033D02*
X25794064Y-15968509D01*
X25794064Y-15968509D02*
X25841683Y-15968509D01*
X25841683Y-15968509D02*
X25860731Y-15978033D01*
X25860731Y-15978033D02*
X25870255Y-15987556D01*
X25870255Y-15987556D02*
X25879779Y-16006604D01*
X25879779Y-16006604D02*
X25879779Y-16025652D01*
X25879779Y-16025652D02*
X25870255Y-16054223D01*
X25870255Y-16054223D02*
X25755969Y-16168509D01*
X25755969Y-16168509D02*
X25879779Y-16168509D01*
X26108350Y-16158985D02*
X26127398Y-16168509D01*
X26127398Y-16168509D02*
X26165493Y-16168509D01*
X26165493Y-16168509D02*
X26184541Y-16158985D01*
X26184541Y-16158985D02*
X26194064Y-16139937D01*
X26194064Y-16139937D02*
X26194064Y-16130414D01*
X26194064Y-16130414D02*
X26184541Y-16111366D01*
X26184541Y-16111366D02*
X26165493Y-16101842D01*
X26165493Y-16101842D02*
X26136921Y-16101842D01*
X26136921Y-16101842D02*
X26117874Y-16092318D01*
X26117874Y-16092318D02*
X26108350Y-16073271D01*
X26108350Y-16073271D02*
X26108350Y-16063747D01*
X26108350Y-16063747D02*
X26117874Y-16044699D01*
X26117874Y-16044699D02*
X26136921Y-16035175D01*
X26136921Y-16035175D02*
X26165493Y-16035175D01*
X26165493Y-16035175D02*
X26184541Y-16044699D01*
X26308350Y-16168509D02*
X26289302Y-16158985D01*
X26289302Y-16158985D02*
X26279779Y-16139937D01*
X26279779Y-16139937D02*
X26279779Y-15968509D01*
X26413112Y-16168509D02*
X26394064Y-16158985D01*
X26394064Y-16158985D02*
X26384541Y-16149461D01*
X26384541Y-16149461D02*
X26375017Y-16130414D01*
X26375017Y-16130414D02*
X26375017Y-16073271D01*
X26375017Y-16073271D02*
X26384541Y-16054223D01*
X26384541Y-16054223D02*
X26394064Y-16044699D01*
X26394064Y-16044699D02*
X26413112Y-16035175D01*
X26413112Y-16035175D02*
X26441683Y-16035175D01*
X26441683Y-16035175D02*
X26460731Y-16044699D01*
X26460731Y-16044699D02*
X26470255Y-16054223D01*
X26470255Y-16054223D02*
X26479779Y-16073271D01*
X26479779Y-16073271D02*
X26479779Y-16130414D01*
X26479779Y-16130414D02*
X26470255Y-16149461D01*
X26470255Y-16149461D02*
X26460731Y-16158985D01*
X26460731Y-16158985D02*
X26441683Y-16168509D01*
X26441683Y-16168509D02*
X26413112Y-16168509D01*
X26536922Y-16035175D02*
X26613112Y-16035175D01*
X26565493Y-15968509D02*
X26565493Y-16139937D01*
X26565493Y-16139937D02*
X26575017Y-16158985D01*
X26575017Y-16158985D02*
X26594064Y-16168509D01*
X26594064Y-16168509D02*
X26613112Y-16168509D01*
X26670255Y-16158985D02*
X26689302Y-16168509D01*
X26689302Y-16168509D02*
X26727398Y-16168509D01*
X26727398Y-16168509D02*
X26746445Y-16158985D01*
X26746445Y-16158985D02*
X26755969Y-16139937D01*
X26755969Y-16139937D02*
X26755969Y-16130414D01*
X26755969Y-16130414D02*
X26746445Y-16111366D01*
X26746445Y-16111366D02*
X26727398Y-16101842D01*
X26727398Y-16101842D02*
X26698826Y-16101842D01*
X26698826Y-16101842D02*
X26679779Y-16092318D01*
X26679779Y-16092318D02*
X26670255Y-16073271D01*
X26670255Y-16073271D02*
X26670255Y-16063747D01*
X26670255Y-16063747D02*
X26679779Y-16044699D01*
X26679779Y-16044699D02*
X26698826Y-16035175D01*
X26698826Y-16035175D02*
X26727398Y-16035175D01*
X26727398Y-16035175D02*
X26746445Y-16044699D01*
X26822636Y-16244699D02*
X26832160Y-16235175D01*
X26832160Y-16235175D02*
X26851207Y-16206604D01*
X26851207Y-16206604D02*
X26860731Y-16187556D01*
X26860731Y-16187556D02*
X26870255Y-16158985D01*
X26870255Y-16158985D02*
X26879779Y-16111366D01*
X26879779Y-16111366D02*
X26879779Y-16073271D01*
X26879779Y-16073271D02*
X26870255Y-16025652D01*
X26870255Y-16025652D02*
X26860731Y-15997080D01*
X26860731Y-15997080D02*
X26851207Y-15978033D01*
X26851207Y-15978033D02*
X26832160Y-15949461D01*
X26832160Y-15949461D02*
X26822636Y-15939937D01*
D12*
X20420471Y-16360471D02*
X20420471Y-16321579D01*
X20381580Y-16321579D01*
X20381580Y-16360471D01*
X20420471Y-16360471D01*
D11*
X20727397Y-16232509D02*
X20746445Y-16232509D01*
X20746445Y-16232509D02*
X20765492Y-16242033D01*
X20765492Y-16242033D02*
X20775016Y-16251556D01*
X20775016Y-16251556D02*
X20784540Y-16270604D01*
X20784540Y-16270604D02*
X20794064Y-16308699D01*
X20794064Y-16308699D02*
X20794064Y-16356318D01*
X20794064Y-16356318D02*
X20784540Y-16394414D01*
X20784540Y-16394414D02*
X20775016Y-16413461D01*
X20775016Y-16413461D02*
X20765492Y-16422985D01*
X20765492Y-16422985D02*
X20746445Y-16432509D01*
X20746445Y-16432509D02*
X20727397Y-16432509D01*
X20727397Y-16432509D02*
X20708350Y-16422985D01*
X20708350Y-16422985D02*
X20698826Y-16413461D01*
X20698826Y-16413461D02*
X20689302Y-16394414D01*
X20689302Y-16394414D02*
X20679778Y-16356318D01*
X20679778Y-16356318D02*
X20679778Y-16308699D01*
X20679778Y-16308699D02*
X20689302Y-16270604D01*
X20689302Y-16270604D02*
X20698826Y-16251556D01*
X20698826Y-16251556D02*
X20708350Y-16242033D01*
X20708350Y-16242033D02*
X20727397Y-16232509D01*
X20879778Y-16413461D02*
X20889302Y-16422985D01*
X20889302Y-16422985D02*
X20879778Y-16432509D01*
X20879778Y-16432509D02*
X20870254Y-16422985D01*
X20870254Y-16422985D02*
X20879778Y-16413461D01*
X20879778Y-16413461D02*
X20879778Y-16432509D01*
X21070254Y-16232509D02*
X20975016Y-16232509D01*
X20975016Y-16232509D02*
X20965492Y-16327747D01*
X20965492Y-16327747D02*
X20975016Y-16318223D01*
X20975016Y-16318223D02*
X20994064Y-16308699D01*
X20994064Y-16308699D02*
X21041683Y-16308699D01*
X21041683Y-16308699D02*
X21060731Y-16318223D01*
X21060731Y-16318223D02*
X21070254Y-16327747D01*
X21070254Y-16327747D02*
X21079778Y-16346795D01*
X21079778Y-16346795D02*
X21079778Y-16394414D01*
X21079778Y-16394414D02*
X21070254Y-16413461D01*
X21070254Y-16413461D02*
X21060731Y-16422985D01*
X21060731Y-16422985D02*
X21041683Y-16432509D01*
X21041683Y-16432509D02*
X20994064Y-16432509D01*
X20994064Y-16432509D02*
X20975016Y-16422985D01*
X20975016Y-16422985D02*
X20965492Y-16413461D01*
X21260731Y-16232509D02*
X21165492Y-16232509D01*
X21165492Y-16232509D02*
X21155969Y-16327747D01*
X21155969Y-16327747D02*
X21165492Y-16318223D01*
X21165492Y-16318223D02*
X21184540Y-16308699D01*
X21184540Y-16308699D02*
X21232159Y-16308699D01*
X21232159Y-16308699D02*
X21251207Y-16318223D01*
X21251207Y-16318223D02*
X21260731Y-16327747D01*
X21260731Y-16327747D02*
X21270254Y-16346795D01*
X21270254Y-16346795D02*
X21270254Y-16394414D01*
X21270254Y-16394414D02*
X21260731Y-16413461D01*
X21260731Y-16413461D02*
X21251207Y-16422985D01*
X21251207Y-16422985D02*
X21232159Y-16432509D01*
X21232159Y-16432509D02*
X21184540Y-16432509D01*
X21184540Y-16432509D02*
X21165492Y-16422985D01*
X21165492Y-16422985D02*
X21155969Y-16413461D01*
X21394064Y-16232509D02*
X21413112Y-16232509D01*
X21413112Y-16232509D02*
X21432159Y-16242033D01*
X21432159Y-16242033D02*
X21441683Y-16251556D01*
X21441683Y-16251556D02*
X21451207Y-16270604D01*
X21451207Y-16270604D02*
X21460731Y-16308699D01*
X21460731Y-16308699D02*
X21460731Y-16356318D01*
X21460731Y-16356318D02*
X21451207Y-16394414D01*
X21451207Y-16394414D02*
X21441683Y-16413461D01*
X21441683Y-16413461D02*
X21432159Y-16422985D01*
X21432159Y-16422985D02*
X21413112Y-16432509D01*
X21413112Y-16432509D02*
X21394064Y-16432509D01*
X21394064Y-16432509D02*
X21375016Y-16422985D01*
X21375016Y-16422985D02*
X21365492Y-16413461D01*
X21365492Y-16413461D02*
X21355969Y-16394414D01*
X21355969Y-16394414D02*
X21346445Y-16356318D01*
X21346445Y-16356318D02*
X21346445Y-16308699D01*
X21346445Y-16308699D02*
X21355969Y-16270604D01*
X21355969Y-16270604D02*
X21365492Y-16251556D01*
X21365492Y-16251556D02*
X21375016Y-16242033D01*
X21375016Y-16242033D02*
X21394064Y-16232509D01*
X21546445Y-16432509D02*
X21546445Y-16299175D01*
X21546445Y-16318223D02*
X21555969Y-16308699D01*
X21555969Y-16308699D02*
X21575016Y-16299175D01*
X21575016Y-16299175D02*
X21603588Y-16299175D01*
X21603588Y-16299175D02*
X21622635Y-16308699D01*
X21622635Y-16308699D02*
X21632159Y-16327747D01*
X21632159Y-16327747D02*
X21632159Y-16432509D01*
X21632159Y-16327747D02*
X21641683Y-16308699D01*
X21641683Y-16308699D02*
X21660731Y-16299175D01*
X21660731Y-16299175D02*
X21689302Y-16299175D01*
X21689302Y-16299175D02*
X21708350Y-16308699D01*
X21708350Y-16308699D02*
X21717873Y-16327747D01*
X21717873Y-16327747D02*
X21717873Y-16432509D01*
X21813112Y-16432509D02*
X21813112Y-16299175D01*
X21813112Y-16318223D02*
X21822635Y-16308699D01*
X21822635Y-16308699D02*
X21841683Y-16299175D01*
X21841683Y-16299175D02*
X21870254Y-16299175D01*
X21870254Y-16299175D02*
X21889302Y-16308699D01*
X21889302Y-16308699D02*
X21898826Y-16327747D01*
X21898826Y-16327747D02*
X21898826Y-16432509D01*
X21898826Y-16327747D02*
X21908350Y-16308699D01*
X21908350Y-16308699D02*
X21927397Y-16299175D01*
X21927397Y-16299175D02*
X21955969Y-16299175D01*
X21955969Y-16299175D02*
X21975016Y-16308699D01*
X21975016Y-16308699D02*
X21984540Y-16327747D01*
X21984540Y-16327747D02*
X21984540Y-16432509D01*
X22375016Y-16222985D02*
X22203588Y-16480128D01*
X22632159Y-16232509D02*
X22651207Y-16232509D01*
X22651207Y-16232509D02*
X22670254Y-16242033D01*
X22670254Y-16242033D02*
X22679778Y-16251556D01*
X22679778Y-16251556D02*
X22689302Y-16270604D01*
X22689302Y-16270604D02*
X22698826Y-16308699D01*
X22698826Y-16308699D02*
X22698826Y-16356318D01*
X22698826Y-16356318D02*
X22689302Y-16394414D01*
X22689302Y-16394414D02*
X22679778Y-16413461D01*
X22679778Y-16413461D02*
X22670254Y-16422985D01*
X22670254Y-16422985D02*
X22651207Y-16432509D01*
X22651207Y-16432509D02*
X22632159Y-16432509D01*
X22632159Y-16432509D02*
X22613112Y-16422985D01*
X22613112Y-16422985D02*
X22603588Y-16413461D01*
X22603588Y-16413461D02*
X22594064Y-16394414D01*
X22594064Y-16394414D02*
X22584540Y-16356318D01*
X22584540Y-16356318D02*
X22584540Y-16308699D01*
X22584540Y-16308699D02*
X22594064Y-16270604D01*
X22594064Y-16270604D02*
X22603588Y-16251556D01*
X22603588Y-16251556D02*
X22613112Y-16242033D01*
X22613112Y-16242033D02*
X22632159Y-16232509D01*
X22784540Y-16413461D02*
X22794064Y-16422985D01*
X22794064Y-16422985D02*
X22784540Y-16432509D01*
X22784540Y-16432509D02*
X22775016Y-16422985D01*
X22775016Y-16422985D02*
X22784540Y-16413461D01*
X22784540Y-16413461D02*
X22784540Y-16432509D01*
X22917873Y-16232509D02*
X22936921Y-16232509D01*
X22936921Y-16232509D02*
X22955969Y-16242033D01*
X22955969Y-16242033D02*
X22965493Y-16251556D01*
X22965493Y-16251556D02*
X22975016Y-16270604D01*
X22975016Y-16270604D02*
X22984540Y-16308699D01*
X22984540Y-16308699D02*
X22984540Y-16356318D01*
X22984540Y-16356318D02*
X22975016Y-16394414D01*
X22975016Y-16394414D02*
X22965493Y-16413461D01*
X22965493Y-16413461D02*
X22955969Y-16422985D01*
X22955969Y-16422985D02*
X22936921Y-16432509D01*
X22936921Y-16432509D02*
X22917873Y-16432509D01*
X22917873Y-16432509D02*
X22898826Y-16422985D01*
X22898826Y-16422985D02*
X22889302Y-16413461D01*
X22889302Y-16413461D02*
X22879778Y-16394414D01*
X22879778Y-16394414D02*
X22870254Y-16356318D01*
X22870254Y-16356318D02*
X22870254Y-16308699D01*
X22870254Y-16308699D02*
X22879778Y-16270604D01*
X22879778Y-16270604D02*
X22889302Y-16251556D01*
X22889302Y-16251556D02*
X22898826Y-16242033D01*
X22898826Y-16242033D02*
X22917873Y-16232509D01*
X23060731Y-16251556D02*
X23070254Y-16242033D01*
X23070254Y-16242033D02*
X23089302Y-16232509D01*
X23089302Y-16232509D02*
X23136921Y-16232509D01*
X23136921Y-16232509D02*
X23155969Y-16242033D01*
X23155969Y-16242033D02*
X23165493Y-16251556D01*
X23165493Y-16251556D02*
X23175016Y-16270604D01*
X23175016Y-16270604D02*
X23175016Y-16289652D01*
X23175016Y-16289652D02*
X23165493Y-16318223D01*
X23165493Y-16318223D02*
X23051207Y-16432509D01*
X23051207Y-16432509D02*
X23175016Y-16432509D01*
X23365493Y-16432509D02*
X23251207Y-16432509D01*
X23308350Y-16432509D02*
X23308350Y-16232509D01*
X23308350Y-16232509D02*
X23289302Y-16261080D01*
X23289302Y-16261080D02*
X23270254Y-16280128D01*
X23270254Y-16280128D02*
X23251207Y-16289652D01*
X23432159Y-16232509D02*
X23565493Y-16232509D01*
X23565493Y-16232509D02*
X23479778Y-16432509D01*
X23632159Y-16232509D02*
X23632159Y-16270604D01*
X23708350Y-16232509D02*
X23708350Y-16270604D01*
X24003588Y-16508699D02*
X23994064Y-16499175D01*
X23994064Y-16499175D02*
X23975016Y-16470604D01*
X23975016Y-16470604D02*
X23965493Y-16451556D01*
X23965493Y-16451556D02*
X23955969Y-16422985D01*
X23955969Y-16422985D02*
X23946445Y-16375366D01*
X23946445Y-16375366D02*
X23946445Y-16337271D01*
X23946445Y-16337271D02*
X23955969Y-16289652D01*
X23955969Y-16289652D02*
X23965493Y-16261080D01*
X23965493Y-16261080D02*
X23975016Y-16242033D01*
X23975016Y-16242033D02*
X23994064Y-16213461D01*
X23994064Y-16213461D02*
X24003588Y-16203937D01*
X24117874Y-16232509D02*
X24136921Y-16232509D01*
X24136921Y-16232509D02*
X24155969Y-16242033D01*
X24155969Y-16242033D02*
X24165493Y-16251556D01*
X24165493Y-16251556D02*
X24175016Y-16270604D01*
X24175016Y-16270604D02*
X24184540Y-16308699D01*
X24184540Y-16308699D02*
X24184540Y-16356318D01*
X24184540Y-16356318D02*
X24175016Y-16394414D01*
X24175016Y-16394414D02*
X24165493Y-16413461D01*
X24165493Y-16413461D02*
X24155969Y-16422985D01*
X24155969Y-16422985D02*
X24136921Y-16432509D01*
X24136921Y-16432509D02*
X24117874Y-16432509D01*
X24117874Y-16432509D02*
X24098826Y-16422985D01*
X24098826Y-16422985D02*
X24089302Y-16413461D01*
X24089302Y-16413461D02*
X24079778Y-16394414D01*
X24079778Y-16394414D02*
X24070255Y-16356318D01*
X24070255Y-16356318D02*
X24070255Y-16308699D01*
X24070255Y-16308699D02*
X24079778Y-16270604D01*
X24079778Y-16270604D02*
X24089302Y-16251556D01*
X24089302Y-16251556D02*
X24098826Y-16242033D01*
X24098826Y-16242033D02*
X24117874Y-16232509D01*
X24422636Y-16432509D02*
X24422636Y-16232509D01*
X24508350Y-16432509D02*
X24508350Y-16327747D01*
X24508350Y-16327747D02*
X24498826Y-16308699D01*
X24498826Y-16308699D02*
X24479778Y-16299175D01*
X24479778Y-16299175D02*
X24451207Y-16299175D01*
X24451207Y-16299175D02*
X24432159Y-16308699D01*
X24432159Y-16308699D02*
X24422636Y-16318223D01*
X24632159Y-16432509D02*
X24613112Y-16422985D01*
X24613112Y-16422985D02*
X24603588Y-16413461D01*
X24603588Y-16413461D02*
X24594064Y-16394414D01*
X24594064Y-16394414D02*
X24594064Y-16337271D01*
X24594064Y-16337271D02*
X24603588Y-16318223D01*
X24603588Y-16318223D02*
X24613112Y-16308699D01*
X24613112Y-16308699D02*
X24632159Y-16299175D01*
X24632159Y-16299175D02*
X24660731Y-16299175D01*
X24660731Y-16299175D02*
X24679778Y-16308699D01*
X24679778Y-16308699D02*
X24689302Y-16318223D01*
X24689302Y-16318223D02*
X24698826Y-16337271D01*
X24698826Y-16337271D02*
X24698826Y-16394414D01*
X24698826Y-16394414D02*
X24689302Y-16413461D01*
X24689302Y-16413461D02*
X24679778Y-16422985D01*
X24679778Y-16422985D02*
X24660731Y-16432509D01*
X24660731Y-16432509D02*
X24632159Y-16432509D01*
X24813112Y-16432509D02*
X24794064Y-16422985D01*
X24794064Y-16422985D02*
X24784540Y-16403937D01*
X24784540Y-16403937D02*
X24784540Y-16232509D01*
X24965493Y-16422985D02*
X24946445Y-16432509D01*
X24946445Y-16432509D02*
X24908350Y-16432509D01*
X24908350Y-16432509D02*
X24889302Y-16422985D01*
X24889302Y-16422985D02*
X24879778Y-16403937D01*
X24879778Y-16403937D02*
X24879778Y-16327747D01*
X24879778Y-16327747D02*
X24889302Y-16308699D01*
X24889302Y-16308699D02*
X24908350Y-16299175D01*
X24908350Y-16299175D02*
X24946445Y-16299175D01*
X24946445Y-16299175D02*
X24965493Y-16308699D01*
X24965493Y-16308699D02*
X24975017Y-16327747D01*
X24975017Y-16327747D02*
X24975017Y-16346795D01*
X24975017Y-16346795D02*
X24879778Y-16365842D01*
X25051207Y-16422985D02*
X25070255Y-16432509D01*
X25070255Y-16432509D02*
X25108350Y-16432509D01*
X25108350Y-16432509D02*
X25127398Y-16422985D01*
X25127398Y-16422985D02*
X25136921Y-16403937D01*
X25136921Y-16403937D02*
X25136921Y-16394414D01*
X25136921Y-16394414D02*
X25127398Y-16375366D01*
X25127398Y-16375366D02*
X25108350Y-16365842D01*
X25108350Y-16365842D02*
X25079778Y-16365842D01*
X25079778Y-16365842D02*
X25060731Y-16356318D01*
X25060731Y-16356318D02*
X25051207Y-16337271D01*
X25051207Y-16337271D02*
X25051207Y-16327747D01*
X25051207Y-16327747D02*
X25060731Y-16308699D01*
X25060731Y-16308699D02*
X25079778Y-16299175D01*
X25079778Y-16299175D02*
X25108350Y-16299175D01*
X25108350Y-16299175D02*
X25127398Y-16308699D01*
X25375017Y-16356318D02*
X25527398Y-16356318D01*
X25451207Y-16432509D02*
X25451207Y-16280128D01*
X25765493Y-16251556D02*
X25775017Y-16242033D01*
X25775017Y-16242033D02*
X25794064Y-16232509D01*
X25794064Y-16232509D02*
X25841683Y-16232509D01*
X25841683Y-16232509D02*
X25860731Y-16242033D01*
X25860731Y-16242033D02*
X25870255Y-16251556D01*
X25870255Y-16251556D02*
X25879779Y-16270604D01*
X25879779Y-16270604D02*
X25879779Y-16289652D01*
X25879779Y-16289652D02*
X25870255Y-16318223D01*
X25870255Y-16318223D02*
X25755969Y-16432509D01*
X25755969Y-16432509D02*
X25879779Y-16432509D01*
X26108350Y-16422985D02*
X26127398Y-16432509D01*
X26127398Y-16432509D02*
X26165493Y-16432509D01*
X26165493Y-16432509D02*
X26184541Y-16422985D01*
X26184541Y-16422985D02*
X26194064Y-16403937D01*
X26194064Y-16403937D02*
X26194064Y-16394414D01*
X26194064Y-16394414D02*
X26184541Y-16375366D01*
X26184541Y-16375366D02*
X26165493Y-16365842D01*
X26165493Y-16365842D02*
X26136921Y-16365842D01*
X26136921Y-16365842D02*
X26117874Y-16356318D01*
X26117874Y-16356318D02*
X26108350Y-16337271D01*
X26108350Y-16337271D02*
X26108350Y-16327747D01*
X26108350Y-16327747D02*
X26117874Y-16308699D01*
X26117874Y-16308699D02*
X26136921Y-16299175D01*
X26136921Y-16299175D02*
X26165493Y-16299175D01*
X26165493Y-16299175D02*
X26184541Y-16308699D01*
X26308350Y-16432509D02*
X26289302Y-16422985D01*
X26289302Y-16422985D02*
X26279779Y-16403937D01*
X26279779Y-16403937D02*
X26279779Y-16232509D01*
X26413112Y-16432509D02*
X26394064Y-16422985D01*
X26394064Y-16422985D02*
X26384541Y-16413461D01*
X26384541Y-16413461D02*
X26375017Y-16394414D01*
X26375017Y-16394414D02*
X26375017Y-16337271D01*
X26375017Y-16337271D02*
X26384541Y-16318223D01*
X26384541Y-16318223D02*
X26394064Y-16308699D01*
X26394064Y-16308699D02*
X26413112Y-16299175D01*
X26413112Y-16299175D02*
X26441683Y-16299175D01*
X26441683Y-16299175D02*
X26460731Y-16308699D01*
X26460731Y-16308699D02*
X26470255Y-16318223D01*
X26470255Y-16318223D02*
X26479779Y-16337271D01*
X26479779Y-16337271D02*
X26479779Y-16394414D01*
X26479779Y-16394414D02*
X26470255Y-16413461D01*
X26470255Y-16413461D02*
X26460731Y-16422985D01*
X26460731Y-16422985D02*
X26441683Y-16432509D01*
X26441683Y-16432509D02*
X26413112Y-16432509D01*
X26536922Y-16299175D02*
X26613112Y-16299175D01*
X26565493Y-16232509D02*
X26565493Y-16403937D01*
X26565493Y-16403937D02*
X26575017Y-16422985D01*
X26575017Y-16422985D02*
X26594064Y-16432509D01*
X26594064Y-16432509D02*
X26613112Y-16432509D01*
X26670255Y-16422985D02*
X26689302Y-16432509D01*
X26689302Y-16432509D02*
X26727398Y-16432509D01*
X26727398Y-16432509D02*
X26746445Y-16422985D01*
X26746445Y-16422985D02*
X26755969Y-16403937D01*
X26755969Y-16403937D02*
X26755969Y-16394414D01*
X26755969Y-16394414D02*
X26746445Y-16375366D01*
X26746445Y-16375366D02*
X26727398Y-16365842D01*
X26727398Y-16365842D02*
X26698826Y-16365842D01*
X26698826Y-16365842D02*
X26679779Y-16356318D01*
X26679779Y-16356318D02*
X26670255Y-16337271D01*
X26670255Y-16337271D02*
X26670255Y-16327747D01*
X26670255Y-16327747D02*
X26679779Y-16308699D01*
X26679779Y-16308699D02*
X26698826Y-16299175D01*
X26698826Y-16299175D02*
X26727398Y-16299175D01*
X26727398Y-16299175D02*
X26746445Y-16308699D01*
X26822636Y-16508699D02*
X26832160Y-16499175D01*
X26832160Y-16499175D02*
X26851207Y-16470604D01*
X26851207Y-16470604D02*
X26860731Y-16451556D01*
X26860731Y-16451556D02*
X26870255Y-16422985D01*
X26870255Y-16422985D02*
X26879779Y-16375366D01*
X26879779Y-16375366D02*
X26879779Y-16337271D01*
X26879779Y-16337271D02*
X26870255Y-16289652D01*
X26870255Y-16289652D02*
X26860731Y-16261080D01*
X26860731Y-16261080D02*
X26851207Y-16242033D01*
X26851207Y-16242033D02*
X26832160Y-16213461D01*
X26832160Y-16213461D02*
X26822636Y-16203937D01*
D12*
X20378525Y-16655025D02*
X20428525Y-16605025D01*
X20378525Y-16555025D01*
X20328525Y-16605025D01*
X20378525Y-16655025D01*
D11*
X20794064Y-16696509D02*
X20679778Y-16696509D01*
X20736921Y-16696509D02*
X20736921Y-16496509D01*
X20736921Y-16496509D02*
X20717873Y-16525080D01*
X20717873Y-16525080D02*
X20698826Y-16544128D01*
X20698826Y-16544128D02*
X20679778Y-16553652D01*
X20879778Y-16677461D02*
X20889302Y-16686985D01*
X20889302Y-16686985D02*
X20879778Y-16696509D01*
X20879778Y-16696509D02*
X20870254Y-16686985D01*
X20870254Y-16686985D02*
X20879778Y-16677461D01*
X20879778Y-16677461D02*
X20879778Y-16696509D01*
X21013111Y-16496509D02*
X21032159Y-16496509D01*
X21032159Y-16496509D02*
X21051207Y-16506033D01*
X21051207Y-16506033D02*
X21060731Y-16515556D01*
X21060731Y-16515556D02*
X21070254Y-16534604D01*
X21070254Y-16534604D02*
X21079778Y-16572699D01*
X21079778Y-16572699D02*
X21079778Y-16620318D01*
X21079778Y-16620318D02*
X21070254Y-16658414D01*
X21070254Y-16658414D02*
X21060731Y-16677461D01*
X21060731Y-16677461D02*
X21051207Y-16686985D01*
X21051207Y-16686985D02*
X21032159Y-16696509D01*
X21032159Y-16696509D02*
X21013111Y-16696509D01*
X21013111Y-16696509D02*
X20994064Y-16686985D01*
X20994064Y-16686985D02*
X20984540Y-16677461D01*
X20984540Y-16677461D02*
X20975016Y-16658414D01*
X20975016Y-16658414D02*
X20965492Y-16620318D01*
X20965492Y-16620318D02*
X20965492Y-16572699D01*
X20965492Y-16572699D02*
X20975016Y-16534604D01*
X20975016Y-16534604D02*
X20984540Y-16515556D01*
X20984540Y-16515556D02*
X20994064Y-16506033D01*
X20994064Y-16506033D02*
X21013111Y-16496509D01*
X21203588Y-16496509D02*
X21222635Y-16496509D01*
X21222635Y-16496509D02*
X21241683Y-16506033D01*
X21241683Y-16506033D02*
X21251207Y-16515556D01*
X21251207Y-16515556D02*
X21260731Y-16534604D01*
X21260731Y-16534604D02*
X21270254Y-16572699D01*
X21270254Y-16572699D02*
X21270254Y-16620318D01*
X21270254Y-16620318D02*
X21260731Y-16658414D01*
X21260731Y-16658414D02*
X21251207Y-16677461D01*
X21251207Y-16677461D02*
X21241683Y-16686985D01*
X21241683Y-16686985D02*
X21222635Y-16696509D01*
X21222635Y-16696509D02*
X21203588Y-16696509D01*
X21203588Y-16696509D02*
X21184540Y-16686985D01*
X21184540Y-16686985D02*
X21175016Y-16677461D01*
X21175016Y-16677461D02*
X21165492Y-16658414D01*
X21165492Y-16658414D02*
X21155969Y-16620318D01*
X21155969Y-16620318D02*
X21155969Y-16572699D01*
X21155969Y-16572699D02*
X21165492Y-16534604D01*
X21165492Y-16534604D02*
X21175016Y-16515556D01*
X21175016Y-16515556D02*
X21184540Y-16506033D01*
X21184540Y-16506033D02*
X21203588Y-16496509D01*
X21394064Y-16496509D02*
X21413112Y-16496509D01*
X21413112Y-16496509D02*
X21432159Y-16506033D01*
X21432159Y-16506033D02*
X21441683Y-16515556D01*
X21441683Y-16515556D02*
X21451207Y-16534604D01*
X21451207Y-16534604D02*
X21460731Y-16572699D01*
X21460731Y-16572699D02*
X21460731Y-16620318D01*
X21460731Y-16620318D02*
X21451207Y-16658414D01*
X21451207Y-16658414D02*
X21441683Y-16677461D01*
X21441683Y-16677461D02*
X21432159Y-16686985D01*
X21432159Y-16686985D02*
X21413112Y-16696509D01*
X21413112Y-16696509D02*
X21394064Y-16696509D01*
X21394064Y-16696509D02*
X21375016Y-16686985D01*
X21375016Y-16686985D02*
X21365492Y-16677461D01*
X21365492Y-16677461D02*
X21355969Y-16658414D01*
X21355969Y-16658414D02*
X21346445Y-16620318D01*
X21346445Y-16620318D02*
X21346445Y-16572699D01*
X21346445Y-16572699D02*
X21355969Y-16534604D01*
X21355969Y-16534604D02*
X21365492Y-16515556D01*
X21365492Y-16515556D02*
X21375016Y-16506033D01*
X21375016Y-16506033D02*
X21394064Y-16496509D01*
X21546445Y-16696509D02*
X21546445Y-16563175D01*
X21546445Y-16582223D02*
X21555969Y-16572699D01*
X21555969Y-16572699D02*
X21575016Y-16563175D01*
X21575016Y-16563175D02*
X21603588Y-16563175D01*
X21603588Y-16563175D02*
X21622635Y-16572699D01*
X21622635Y-16572699D02*
X21632159Y-16591747D01*
X21632159Y-16591747D02*
X21632159Y-16696509D01*
X21632159Y-16591747D02*
X21641683Y-16572699D01*
X21641683Y-16572699D02*
X21660731Y-16563175D01*
X21660731Y-16563175D02*
X21689302Y-16563175D01*
X21689302Y-16563175D02*
X21708350Y-16572699D01*
X21708350Y-16572699D02*
X21717873Y-16591747D01*
X21717873Y-16591747D02*
X21717873Y-16696509D01*
X21813112Y-16696509D02*
X21813112Y-16563175D01*
X21813112Y-16582223D02*
X21822635Y-16572699D01*
X21822635Y-16572699D02*
X21841683Y-16563175D01*
X21841683Y-16563175D02*
X21870254Y-16563175D01*
X21870254Y-16563175D02*
X21889302Y-16572699D01*
X21889302Y-16572699D02*
X21898826Y-16591747D01*
X21898826Y-16591747D02*
X21898826Y-16696509D01*
X21898826Y-16591747D02*
X21908350Y-16572699D01*
X21908350Y-16572699D02*
X21927397Y-16563175D01*
X21927397Y-16563175D02*
X21955969Y-16563175D01*
X21955969Y-16563175D02*
X21975016Y-16572699D01*
X21975016Y-16572699D02*
X21984540Y-16591747D01*
X21984540Y-16591747D02*
X21984540Y-16696509D01*
X22375016Y-16486985D02*
X22203588Y-16744128D01*
X22632159Y-16496509D02*
X22651207Y-16496509D01*
X22651207Y-16496509D02*
X22670254Y-16506033D01*
X22670254Y-16506033D02*
X22679778Y-16515556D01*
X22679778Y-16515556D02*
X22689302Y-16534604D01*
X22689302Y-16534604D02*
X22698826Y-16572699D01*
X22698826Y-16572699D02*
X22698826Y-16620318D01*
X22698826Y-16620318D02*
X22689302Y-16658414D01*
X22689302Y-16658414D02*
X22679778Y-16677461D01*
X22679778Y-16677461D02*
X22670254Y-16686985D01*
X22670254Y-16686985D02*
X22651207Y-16696509D01*
X22651207Y-16696509D02*
X22632159Y-16696509D01*
X22632159Y-16696509D02*
X22613112Y-16686985D01*
X22613112Y-16686985D02*
X22603588Y-16677461D01*
X22603588Y-16677461D02*
X22594064Y-16658414D01*
X22594064Y-16658414D02*
X22584540Y-16620318D01*
X22584540Y-16620318D02*
X22584540Y-16572699D01*
X22584540Y-16572699D02*
X22594064Y-16534604D01*
X22594064Y-16534604D02*
X22603588Y-16515556D01*
X22603588Y-16515556D02*
X22613112Y-16506033D01*
X22613112Y-16506033D02*
X22632159Y-16496509D01*
X22784540Y-16677461D02*
X22794064Y-16686985D01*
X22794064Y-16686985D02*
X22784540Y-16696509D01*
X22784540Y-16696509D02*
X22775016Y-16686985D01*
X22775016Y-16686985D02*
X22784540Y-16677461D01*
X22784540Y-16677461D02*
X22784540Y-16696509D01*
X22917873Y-16496509D02*
X22936921Y-16496509D01*
X22936921Y-16496509D02*
X22955969Y-16506033D01*
X22955969Y-16506033D02*
X22965493Y-16515556D01*
X22965493Y-16515556D02*
X22975016Y-16534604D01*
X22975016Y-16534604D02*
X22984540Y-16572699D01*
X22984540Y-16572699D02*
X22984540Y-16620318D01*
X22984540Y-16620318D02*
X22975016Y-16658414D01*
X22975016Y-16658414D02*
X22965493Y-16677461D01*
X22965493Y-16677461D02*
X22955969Y-16686985D01*
X22955969Y-16686985D02*
X22936921Y-16696509D01*
X22936921Y-16696509D02*
X22917873Y-16696509D01*
X22917873Y-16696509D02*
X22898826Y-16686985D01*
X22898826Y-16686985D02*
X22889302Y-16677461D01*
X22889302Y-16677461D02*
X22879778Y-16658414D01*
X22879778Y-16658414D02*
X22870254Y-16620318D01*
X22870254Y-16620318D02*
X22870254Y-16572699D01*
X22870254Y-16572699D02*
X22879778Y-16534604D01*
X22879778Y-16534604D02*
X22889302Y-16515556D01*
X22889302Y-16515556D02*
X22898826Y-16506033D01*
X22898826Y-16506033D02*
X22917873Y-16496509D01*
X23051207Y-16496509D02*
X23175016Y-16496509D01*
X23175016Y-16496509D02*
X23108350Y-16572699D01*
X23108350Y-16572699D02*
X23136921Y-16572699D01*
X23136921Y-16572699D02*
X23155969Y-16582223D01*
X23155969Y-16582223D02*
X23165493Y-16591747D01*
X23165493Y-16591747D02*
X23175016Y-16610795D01*
X23175016Y-16610795D02*
X23175016Y-16658414D01*
X23175016Y-16658414D02*
X23165493Y-16677461D01*
X23165493Y-16677461D02*
X23155969Y-16686985D01*
X23155969Y-16686985D02*
X23136921Y-16696509D01*
X23136921Y-16696509D02*
X23079778Y-16696509D01*
X23079778Y-16696509D02*
X23060731Y-16686985D01*
X23060731Y-16686985D02*
X23051207Y-16677461D01*
X23270254Y-16696509D02*
X23308350Y-16696509D01*
X23308350Y-16696509D02*
X23327397Y-16686985D01*
X23327397Y-16686985D02*
X23336921Y-16677461D01*
X23336921Y-16677461D02*
X23355969Y-16648890D01*
X23355969Y-16648890D02*
X23365493Y-16610795D01*
X23365493Y-16610795D02*
X23365493Y-16534604D01*
X23365493Y-16534604D02*
X23355969Y-16515556D01*
X23355969Y-16515556D02*
X23346445Y-16506033D01*
X23346445Y-16506033D02*
X23327397Y-16496509D01*
X23327397Y-16496509D02*
X23289302Y-16496509D01*
X23289302Y-16496509D02*
X23270254Y-16506033D01*
X23270254Y-16506033D02*
X23260731Y-16515556D01*
X23260731Y-16515556D02*
X23251207Y-16534604D01*
X23251207Y-16534604D02*
X23251207Y-16582223D01*
X23251207Y-16582223D02*
X23260731Y-16601271D01*
X23260731Y-16601271D02*
X23270254Y-16610795D01*
X23270254Y-16610795D02*
X23289302Y-16620318D01*
X23289302Y-16620318D02*
X23327397Y-16620318D01*
X23327397Y-16620318D02*
X23346445Y-16610795D01*
X23346445Y-16610795D02*
X23355969Y-16601271D01*
X23355969Y-16601271D02*
X23365493Y-16582223D01*
X23536921Y-16563175D02*
X23536921Y-16696509D01*
X23489302Y-16486985D02*
X23441683Y-16629842D01*
X23441683Y-16629842D02*
X23565493Y-16629842D01*
X23632159Y-16496509D02*
X23632159Y-16534604D01*
X23708350Y-16496509D02*
X23708350Y-16534604D01*
X24003588Y-16772699D02*
X23994064Y-16763175D01*
X23994064Y-16763175D02*
X23975016Y-16734604D01*
X23975016Y-16734604D02*
X23965493Y-16715556D01*
X23965493Y-16715556D02*
X23955969Y-16686985D01*
X23955969Y-16686985D02*
X23946445Y-16639366D01*
X23946445Y-16639366D02*
X23946445Y-16601271D01*
X23946445Y-16601271D02*
X23955969Y-16553652D01*
X23955969Y-16553652D02*
X23965493Y-16525080D01*
X23965493Y-16525080D02*
X23975016Y-16506033D01*
X23975016Y-16506033D02*
X23994064Y-16477461D01*
X23994064Y-16477461D02*
X24003588Y-16467937D01*
X24070255Y-16515556D02*
X24079778Y-16506033D01*
X24079778Y-16506033D02*
X24098826Y-16496509D01*
X24098826Y-16496509D02*
X24146445Y-16496509D01*
X24146445Y-16496509D02*
X24165493Y-16506033D01*
X24165493Y-16506033D02*
X24175016Y-16515556D01*
X24175016Y-16515556D02*
X24184540Y-16534604D01*
X24184540Y-16534604D02*
X24184540Y-16553652D01*
X24184540Y-16553652D02*
X24175016Y-16582223D01*
X24175016Y-16582223D02*
X24060731Y-16696509D01*
X24060731Y-16696509D02*
X24184540Y-16696509D01*
X24298826Y-16582223D02*
X24279778Y-16572699D01*
X24279778Y-16572699D02*
X24270255Y-16563175D01*
X24270255Y-16563175D02*
X24260731Y-16544128D01*
X24260731Y-16544128D02*
X24260731Y-16534604D01*
X24260731Y-16534604D02*
X24270255Y-16515556D01*
X24270255Y-16515556D02*
X24279778Y-16506033D01*
X24279778Y-16506033D02*
X24298826Y-16496509D01*
X24298826Y-16496509D02*
X24336921Y-16496509D01*
X24336921Y-16496509D02*
X24355969Y-16506033D01*
X24355969Y-16506033D02*
X24365493Y-16515556D01*
X24365493Y-16515556D02*
X24375016Y-16534604D01*
X24375016Y-16534604D02*
X24375016Y-16544128D01*
X24375016Y-16544128D02*
X24365493Y-16563175D01*
X24365493Y-16563175D02*
X24355969Y-16572699D01*
X24355969Y-16572699D02*
X24336921Y-16582223D01*
X24336921Y-16582223D02*
X24298826Y-16582223D01*
X24298826Y-16582223D02*
X24279778Y-16591747D01*
X24279778Y-16591747D02*
X24270255Y-16601271D01*
X24270255Y-16601271D02*
X24260731Y-16620318D01*
X24260731Y-16620318D02*
X24260731Y-16658414D01*
X24260731Y-16658414D02*
X24270255Y-16677461D01*
X24270255Y-16677461D02*
X24279778Y-16686985D01*
X24279778Y-16686985D02*
X24298826Y-16696509D01*
X24298826Y-16696509D02*
X24336921Y-16696509D01*
X24336921Y-16696509D02*
X24355969Y-16686985D01*
X24355969Y-16686985D02*
X24365493Y-16677461D01*
X24365493Y-16677461D02*
X24375016Y-16658414D01*
X24375016Y-16658414D02*
X24375016Y-16620318D01*
X24375016Y-16620318D02*
X24365493Y-16601271D01*
X24365493Y-16601271D02*
X24355969Y-16591747D01*
X24355969Y-16591747D02*
X24336921Y-16582223D01*
X24613112Y-16696509D02*
X24613112Y-16496509D01*
X24698826Y-16696509D02*
X24698826Y-16591747D01*
X24698826Y-16591747D02*
X24689302Y-16572699D01*
X24689302Y-16572699D02*
X24670255Y-16563175D01*
X24670255Y-16563175D02*
X24641683Y-16563175D01*
X24641683Y-16563175D02*
X24622636Y-16572699D01*
X24622636Y-16572699D02*
X24613112Y-16582223D01*
X24822636Y-16696509D02*
X24803588Y-16686985D01*
X24803588Y-16686985D02*
X24794064Y-16677461D01*
X24794064Y-16677461D02*
X24784540Y-16658414D01*
X24784540Y-16658414D02*
X24784540Y-16601271D01*
X24784540Y-16601271D02*
X24794064Y-16582223D01*
X24794064Y-16582223D02*
X24803588Y-16572699D01*
X24803588Y-16572699D02*
X24822636Y-16563175D01*
X24822636Y-16563175D02*
X24851207Y-16563175D01*
X24851207Y-16563175D02*
X24870255Y-16572699D01*
X24870255Y-16572699D02*
X24879778Y-16582223D01*
X24879778Y-16582223D02*
X24889302Y-16601271D01*
X24889302Y-16601271D02*
X24889302Y-16658414D01*
X24889302Y-16658414D02*
X24879778Y-16677461D01*
X24879778Y-16677461D02*
X24870255Y-16686985D01*
X24870255Y-16686985D02*
X24851207Y-16696509D01*
X24851207Y-16696509D02*
X24822636Y-16696509D01*
X25003588Y-16696509D02*
X24984540Y-16686985D01*
X24984540Y-16686985D02*
X24975017Y-16667937D01*
X24975017Y-16667937D02*
X24975017Y-16496509D01*
X25155969Y-16686985D02*
X25136921Y-16696509D01*
X25136921Y-16696509D02*
X25098826Y-16696509D01*
X25098826Y-16696509D02*
X25079778Y-16686985D01*
X25079778Y-16686985D02*
X25070255Y-16667937D01*
X25070255Y-16667937D02*
X25070255Y-16591747D01*
X25070255Y-16591747D02*
X25079778Y-16572699D01*
X25079778Y-16572699D02*
X25098826Y-16563175D01*
X25098826Y-16563175D02*
X25136921Y-16563175D01*
X25136921Y-16563175D02*
X25155969Y-16572699D01*
X25155969Y-16572699D02*
X25165493Y-16591747D01*
X25165493Y-16591747D02*
X25165493Y-16610795D01*
X25165493Y-16610795D02*
X25070255Y-16629842D01*
X25241683Y-16686985D02*
X25260731Y-16696509D01*
X25260731Y-16696509D02*
X25298826Y-16696509D01*
X25298826Y-16696509D02*
X25317874Y-16686985D01*
X25317874Y-16686985D02*
X25327398Y-16667937D01*
X25327398Y-16667937D02*
X25327398Y-16658414D01*
X25327398Y-16658414D02*
X25317874Y-16639366D01*
X25317874Y-16639366D02*
X25298826Y-16629842D01*
X25298826Y-16629842D02*
X25270255Y-16629842D01*
X25270255Y-16629842D02*
X25251207Y-16620318D01*
X25251207Y-16620318D02*
X25241683Y-16601271D01*
X25241683Y-16601271D02*
X25241683Y-16591747D01*
X25241683Y-16591747D02*
X25251207Y-16572699D01*
X25251207Y-16572699D02*
X25270255Y-16563175D01*
X25270255Y-16563175D02*
X25298826Y-16563175D01*
X25298826Y-16563175D02*
X25317874Y-16572699D01*
X25394064Y-16772699D02*
X25403588Y-16763175D01*
X25403588Y-16763175D02*
X25422636Y-16734604D01*
X25422636Y-16734604D02*
X25432159Y-16715556D01*
X25432159Y-16715556D02*
X25441683Y-16686985D01*
X25441683Y-16686985D02*
X25451207Y-16639366D01*
X25451207Y-16639366D02*
X25451207Y-16601271D01*
X25451207Y-16601271D02*
X25441683Y-16553652D01*
X25441683Y-16553652D02*
X25432159Y-16525080D01*
X25432159Y-16525080D02*
X25422636Y-16506033D01*
X25422636Y-16506033D02*
X25403588Y-16477461D01*
X25403588Y-16477461D02*
X25394064Y-16467937D01*
X20228525Y-16769025D02*
X20428525Y-16969025D01*
X20428525Y-16769025D02*
X20228525Y-16969025D01*
X20428525Y-16869025D02*
G75*
G02*
X20228525Y-16869025I-100000J0D01*
G01*
X20228525Y-16869025D02*
G75*
G02*
X20428525Y-16869025I100000J0D01*
G01*
X20679778Y-16779557D02*
X20689302Y-16770033D01*
X20689302Y-16770033D02*
X20708350Y-16760509D01*
X20708350Y-16760509D02*
X20755969Y-16760509D01*
X20755969Y-16760509D02*
X20775016Y-16770033D01*
X20775016Y-16770033D02*
X20784540Y-16779557D01*
X20784540Y-16779557D02*
X20794064Y-16798604D01*
X20794064Y-16798604D02*
X20794064Y-16817652D01*
X20794064Y-16817652D02*
X20784540Y-16846223D01*
X20784540Y-16846223D02*
X20670254Y-16960509D01*
X20670254Y-16960509D02*
X20794064Y-16960509D01*
X20879778Y-16941461D02*
X20889302Y-16950985D01*
X20889302Y-16950985D02*
X20879778Y-16960509D01*
X20879778Y-16960509D02*
X20870254Y-16950985D01*
X20870254Y-16950985D02*
X20879778Y-16941461D01*
X20879778Y-16941461D02*
X20879778Y-16960509D01*
X21070254Y-16760509D02*
X20975016Y-16760509D01*
X20975016Y-16760509D02*
X20965492Y-16855747D01*
X20965492Y-16855747D02*
X20975016Y-16846223D01*
X20975016Y-16846223D02*
X20994064Y-16836699D01*
X20994064Y-16836699D02*
X21041683Y-16836699D01*
X21041683Y-16836699D02*
X21060731Y-16846223D01*
X21060731Y-16846223D02*
X21070254Y-16855747D01*
X21070254Y-16855747D02*
X21079778Y-16874795D01*
X21079778Y-16874795D02*
X21079778Y-16922414D01*
X21079778Y-16922414D02*
X21070254Y-16941461D01*
X21070254Y-16941461D02*
X21060731Y-16950985D01*
X21060731Y-16950985D02*
X21041683Y-16960509D01*
X21041683Y-16960509D02*
X20994064Y-16960509D01*
X20994064Y-16960509D02*
X20975016Y-16950985D01*
X20975016Y-16950985D02*
X20965492Y-16941461D01*
X21203588Y-16760509D02*
X21222635Y-16760509D01*
X21222635Y-16760509D02*
X21241683Y-16770033D01*
X21241683Y-16770033D02*
X21251207Y-16779557D01*
X21251207Y-16779557D02*
X21260731Y-16798604D01*
X21260731Y-16798604D02*
X21270254Y-16836699D01*
X21270254Y-16836699D02*
X21270254Y-16884318D01*
X21270254Y-16884318D02*
X21260731Y-16922414D01*
X21260731Y-16922414D02*
X21251207Y-16941461D01*
X21251207Y-16941461D02*
X21241683Y-16950985D01*
X21241683Y-16950985D02*
X21222635Y-16960509D01*
X21222635Y-16960509D02*
X21203588Y-16960509D01*
X21203588Y-16960509D02*
X21184540Y-16950985D01*
X21184540Y-16950985D02*
X21175016Y-16941461D01*
X21175016Y-16941461D02*
X21165492Y-16922414D01*
X21165492Y-16922414D02*
X21155969Y-16884318D01*
X21155969Y-16884318D02*
X21155969Y-16836699D01*
X21155969Y-16836699D02*
X21165492Y-16798604D01*
X21165492Y-16798604D02*
X21175016Y-16779557D01*
X21175016Y-16779557D02*
X21184540Y-16770033D01*
X21184540Y-16770033D02*
X21203588Y-16760509D01*
X21394064Y-16760509D02*
X21413112Y-16760509D01*
X21413112Y-16760509D02*
X21432159Y-16770033D01*
X21432159Y-16770033D02*
X21441683Y-16779557D01*
X21441683Y-16779557D02*
X21451207Y-16798604D01*
X21451207Y-16798604D02*
X21460731Y-16836699D01*
X21460731Y-16836699D02*
X21460731Y-16884318D01*
X21460731Y-16884318D02*
X21451207Y-16922414D01*
X21451207Y-16922414D02*
X21441683Y-16941461D01*
X21441683Y-16941461D02*
X21432159Y-16950985D01*
X21432159Y-16950985D02*
X21413112Y-16960509D01*
X21413112Y-16960509D02*
X21394064Y-16960509D01*
X21394064Y-16960509D02*
X21375016Y-16950985D01*
X21375016Y-16950985D02*
X21365492Y-16941461D01*
X21365492Y-16941461D02*
X21355969Y-16922414D01*
X21355969Y-16922414D02*
X21346445Y-16884318D01*
X21346445Y-16884318D02*
X21346445Y-16836699D01*
X21346445Y-16836699D02*
X21355969Y-16798604D01*
X21355969Y-16798604D02*
X21365492Y-16779557D01*
X21365492Y-16779557D02*
X21375016Y-16770033D01*
X21375016Y-16770033D02*
X21394064Y-16760509D01*
X21546445Y-16960509D02*
X21546445Y-16827176D01*
X21546445Y-16846223D02*
X21555969Y-16836699D01*
X21555969Y-16836699D02*
X21575016Y-16827176D01*
X21575016Y-16827176D02*
X21603588Y-16827176D01*
X21603588Y-16827176D02*
X21622635Y-16836699D01*
X21622635Y-16836699D02*
X21632159Y-16855747D01*
X21632159Y-16855747D02*
X21632159Y-16960509D01*
X21632159Y-16855747D02*
X21641683Y-16836699D01*
X21641683Y-16836699D02*
X21660731Y-16827176D01*
X21660731Y-16827176D02*
X21689302Y-16827176D01*
X21689302Y-16827176D02*
X21708350Y-16836699D01*
X21708350Y-16836699D02*
X21717873Y-16855747D01*
X21717873Y-16855747D02*
X21717873Y-16960509D01*
X21813112Y-16960509D02*
X21813112Y-16827176D01*
X21813112Y-16846223D02*
X21822635Y-16836699D01*
X21822635Y-16836699D02*
X21841683Y-16827176D01*
X21841683Y-16827176D02*
X21870254Y-16827176D01*
X21870254Y-16827176D02*
X21889302Y-16836699D01*
X21889302Y-16836699D02*
X21898826Y-16855747D01*
X21898826Y-16855747D02*
X21898826Y-16960509D01*
X21898826Y-16855747D02*
X21908350Y-16836699D01*
X21908350Y-16836699D02*
X21927397Y-16827176D01*
X21927397Y-16827176D02*
X21955969Y-16827176D01*
X21955969Y-16827176D02*
X21975016Y-16836699D01*
X21975016Y-16836699D02*
X21984540Y-16855747D01*
X21984540Y-16855747D02*
X21984540Y-16960509D01*
X22375016Y-16750985D02*
X22203588Y-17008128D01*
X22632159Y-16760509D02*
X22651207Y-16760509D01*
X22651207Y-16760509D02*
X22670254Y-16770033D01*
X22670254Y-16770033D02*
X22679778Y-16779557D01*
X22679778Y-16779557D02*
X22689302Y-16798604D01*
X22689302Y-16798604D02*
X22698826Y-16836699D01*
X22698826Y-16836699D02*
X22698826Y-16884318D01*
X22698826Y-16884318D02*
X22689302Y-16922414D01*
X22689302Y-16922414D02*
X22679778Y-16941461D01*
X22679778Y-16941461D02*
X22670254Y-16950985D01*
X22670254Y-16950985D02*
X22651207Y-16960509D01*
X22651207Y-16960509D02*
X22632159Y-16960509D01*
X22632159Y-16960509D02*
X22613112Y-16950985D01*
X22613112Y-16950985D02*
X22603588Y-16941461D01*
X22603588Y-16941461D02*
X22594064Y-16922414D01*
X22594064Y-16922414D02*
X22584540Y-16884318D01*
X22584540Y-16884318D02*
X22584540Y-16836699D01*
X22584540Y-16836699D02*
X22594064Y-16798604D01*
X22594064Y-16798604D02*
X22603588Y-16779557D01*
X22603588Y-16779557D02*
X22613112Y-16770033D01*
X22613112Y-16770033D02*
X22632159Y-16760509D01*
X22784540Y-16941461D02*
X22794064Y-16950985D01*
X22794064Y-16950985D02*
X22784540Y-16960509D01*
X22784540Y-16960509D02*
X22775016Y-16950985D01*
X22775016Y-16950985D02*
X22784540Y-16941461D01*
X22784540Y-16941461D02*
X22784540Y-16960509D01*
X22917873Y-16760509D02*
X22936921Y-16760509D01*
X22936921Y-16760509D02*
X22955969Y-16770033D01*
X22955969Y-16770033D02*
X22965493Y-16779557D01*
X22965493Y-16779557D02*
X22975016Y-16798604D01*
X22975016Y-16798604D02*
X22984540Y-16836699D01*
X22984540Y-16836699D02*
X22984540Y-16884318D01*
X22984540Y-16884318D02*
X22975016Y-16922414D01*
X22975016Y-16922414D02*
X22965493Y-16941461D01*
X22965493Y-16941461D02*
X22955969Y-16950985D01*
X22955969Y-16950985D02*
X22936921Y-16960509D01*
X22936921Y-16960509D02*
X22917873Y-16960509D01*
X22917873Y-16960509D02*
X22898826Y-16950985D01*
X22898826Y-16950985D02*
X22889302Y-16941461D01*
X22889302Y-16941461D02*
X22879778Y-16922414D01*
X22879778Y-16922414D02*
X22870254Y-16884318D01*
X22870254Y-16884318D02*
X22870254Y-16836699D01*
X22870254Y-16836699D02*
X22879778Y-16798604D01*
X22879778Y-16798604D02*
X22889302Y-16779557D01*
X22889302Y-16779557D02*
X22898826Y-16770033D01*
X22898826Y-16770033D02*
X22917873Y-16760509D01*
X23079778Y-16960509D02*
X23117873Y-16960509D01*
X23117873Y-16960509D02*
X23136921Y-16950985D01*
X23136921Y-16950985D02*
X23146445Y-16941461D01*
X23146445Y-16941461D02*
X23165493Y-16912890D01*
X23165493Y-16912890D02*
X23175016Y-16874795D01*
X23175016Y-16874795D02*
X23175016Y-16798604D01*
X23175016Y-16798604D02*
X23165493Y-16779557D01*
X23165493Y-16779557D02*
X23155969Y-16770033D01*
X23155969Y-16770033D02*
X23136921Y-16760509D01*
X23136921Y-16760509D02*
X23098826Y-16760509D01*
X23098826Y-16760509D02*
X23079778Y-16770033D01*
X23079778Y-16770033D02*
X23070254Y-16779557D01*
X23070254Y-16779557D02*
X23060731Y-16798604D01*
X23060731Y-16798604D02*
X23060731Y-16846223D01*
X23060731Y-16846223D02*
X23070254Y-16865271D01*
X23070254Y-16865271D02*
X23079778Y-16874795D01*
X23079778Y-16874795D02*
X23098826Y-16884318D01*
X23098826Y-16884318D02*
X23136921Y-16884318D01*
X23136921Y-16884318D02*
X23155969Y-16874795D01*
X23155969Y-16874795D02*
X23165493Y-16865271D01*
X23165493Y-16865271D02*
X23175016Y-16846223D01*
X23289302Y-16846223D02*
X23270254Y-16836699D01*
X23270254Y-16836699D02*
X23260731Y-16827176D01*
X23260731Y-16827176D02*
X23251207Y-16808128D01*
X23251207Y-16808128D02*
X23251207Y-16798604D01*
X23251207Y-16798604D02*
X23260731Y-16779557D01*
X23260731Y-16779557D02*
X23270254Y-16770033D01*
X23270254Y-16770033D02*
X23289302Y-16760509D01*
X23289302Y-16760509D02*
X23327397Y-16760509D01*
X23327397Y-16760509D02*
X23346445Y-16770033D01*
X23346445Y-16770033D02*
X23355969Y-16779557D01*
X23355969Y-16779557D02*
X23365493Y-16798604D01*
X23365493Y-16798604D02*
X23365493Y-16808128D01*
X23365493Y-16808128D02*
X23355969Y-16827176D01*
X23355969Y-16827176D02*
X23346445Y-16836699D01*
X23346445Y-16836699D02*
X23327397Y-16846223D01*
X23327397Y-16846223D02*
X23289302Y-16846223D01*
X23289302Y-16846223D02*
X23270254Y-16855747D01*
X23270254Y-16855747D02*
X23260731Y-16865271D01*
X23260731Y-16865271D02*
X23251207Y-16884318D01*
X23251207Y-16884318D02*
X23251207Y-16922414D01*
X23251207Y-16922414D02*
X23260731Y-16941461D01*
X23260731Y-16941461D02*
X23270254Y-16950985D01*
X23270254Y-16950985D02*
X23289302Y-16960509D01*
X23289302Y-16960509D02*
X23327397Y-16960509D01*
X23327397Y-16960509D02*
X23346445Y-16950985D01*
X23346445Y-16950985D02*
X23355969Y-16941461D01*
X23355969Y-16941461D02*
X23365493Y-16922414D01*
X23365493Y-16922414D02*
X23365493Y-16884318D01*
X23365493Y-16884318D02*
X23355969Y-16865271D01*
X23355969Y-16865271D02*
X23346445Y-16855747D01*
X23346445Y-16855747D02*
X23327397Y-16846223D01*
X23536921Y-16827176D02*
X23536921Y-16960509D01*
X23489302Y-16750985D02*
X23441683Y-16893842D01*
X23441683Y-16893842D02*
X23565493Y-16893842D01*
X23632159Y-16760509D02*
X23632159Y-16798604D01*
X23708350Y-16760509D02*
X23708350Y-16798604D01*
X24003588Y-17036699D02*
X23994064Y-17027176D01*
X23994064Y-17027176D02*
X23975016Y-16998604D01*
X23975016Y-16998604D02*
X23965493Y-16979557D01*
X23965493Y-16979557D02*
X23955969Y-16950985D01*
X23955969Y-16950985D02*
X23946445Y-16903366D01*
X23946445Y-16903366D02*
X23946445Y-16865271D01*
X23946445Y-16865271D02*
X23955969Y-16817652D01*
X23955969Y-16817652D02*
X23965493Y-16789080D01*
X23965493Y-16789080D02*
X23975016Y-16770033D01*
X23975016Y-16770033D02*
X23994064Y-16741461D01*
X23994064Y-16741461D02*
X24003588Y-16731937D01*
X24060731Y-16760509D02*
X24184540Y-16760509D01*
X24184540Y-16760509D02*
X24117874Y-16836699D01*
X24117874Y-16836699D02*
X24146445Y-16836699D01*
X24146445Y-16836699D02*
X24165493Y-16846223D01*
X24165493Y-16846223D02*
X24175016Y-16855747D01*
X24175016Y-16855747D02*
X24184540Y-16874795D01*
X24184540Y-16874795D02*
X24184540Y-16922414D01*
X24184540Y-16922414D02*
X24175016Y-16941461D01*
X24175016Y-16941461D02*
X24165493Y-16950985D01*
X24165493Y-16950985D02*
X24146445Y-16960509D01*
X24146445Y-16960509D02*
X24089302Y-16960509D01*
X24089302Y-16960509D02*
X24070255Y-16950985D01*
X24070255Y-16950985D02*
X24060731Y-16941461D01*
X24422636Y-16960509D02*
X24422636Y-16760509D01*
X24508350Y-16960509D02*
X24508350Y-16855747D01*
X24508350Y-16855747D02*
X24498826Y-16836699D01*
X24498826Y-16836699D02*
X24479778Y-16827176D01*
X24479778Y-16827176D02*
X24451207Y-16827176D01*
X24451207Y-16827176D02*
X24432159Y-16836699D01*
X24432159Y-16836699D02*
X24422636Y-16846223D01*
X24632159Y-16960509D02*
X24613112Y-16950985D01*
X24613112Y-16950985D02*
X24603588Y-16941461D01*
X24603588Y-16941461D02*
X24594064Y-16922414D01*
X24594064Y-16922414D02*
X24594064Y-16865271D01*
X24594064Y-16865271D02*
X24603588Y-16846223D01*
X24603588Y-16846223D02*
X24613112Y-16836699D01*
X24613112Y-16836699D02*
X24632159Y-16827176D01*
X24632159Y-16827176D02*
X24660731Y-16827176D01*
X24660731Y-16827176D02*
X24679778Y-16836699D01*
X24679778Y-16836699D02*
X24689302Y-16846223D01*
X24689302Y-16846223D02*
X24698826Y-16865271D01*
X24698826Y-16865271D02*
X24698826Y-16922414D01*
X24698826Y-16922414D02*
X24689302Y-16941461D01*
X24689302Y-16941461D02*
X24679778Y-16950985D01*
X24679778Y-16950985D02*
X24660731Y-16960509D01*
X24660731Y-16960509D02*
X24632159Y-16960509D01*
X24813112Y-16960509D02*
X24794064Y-16950985D01*
X24794064Y-16950985D02*
X24784540Y-16931937D01*
X24784540Y-16931937D02*
X24784540Y-16760509D01*
X24965493Y-16950985D02*
X24946445Y-16960509D01*
X24946445Y-16960509D02*
X24908350Y-16960509D01*
X24908350Y-16960509D02*
X24889302Y-16950985D01*
X24889302Y-16950985D02*
X24879778Y-16931937D01*
X24879778Y-16931937D02*
X24879778Y-16855747D01*
X24879778Y-16855747D02*
X24889302Y-16836699D01*
X24889302Y-16836699D02*
X24908350Y-16827176D01*
X24908350Y-16827176D02*
X24946445Y-16827176D01*
X24946445Y-16827176D02*
X24965493Y-16836699D01*
X24965493Y-16836699D02*
X24975017Y-16855747D01*
X24975017Y-16855747D02*
X24975017Y-16874795D01*
X24975017Y-16874795D02*
X24879778Y-16893842D01*
X25051207Y-16950985D02*
X25070255Y-16960509D01*
X25070255Y-16960509D02*
X25108350Y-16960509D01*
X25108350Y-16960509D02*
X25127398Y-16950985D01*
X25127398Y-16950985D02*
X25136921Y-16931937D01*
X25136921Y-16931937D02*
X25136921Y-16922414D01*
X25136921Y-16922414D02*
X25127398Y-16903366D01*
X25127398Y-16903366D02*
X25108350Y-16893842D01*
X25108350Y-16893842D02*
X25079778Y-16893842D01*
X25079778Y-16893842D02*
X25060731Y-16884318D01*
X25060731Y-16884318D02*
X25051207Y-16865271D01*
X25051207Y-16865271D02*
X25051207Y-16855747D01*
X25051207Y-16855747D02*
X25060731Y-16836699D01*
X25060731Y-16836699D02*
X25079778Y-16827176D01*
X25079778Y-16827176D02*
X25108350Y-16827176D01*
X25108350Y-16827176D02*
X25127398Y-16836699D01*
X25203588Y-17036699D02*
X25213112Y-17027176D01*
X25213112Y-17027176D02*
X25232159Y-16998604D01*
X25232159Y-16998604D02*
X25241683Y-16979557D01*
X25241683Y-16979557D02*
X25251207Y-16950985D01*
X25251207Y-16950985D02*
X25260731Y-16903366D01*
X25260731Y-16903366D02*
X25260731Y-16865271D01*
X25260731Y-16865271D02*
X25251207Y-16817652D01*
X25251207Y-16817652D02*
X25241683Y-16789080D01*
X25241683Y-16789080D02*
X25232159Y-16770033D01*
X25232159Y-16770033D02*
X25213112Y-16741461D01*
X25213112Y-16741461D02*
X25203588Y-16731937D01*
M02*
