%TF.GenerationSoftware,KiCad,Pcbnew,8.0.4-8.0.4-0~ubuntu22.04.1*%
%TF.CreationDate,2024-08-18T15:20:42-07:00*%
%TF.ProjectId,feather_M4_express,66656174-6865-4725-9f4d-345f65787072,rev?*%
%TF.SameCoordinates,Original*%
%TF.FileFunction,Soldermask,Bot*%
%TF.FilePolarity,Negative*%
%FSLAX46Y46*%
G04 Gerber Fmt 4.6, Leading zero omitted, Abs format (unit mm)*
G04 Created by KiCad (PCBNEW 8.0.4-8.0.4-0~ubuntu22.04.1) date 2024-08-18 15:20:42*
%MOMM*%
%LPD*%
G01*
G04 APERTURE LIST*
G04 Aperture macros list*
%AMRoundRect*
0 Rectangle with rounded corners*
0 $1 Rounding radius*
0 $2 $3 $4 $5 $6 $7 $8 $9 X,Y pos of 4 corners*
0 Add a 4 corners polygon primitive as box body*
4,1,4,$2,$3,$4,$5,$6,$7,$8,$9,$2,$3,0*
0 Add four circle primitives for the rounded corners*
1,1,$1+$1,$2,$3*
1,1,$1+$1,$4,$5*
1,1,$1+$1,$6,$7*
1,1,$1+$1,$8,$9*
0 Add four rect primitives between the rounded corners*
20,1,$1+$1,$2,$3,$4,$5,0*
20,1,$1+$1,$4,$5,$6,$7,0*
20,1,$1+$1,$6,$7,$8,$9,0*
20,1,$1+$1,$8,$9,$2,$3,0*%
G04 Aperture macros list end*
%ADD10C,0.000000*%
%ADD11O,1.550000X0.890000*%
%ADD12O,0.950000X1.250000*%
%ADD13C,3.301600*%
%ADD14C,1.778000*%
%ADD15C,2.500000*%
%ADD16C,2.540000*%
%ADD17RoundRect,0.800800X0.000010X0.000010X-0.000010X0.000010X-0.000010X-0.000010X0.000010X-0.000010X0*%
%ADD18RoundRect,0.685800X0.000010X0.000010X-0.000010X0.000010X-0.000010X-0.000010X0.000010X-0.000010X0*%
G04 APERTURE END LIST*
D10*
%TO.C,SJ1*%
G36*
X216065100Y-146850100D02*
G01*
X213271100Y-146850100D01*
X213271100Y-145072100D01*
X216065100Y-145072100D01*
X216065100Y-146850100D01*
G37*
%TD*%
D11*
%TO.C,X3*%
X206298800Y-134138200D03*
D12*
X208998800Y-135138200D03*
X208998800Y-140138200D03*
D11*
X206298800Y-141138200D03*
%TD*%
D13*
%TO.C,U$32*%
X206857600Y-146532600D03*
%TD*%
D14*
%TO.C,JP1*%
X248767600Y-147802600D03*
X246227600Y-147802600D03*
X243687600Y-147802600D03*
X241147600Y-147802600D03*
X238607600Y-147802600D03*
X236067600Y-147802600D03*
X233527600Y-147802600D03*
X230987600Y-147802600D03*
X228447600Y-147802600D03*
X225907600Y-147802600D03*
X223367600Y-147802600D03*
X220827600Y-147802600D03*
X218287600Y-147802600D03*
X215747600Y-147802600D03*
X213207600Y-147802600D03*
X210667600Y-147802600D03*
%TD*%
D15*
%TO.C,@HOLE1*%
X252577600Y-146532600D03*
%TD*%
D13*
%TO.C,P$2*%
X206883000Y-128778000D03*
%TD*%
D14*
%TO.C,JP3*%
X220827600Y-127482600D03*
X223367600Y-127482600D03*
X225907600Y-127482600D03*
X228447600Y-127482600D03*
X230987600Y-127482600D03*
X233527600Y-127482600D03*
X236067600Y-127482600D03*
X238607600Y-127482600D03*
X241147600Y-127482600D03*
X243687600Y-127482600D03*
X246227600Y-127482600D03*
X248767600Y-127482600D03*
%TD*%
D15*
%TO.C,@HOLE0*%
X252577600Y-128752600D03*
%TD*%
D13*
%TO.C,P$1*%
X206857600Y-146507200D03*
%TD*%
D16*
%TO.C,@HOLE1*%
X252577600Y-146532600D03*
%TD*%
D17*
%TO.C,TP2*%
X225196400Y-143789400D03*
%TD*%
D18*
%TO.C,TP4*%
X209651600Y-136626600D03*
%TD*%
D17*
%TO.C,TP1*%
X222859600Y-143865600D03*
%TD*%
D18*
%TO.C,TP3*%
X209651600Y-138658600D03*
%TD*%
M02*
